AnekDevanagari-CondensedExtraBold.ufo
<glyph name="dollar" format="2">
  <advance width="719"/>
  <unicode hex="0024"/>
  <anchor x="347" y="0" name="bottom"/>
  <anchor x="347" y="1278" name="top"/>
  <outline>
    <contour>
      <point x="481" y="1434" type="line"/>
      <point x="215" y="1434" type="line"/>
      <point x="215" y="1134" type="line"/>
      <point x="481" y="1134" type="line"/>
    </contour>
    <contour>
      <point x="481" y="183" type="line"/>
      <point x="215" y="183" type="line"/>
      <point x="215" y="-165" type="line"/>
      <point x="481" y="-165" type="line"/>
    </contour>
    <contour>
      <point x="315" y="-22" type="curve" smooth="yes"/>
      <point x="563" y="-22"/>
      <point x="685" y="110"/>
      <point x="685" y="346" type="curve" smooth="yes"/>
      <point x="685" y="371" type="line" smooth="yes"/>
      <point x="685" y="544"/>
      <point x="624" y="625"/>
      <point x="495" y="737" type="curve" smooth="yes"/>
      <point x="396" y="823"/>
      <point x="352" y="863"/>
      <point x="352" y="927" type="curve" smooth="yes"/>
      <point x="352" y="932" type="line" smooth="yes"/>
      <point x="352" y="988"/>
      <point x="387" y="1017"/>
      <point x="458" y="1017" type="curve" smooth="yes"/>
      <point x="537" y="1017"/>
      <point x="596" y="986"/>
      <point x="642" y="956" type="curve"/>
      <point x="624" y="1227" type="line"/>
      <point x="569" y="1266"/>
      <point x="485" y="1300"/>
      <point x="374" y="1300" type="curve" smooth="yes"/>
      <point x="154" y="1300"/>
      <point x="30" y="1172"/>
      <point x="30" y="958" type="curve" smooth="yes"/>
      <point x="30" y="935" type="line" smooth="yes"/>
      <point x="30" y="765"/>
      <point x="113" y="664"/>
      <point x="241" y="551" type="curve" smooth="yes"/>
      <point x="320" y="481"/>
      <point x="363" y="449"/>
      <point x="363" y="378" type="curve" smooth="yes"/>
      <point x="363" y="361" type="line" smooth="yes"/>
      <point x="363" y="300"/>
      <point x="326" y="265"/>
      <point x="243" y="265" type="curve" smooth="yes"/>
      <point x="159" y="265"/>
      <point x="89" y="297"/>
      <point x="37" y="325" type="curve"/>
      <point x="56" y="42" type="line"/>
      <point x="113" y="8"/>
      <point x="201" y="-22"/>
    </contour>
  </outline>
</glyph>
<glyph name="nine" format="2">
  <advance width="847"/>
  <unicode hex="0039"/>
  <outline>
    <contour>
      <point x="419" y="1297" type="curve" smooth="yes"/>
      <point x="166" y="1297"/>
      <point x="42" y="1155"/>
      <point x="42" y="879" type="curve" smooth="yes"/>
      <point x="42" y="803" type="line" smooth="yes"/>
      <point x="42" y="564"/>
      <point x="101" y="430"/>
      <point x="278" y="430" type="curve" smooth="yes"/>
      <point x="407" y="430"/>
      <point x="459" y="509"/>
      <point x="474" y="630" type="curve"/>
      <point x="584" y="630" type="line"/>
      <point x="487" y="756" type="line"/>
      <point x="480" y="714"/>
      <point x="456" y="686"/>
      <point x="411" y="686" type="curve" smooth="yes"/>
      <point x="358" y="686"/>
      <point x="342" y="726"/>
      <point x="342" y="818" type="curve" smooth="yes"/>
      <point x="342" y="886" type="line" smooth="yes"/>
      <point x="342" y="988"/>
      <point x="358" y="1030"/>
      <point x="413" y="1030" type="curve" smooth="yes"/>
      <point x="469" y="1030"/>
      <point x="485" y="988"/>
      <point x="485" y="886" type="curve" smooth="yes"/>
      <point x="485" y="473" type="line" smooth="yes"/>
      <point x="485" y="318"/>
      <point x="426" y="259"/>
      <point x="286" y="259" type="curve" smooth="yes"/>
      <point x="205" y="259"/>
      <point x="147" y="283"/>
      <point x="100" y="305" type="curve"/>
      <point x="122" y="31" type="line"/>
      <point x="169" y="7"/>
      <point x="251" y="-20"/>
      <point x="360" y="-20" type="curve" smooth="yes"/>
      <point x="650" y="-20"/>
      <point x="795" y="147"/>
      <point x="795" y="457" type="curve" smooth="yes"/>
      <point x="795" y="870" type="line" smooth="yes"/>
      <point x="795" y="1155"/>
      <point x="676" y="1297"/>
    </contour>
  </outline>
</glyph>
<glyph name="less" format="2">
  <advance width="733"/>
  <unicode hex="003C"/>
  <outline>
    <contour>
      <point x="678" y="711" type="line"/>
      <point x="678" y="966" type="line"/>
      <point x="53" y="837" type="line"/>
      <point x="53" y="438" type="line"/>
      <point x="678" y="309" type="line"/>
      <point x="678" y="564" type="line"/>
      <point x="248" y="629" type="line"/>
      <point x="248" y="645" type="line"/>
    </contour>
  </outline>
</glyph>
<glyph name="Q" format="2">
  <advance width="917"/>
  <unicode hex="0051"/>
  <anchor x="459" y="0" name="bottom"/>
  <anchor x="459" y="1278" name="top"/>
  <outline>
    <contour>
      <point x="907" y="224" type="line"/>
      <point x="655" y="215" type="line"/>
      <point x="655" y="226" type="line"/>
      <point x="806" y="239"/>
      <point x="857" y="339"/>
      <point x="857" y="515" type="curve" smooth="yes"/>
      <point x="857" y="851" type="line" smooth="yes"/>
      <point x="857" y="1149"/>
      <point x="725" y="1300"/>
      <point x="456" y="1300" type="curve" smooth="yes"/>
      <point x="187" y="1300"/>
      <point x="55" y="1149"/>
      <point x="55" y="851" type="curve" smooth="yes"/>
      <point x="55" y="427" type="line" smooth="yes"/>
      <point x="55" y="128"/>
      <point x="178" y="-7"/>
      <point x="511" y="-24" type="curve" smooth="yes"/>
      <point x="907" y="-44" type="line"/>
    </contour>
    <contour>
      <point x="469" y="245" type="line" smooth="yes"/>
      <point x="401" y="245"/>
      <point x="377" y="296"/>
      <point x="377" y="385" type="curve" smooth="yes"/>
      <point x="377" y="883" type="line" smooth="yes"/>
      <point x="377" y="989"/>
      <point x="395" y="1033"/>
      <point x="456" y="1033" type="curve" smooth="yes"/>
      <point x="517" y="1033"/>
      <point x="535" y="989"/>
      <point x="535" y="883" type="curve" smooth="yes"/>
      <point x="535" y="396" type="line" smooth="yes"/>
      <point x="535" y="302"/>
      <point x="522" y="263"/>
      <point x="478" y="245" type="curve"/>
    </contour>
  </outline>
</glyph>
<glyph name="underscore" format="2">
  <advance width="615"/>
  <unicode hex="005F"/>
  <outline>
    <contour>
      <point x="599" y="-259" type="line"/>
      <point x="599" y="-15" type="line"/>
      <point x="16" y="-15" type="line"/>
      <point x="16" y="-259" type="line"/>
    </contour>
  </outline>
</glyph>
<glyph name="b" format="2">
  <advance width="865"/>
  <unicode hex="0062"/>
  <anchor x="433" y="0" name="bottom"/>
  <anchor x="433" y="1324" name="top"/>
  <outline>
    <contour>
      <point x="583" y="-15" type="curve" smooth="yes"/>
      <point x="757" y="-15"/>
      <point x="814" y="120"/>
      <point x="814" y="381" type="curve" smooth="yes"/>
      <point x="814" y="607" type="line" smooth="yes"/>
      <point x="814" y="878"/>
      <point x="754" y="1021"/>
      <point x="586" y="1021" type="curve" smooth="yes"/>
      <point x="450" y="1021"/>
      <point x="400" y="937"/>
      <point x="382" y="821" type="curve"/>
      <point x="334" y="821" type="line"/>
      <point x="369" y="708" type="line"/>
      <point x="378" y="745"/>
      <point x="402" y="769"/>
      <point x="439" y="769" type="curve" smooth="yes"/>
      <point x="489" y="769"/>
      <point x="503" y="729"/>
      <point x="503" y="642" type="curve" smooth="yes"/>
      <point x="503" y="374" type="line" smooth="yes"/>
      <point x="503" y="287"/>
      <point x="489" y="245"/>
      <point x="439" y="245" type="curve" smooth="yes"/>
      <point x="389" y="245"/>
      <point x="371" y="283"/>
      <point x="371" y="359" type="curve"/>
      <point x="292" y="190" type="line"/>
      <point x="375" y="190" type="line"/>
      <point x="395" y="75"/>
      <point x="446" y="-15"/>
    </contour>
    <contour>
      <point x="373" y="0" type="line"/>
      <point x="362" y="221" type="line"/>
      <point x="371" y="221" type="line"/>
      <point x="371" y="776" type="line"/>
      <point x="371" y="804" type="line"/>
      <point x="375" y="1106" type="line"/>
      <point x="375" y="1324" type="line"/>
      <point x="66" y="1324" type="line"/>
      <point x="66" y="0" type="line"/>
    </contour>
  </outline>
</glyph>
<glyph name="dieresis" format="2">
  <advance width="763"/>
  <unicode hex="00A8"/>
  <anchor x="382" y="1006" name="_top"/>
  <anchor x="382" y="1366" name="top"/>
  <outline>
    <contour>
      <point x="229" y="1067" type="curve" smooth="yes"/>
      <point x="316" y="1067"/>
      <point x="360" y="1117"/>
      <point x="360" y="1213" type="curve" smooth="yes"/>
      <point x="360" y="1224" type="line" smooth="yes"/>
      <point x="360" y="1320"/>
      <point x="316" y="1370"/>
      <point x="229" y="1370" type="curve" smooth="yes"/>
      <point x="143" y="1370"/>
      <point x="100" y="1320"/>
      <point x="100" y="1224" type="curve" smooth="yes"/>
      <point x="100" y="1213" type="line" smooth="yes"/>
      <point x="100" y="1117"/>
      <point x="143" y="1067"/>
    </contour>
    <contour>
      <point x="533" y="1067" type="curve" smooth="yes"/>
      <point x="619" y="1067"/>
      <point x="663" y="1117"/>
      <point x="663" y="1213" type="curve" smooth="yes"/>
      <point x="663" y="1224" type="line" smooth="yes"/>
      <point x="663" y="1320"/>
      <point x="619" y="1370"/>
      <point x="533" y="1370" type="curve" smooth="yes"/>
      <point x="446" y="1370"/>
      <point x="404" y="1320"/>
      <point x="404" y="1224" type="curve" smooth="yes"/>
      <point x="404" y="1213" type="line" smooth="yes"/>
      <point x="404" y="1117"/>
      <point x="446" y="1067"/>
    </contour>
  </outline>
</glyph>
<glyph name="copyright" format="2">
  <advance width="1184"/>
  <unicode hex="00A9"/>
  <outline>
    <contour>
      <point x="592" y="-19" type="curve" smooth="yes"/>
      <point x="942" y="-19"/>
      <point x="1129" y="174"/>
      <point x="1129" y="542" type="curve" smooth="yes"/>
      <point x="1129" y="736" type="line" smooth="yes"/>
      <point x="1129" y="1104"/>
      <point x="942" y="1297"/>
      <point x="592" y="1297" type="curve" smooth="yes"/>
      <point x="242" y="1297"/>
      <point x="55" y="1104"/>
      <point x="55" y="736" type="curve" smooth="yes"/>
      <point x="55" y="542" type="line" smooth="yes"/>
      <point x="55" y="174"/>
      <point x="242" y="-19"/>
    </contour>
    <contour>
      <point x="629" y="302" type="curve" smooth="yes"/>
      <point x="686" y="302"/>
      <point x="737" y="316"/>
      <point x="770" y="335" type="curve"/>
      <point x="783" y="517" type="line"/>
      <point x="761" y="503"/>
      <point x="733" y="492"/>
      <point x="699" y="492" type="curve" smooth="yes"/>
      <point x="634" y="492"/>
      <point x="605" y="530"/>
      <point x="605" y="599" type="curve" smooth="yes"/>
      <point x="605" y="685" type="line" smooth="yes"/>
      <point x="605" y="753"/>
      <point x="629" y="791"/>
      <point x="694" y="791" type="curve" smooth="yes"/>
      <point x="727" y="791"/>
      <point x="752" y="780"/>
      <point x="777" y="767" type="curve"/>
      <point x="764" y="944" type="line"/>
      <point x="732" y="963"/>
      <point x="686" y="977"/>
      <point x="629" y="977" type="curve" smooth="yes"/>
      <point x="467" y="977"/>
      <point x="391" y="873"/>
      <point x="391" y="693" type="curve" smooth="yes"/>
      <point x="391" y="585" type="line" smooth="yes"/>
      <point x="391" y="406"/>
      <point x="465" y="302"/>
    </contour>
    <contour>
      <point x="592" y="161" type="curve" smooth="yes"/>
      <point x="380" y="161"/>
      <point x="263" y="286"/>
      <point x="263" y="516" type="curve" smooth="yes"/>
      <point x="263" y="764" type="line" smooth="yes"/>
      <point x="263" y="993"/>
      <point x="380" y="1117"/>
      <point x="592" y="1117" type="curve" smooth="yes"/>
      <point x="804" y="1117"/>
      <point x="921" y="993"/>
      <point x="921" y="764" type="curve" smooth="yes"/>
      <point x="921" y="516" type="line" smooth="yes"/>
      <point x="921" y="286"/>
      <point x="804" y="161"/>
    </contour>
  </outline>
</glyph>
<glyph name="guillemetleft" format="2">
  <advance width="802"/>
  <unicode hex="00AB"/>
  <outline>
    <contour>
      <point x="792" y="916" type="line"/>
      <point x="521" y="916" type="line"/>
      <point x="377" y="532" type="line"/>
      <point x="377" y="473" type="line"/>
      <point x="521" y="89" type="line"/>
      <point x="792" y="89" type="line"/>
      <point x="642" y="502" type="line"/>
    </contour>
    <contour>
      <point x="435" y="916" type="line"/>
      <point x="164" y="916" type="line"/>
      <point x="20" y="532" type="line"/>
      <point x="20" y="473" type="line"/>
      <point x="164" y="89" type="line"/>
      <point x="435" y="89" type="line"/>
      <point x="285" y="502" type="line"/>
    </contour>
  </outline>
</glyph>
<glyph name="onequarter" format="2">
  <advance width="1077"/>
  <unicode hex="00BC"/>
  <outline>
    <contour>
      <point x="322" y="594" type="line"/>
      <point x="322" y="1278" type="line"/>
      <point x="162" y="1278" type="line"/>
      <point x="20" y="1203" type="line"/>
      <point x="15" y="1002" type="line"/>
      <point x="117" y="1058" type="line"/>
      <point x="126" y="1058" type="line"/>
      <point x="127" y="594" type="line"/>
    </contour>
    <contour>
      <point x="323" y="0" type="line"/>
      <point x="878" y="1278" type="line"/>
      <point x="677" y="1278" type="line"/>
      <point x="122" y="0" type="line"/>
    </contour>
    <contour>
      <point x="1017" y="0" type="line"/>
      <point x="1017" y="684" type="line"/>
      <point x="717" y="684" type="line"/>
      <point x="608" y="261" type="line"/>
      <point x="608" y="96" type="line"/>
      <point x="1067" y="96" type="line"/>
      <point x="1067" y="253" type="line"/>
      <point x="694" y="253" type="line"/>
      <point x="772" y="205" type="line"/>
      <point x="772" y="252" type="line"/>
      <point x="838" y="541" type="line"/>
      <point x="849" y="541" type="line"/>
      <point x="840" y="324" type="line"/>
      <point x="840" y="0" type="line"/>
    </contour>
  </outline>
</glyph>
<glyph name="Aacute" format="2">
  <advance width="863"/>
  <unicode hex="00C1"/>
  <anchor x="432" y="0" name="bottom"/>
  <anchor x="875" y="0" name="ogonek"/>
  <anchor x="432" y="1618" name="top"/>
  <outline>
    <contour>
      <point x="328" y="0" type="line"/>
      <point x="421" y="1052" type="line"/>
      <point x="442" y="1052" type="line"/>
      <point x="535" y="0" type="line"/>
      <point x="845" y="0" type="line"/>
      <point x="677" y="1278" type="line"/>
      <point x="186" y="1278" type="line"/>
      <point x="18" y="0" type="line"/>
    </contour>
    <contour>
      <point x="611" y="283" type="line"/>
      <point x="611" y="522" type="line"/>
      <point x="248" y="522" type="line"/>
      <point x="248" y="283" type="line"/>
    </contour>
    <contour>
      <point x="300" y="1348" type="line"/>
      <point x="300" y="1348" type="line"/>
      <point x="541" y="1348" type="line"/>
      <point x="754" y="1618" type="line"/>
      <point x="754" y="1618" type="line"/>
      <point x="456" y="1618" type="line"/>
    </contour>
  </outline>
</glyph>
<glyph name="Acircumflex" format="2">
  <advance width="863"/>
  <unicode hex="00C2"/>
  <anchor x="432" y="0" name="bottom"/>
  <anchor x="875" y="0" name="ogonek"/>
  <anchor x="432" y="1598" name="top"/>
  <outline>
    <contour>
      <point x="328" y="0" type="line"/>
      <point x="421" y="1052" type="line"/>
      <point x="442" y="1052" type="line"/>
      <point x="535" y="0" type="line"/>
      <point x="845" y="0" type="line"/>
      <point x="677" y="1278" type="line"/>
      <point x="186" y="1278" type="line"/>
      <point x="18" y="0" type="line"/>
    </contour>
    <contour>
      <point x="611" y="283" type="line"/>
      <point x="611" y="522" type="line"/>
      <point x="248" y="522" type="line"/>
      <point x="248" y="283" type="line"/>
    </contour>
    <contour>
      <point x="122" y="1348" type="line"/>
      <point x="122" y="1348" type="line"/>
      <point x="341" y="1348" type="line"/>
      <point x="428" y="1467" type="line"/>
      <point x="436" y="1467" type="line"/>
      <point x="522" y="1348" type="line"/>
      <point x="742" y="1348" type="line"/>
      <point x="742" y="1348" type="line"/>
      <point x="587" y="1618" type="line"/>
      <point x="276" y="1618" type="line"/>
    </contour>
  </outline>
</glyph>
<glyph name="Atilde" format="2">
  <advance width="863"/>
  <unicode hex="00C3"/>
  <anchor x="432" y="0" name="bottom"/>
  <anchor x="875" y="0" name="ogonek"/>
  <anchor x="432" y="1611" name="top"/>
  <outline>
    <contour>
      <point x="328" y="0" type="line"/>
      <point x="421" y="1052" type="line"/>
      <point x="442" y="1052" type="line"/>
      <point x="535" y="0" type="line"/>
      <point x="845" y="0" type="line"/>
      <point x="677" y="1278" type="line"/>
      <point x="186" y="1278" type="line"/>
      <point x="18" y="0" type="line"/>
    </contour>
    <contour>
      <point x="611" y="283" type="line"/>
      <point x="611" y="522" type="line"/>
      <point x="248" y="522" type="line"/>
      <point x="248" y="283" type="line"/>
    </contour>
    <contour>
      <point x="546" y="1360" type="curve" smooth="yes"/>
      <point x="665" y="1360"/>
      <point x="711" y="1445"/>
      <point x="711" y="1571" type="curve" smooth="yes"/>
      <point x="711" y="1609" type="line"/>
      <point x="551" y="1609" type="line"/>
      <point x="551" y="1607" type="line"/>
      <point x="551" y="1568"/>
      <point x="541" y="1551"/>
      <point x="511" y="1551" type="curve" smooth="yes"/>
      <point x="460" y="1551"/>
      <point x="405" y="1597"/>
      <point x="323" y="1597" type="curve" smooth="yes"/>
      <point x="199" y="1597"/>
      <point x="152" y="1510"/>
      <point x="152" y="1392" type="curve" smooth="yes"/>
      <point x="152" y="1348" type="line"/>
      <point x="312" y="1348" type="line"/>
      <point x="312" y="1349" type="line"/>
      <point x="312" y="1387"/>
      <point x="322" y="1407"/>
      <point x="355" y="1407" type="curve" smooth="yes"/>
      <point x="405" y="1407"/>
      <point x="472" y="1360"/>
    </contour>
  </outline>
</glyph>
<glyph name="Ccedilla" format="2">
  <advance width="674"/>
  <unicode hex="00C7"/>
  <anchor x="416" y="-351" name="bottom"/>
  <anchor x="382" y="1278" name="top"/>
  <outline>
    <contour>
      <point x="414" y="-22" type="curve" smooth="yes"/>
      <point x="508" y="-22"/>
      <point x="583" y="6"/>
      <point x="623" y="33" type="curve"/>
      <point x="642" y="316" type="line"/>
      <point x="611" y="294"/>
      <point x="572" y="276"/>
      <point x="515" y="276" type="curve" smooth="yes"/>
      <point x="412" y="276"/>
      <point x="377" y="340"/>
      <point x="377" y="449" type="curve" smooth="yes"/>
      <point x="377" y="829" type="line" smooth="yes"/>
      <point x="377" y="940"/>
      <point x="408" y="1006"/>
      <point x="506" y="1006" type="curve" smooth="yes"/>
      <point x="561" y="1006"/>
      <point x="601" y="987"/>
      <point x="634" y="965" type="curve"/>
      <point x="616" y="1245" type="line"/>
      <point x="577" y="1273"/>
      <point x="508" y="1300"/>
      <point x="412" y="1300" type="curve" smooth="yes"/>
      <point x="174" y="1300"/>
      <point x="55" y="1151"/>
      <point x="55" y="855" type="curve" smooth="yes"/>
      <point x="55" y="429" type="line" smooth="yes"/>
      <point x="55" y="129"/>
      <point x="165" y="-22"/>
    </contour>
    <contour>
      <point x="300" y="37" type="line"/>
      <point x="290" y="-134" type="line"/>
      <point x="290" y="-134"/>
      <point x="292" y="-134"/>
      <point x="292" y="-134" type="curve"/>
      <point x="375" y="-140"/>
      <point x="397" y="-149"/>
      <point x="397" y="-171" type="curve" smooth="yes"/>
      <point x="397" y="-175" type="line" smooth="yes"/>
      <point x="397" y="-195"/>
      <point x="377" y="-202"/>
      <point x="331" y="-202" type="curve" smooth="yes"/>
      <point x="303" y="-202"/>
      <point x="270" y="-199"/>
      <point x="244" y="-193" type="curve"/>
      <point x="263" y="-337" type="line"/>
      <point x="298" y="-346"/>
      <point x="336" y="-351"/>
      <point x="388" y="-351" type="curve" smooth="yes"/>
      <point x="513" y="-351"/>
      <point x="588" y="-302"/>
      <point x="588" y="-197" type="curve" smooth="yes"/>
      <point x="588" y="-190" type="line" smooth="yes"/>
      <point x="588" y="-96"/>
      <point x="522" y="-53"/>
      <point x="414" y="-53" type="curve" smooth="yes"/>
      <point x="388" y="-53"/>
      <point x="364" y="-55"/>
      <point x="336" y="-59" type="curve"/>
      <point x="458" y="-120" type="line"/>
      <point x="471" y="37" type="line"/>
    </contour>
  </outline>
</glyph>
<glyph name="Idieresis" format="2">
  <advance width="468"/>
  <unicode hex="00CF"/>
  <anchor x="234" y="0" name="bottom"/>
  <anchor x="409" y="0" name="ogonek"/>
  <anchor x="234" y="1618" name="top"/>
  <anchor x="20" y="1278" name="topleft"/>
  <outline>
    <contour>
      <point x="394" y="1278" type="line"/>
      <point x="74" y="1278" type="line"/>
      <point x="74" y="0" type="line"/>
      <point x="394" y="0" type="line"/>
    </contour>
    <contour>
      <point x="81" y="1339" type="curve" smooth="yes"/>
      <point x="168" y="1339"/>
      <point x="212" y="1389"/>
      <point x="212" y="1485" type="curve" smooth="yes"/>
      <point x="212" y="1496" type="line" smooth="yes"/>
      <point x="212" y="1592"/>
      <point x="168" y="1642"/>
      <point x="81" y="1642" type="curve" smooth="yes"/>
      <point x="-5" y="1642"/>
      <point x="-48" y="1592"/>
      <point x="-48" y="1496" type="curve" smooth="yes"/>
      <point x="-48" y="1485" type="line" smooth="yes"/>
      <point x="-48" y="1389"/>
      <point x="-5" y="1339"/>
    </contour>
    <contour>
      <point x="385" y="1339" type="curve" smooth="yes"/>
      <point x="471" y="1339"/>
      <point x="515" y="1389"/>
      <point x="515" y="1485" type="curve" smooth="yes"/>
      <point x="515" y="1496" type="line" smooth="yes"/>
      <point x="515" y="1592"/>
      <point x="471" y="1642"/>
      <point x="385" y="1642" type="curve" smooth="yes"/>
      <point x="298" y="1642"/>
      <point x="256" y="1592"/>
      <point x="256" y="1496" type="curve" smooth="yes"/>
      <point x="256" y="1485" type="line" smooth="yes"/>
      <point x="256" y="1389"/>
      <point x="298" y="1339"/>
    </contour>
  </outline>
</glyph>
<glyph name="Eth" format="2">
  <advance width="904"/>
  <unicode hex="00D0"/>
  <anchor x="436" y="0" name="bottom"/>
  <anchor x="452" y="639" name="center"/>
  <anchor x="436" y="1278" name="top"/>
  <outline>
    <contour>
      <point x="468" y="554" type="line"/>
      <point x="468" y="746" type="line"/>
      <point x="2" y="746" type="line"/>
      <point x="2" y="554" type="line"/>
    </contour>
    <contour>
      <point x="449" y="0" type="line" smooth="yes"/>
      <point x="731" y="0"/>
      <point x="849" y="140"/>
      <point x="849" y="401" type="curve" smooth="yes"/>
      <point x="849" y="877" type="line" smooth="yes"/>
      <point x="849" y="1137"/>
      <point x="727" y="1278"/>
      <point x="449" y="1278" type="curve" smooth="yes"/>
      <point x="283" y="1278" type="line"/>
      <point x="283" y="1007" type="line"/>
      <point x="432" y="1007" type="line" smooth="yes"/>
      <point x="507" y="1007"/>
      <point x="537" y="970"/>
      <point x="537" y="878" type="curve" smooth="yes"/>
      <point x="537" y="402" type="line" smooth="yes"/>
      <point x="537" y="310"/>
      <point x="507" y="273"/>
      <point x="432" y="273" type="curve" smooth="yes"/>
      <point x="283" y="273" type="line"/>
      <point x="283" y="0" type="line"/>
    </contour>
    <contour>
      <point x="384" y="0" type="line"/>
      <point x="384" y="1278" type="line"/>
      <point x="74" y="1278" type="line"/>
      <point x="74" y="0" type="line"/>
    </contour>
  </outline>
</glyph>
<glyph name="Ograve" format="2">
  <advance width="912"/>
  <unicode hex="00D2"/>
  <anchor x="456" y="0" name="bottom"/>
  <anchor x="456" y="639" name="center"/>
  <anchor x="672" y="0" name="ogonek"/>
  <anchor x="387" y="1618" name="top"/>
  <anchor x="20" y="1278" name="topleft"/>
  <anchor x="910" y="1278" name="topright"/>
  <outline>
    <contour>
      <point x="456" y="-22" type="curve" smooth="yes"/>
      <point x="725" y="-22"/>
      <point x="857" y="127"/>
      <point x="857" y="427" type="curve" smooth="yes"/>
      <point x="857" y="851" type="line" smooth="yes"/>
      <point x="857" y="1149"/>
      <point x="725" y="1300"/>
      <point x="456" y="1300" type="curve" smooth="yes"/>
      <point x="187" y="1300"/>
      <point x="55" y="1149"/>
      <point x="55" y="851" type="curve" smooth="yes"/>
      <point x="55" y="427" type="line" smooth="yes"/>
      <point x="55" y="127"/>
      <point x="187" y="-22"/>
    </contour>
    <contour>
      <point x="456" y="245" type="curve" smooth="yes"/>
      <point x="395" y="245"/>
      <point x="377" y="289"/>
      <point x="377" y="396" type="curve" smooth="yes"/>
      <point x="377" y="883" type="line" smooth="yes"/>
      <point x="377" y="989"/>
      <point x="395" y="1033"/>
      <point x="456" y="1033" type="curve" smooth="yes"/>
      <point x="517" y="1033"/>
      <point x="535" y="989"/>
      <point x="535" y="883" type="curve" smooth="yes"/>
      <point x="535" y="396" type="line" smooth="yes"/>
      <point x="535" y="289"/>
      <point x="517" y="245"/>
    </contour>
    <contour>
      <point x="134" y="1618" type="line"/>
      <point x="134" y="1618" type="line"/>
      <point x="347" y="1348" type="line"/>
      <point x="588" y="1348" type="line"/>
      <point x="588" y="1348" type="line"/>
      <point x="432" y="1618" type="line"/>
    </contour>
  </outline>
</glyph>
<glyph name="Otilde" format="2">
  <advance width="912"/>
  <unicode hex="00D5"/>
  <anchor x="456" y="0" name="bottom"/>
  <anchor x="456" y="639" name="center"/>
  <anchor x="672" y="0" name="ogonek"/>
  <anchor x="456" y="1611" name="top"/>
  <anchor x="20" y="1278" name="topleft"/>
  <anchor x="910" y="1278" name="topright"/>
  <outline>
    <contour>
      <point x="456" y="-22" type="curve" smooth="yes"/>
      <point x="725" y="-22"/>
      <point x="857" y="127"/>
      <point x="857" y="427" type="curve" smooth="yes"/>
      <point x="857" y="851" type="line" smooth="yes"/>
      <point x="857" y="1149"/>
      <point x="725" y="1300"/>
      <point x="456" y="1300" type="curve" smooth="yes"/>
      <point x="187" y="1300"/>
      <point x="55" y="1149"/>
      <point x="55" y="851" type="curve" smooth="yes"/>
      <point x="55" y="427" type="line" smooth="yes"/>
      <point x="55" y="127"/>
      <point x="187" y="-22"/>
    </contour>
    <contour>
      <point x="456" y="245" type="curve" smooth="yes"/>
      <point x="395" y="245"/>
      <point x="377" y="289"/>
      <point x="377" y="396" type="curve" smooth="yes"/>
      <point x="377" y="883" type="line" smooth="yes"/>
      <point x="377" y="989"/>
      <point x="395" y="1033"/>
      <point x="456" y="1033" type="curve" smooth="yes"/>
      <point x="517" y="1033"/>
      <point x="535" y="989"/>
      <point x="535" y="883" type="curve" smooth="yes"/>
      <point x="535" y="396" type="line" smooth="yes"/>
      <point x="535" y="289"/>
      <point x="517" y="245"/>
    </contour>
    <contour>
      <point x="570" y="1360" type="curve" smooth="yes"/>
      <point x="689" y="1360"/>
      <point x="735" y="1445"/>
      <point x="735" y="1571" type="curve" smooth="yes"/>
      <point x="735" y="1609" type="line"/>
      <point x="575" y="1609" type="line"/>
      <point x="575" y="1607" type="line"/>
      <point x="575" y="1568"/>
      <point x="565" y="1551"/>
      <point x="535" y="1551" type="curve" smooth="yes"/>
      <point x="484" y="1551"/>
      <point x="429" y="1597"/>
      <point x="347" y="1597" type="curve" smooth="yes"/>
      <point x="223" y="1597"/>
      <point x="176" y="1510"/>
      <point x="176" y="1392" type="curve" smooth="yes"/>
      <point x="176" y="1348" type="line"/>
      <point x="336" y="1348" type="line"/>
      <point x="336" y="1349" type="line"/>
      <point x="336" y="1387"/>
      <point x="346" y="1407"/>
      <point x="379" y="1407" type="curve" smooth="yes"/>
      <point x="429" y="1407"/>
      <point x="496" y="1360"/>
    </contour>
  </outline>
</glyph>
<glyph name="Odieresis" format="2">
  <advance width="912"/>
  <unicode hex="00D6"/>
  <anchor x="456" y="0" name="bottom"/>
  <anchor x="456" y="639" name="center"/>
  <anchor x="672" y="0" name="ogonek"/>
  <anchor x="456" y="1618" name="top"/>
  <anchor x="20" y="1278" name="topleft"/>
  <anchor x="910" y="1278" name="topright"/>
  <outline>
    <contour>
      <point x="456" y="-22" type="curve" smooth="yes"/>
      <point x="725" y="-22"/>
      <point x="857" y="127"/>
      <point x="857" y="427" type="curve" smooth="yes"/>
      <point x="857" y="851" type="line" smooth="yes"/>
      <point x="857" y="1149"/>
      <point x="725" y="1300"/>
      <point x="456" y="1300" type="curve" smooth="yes"/>
      <point x="187" y="1300"/>
      <point x="55" y="1149"/>
      <point x="55" y="851" type="curve" smooth="yes"/>
      <point x="55" y="427" type="line" smooth="yes"/>
      <point x="55" y="127"/>
      <point x="187" y="-22"/>
    </contour>
    <contour>
      <point x="456" y="245" type="curve" smooth="yes"/>
      <point x="395" y="245"/>
      <point x="377" y="289"/>
      <point x="377" y="396" type="curve" smooth="yes"/>
      <point x="377" y="883" type="line" smooth="yes"/>
      <point x="377" y="989"/>
      <point x="395" y="1033"/>
      <point x="456" y="1033" type="curve" smooth="yes"/>
      <point x="517" y="1033"/>
      <point x="535" y="989"/>
      <point x="535" y="883" type="curve" smooth="yes"/>
      <point x="535" y="396" type="line" smooth="yes"/>
      <point x="535" y="289"/>
      <point x="517" y="245"/>
    </contour>
    <contour>
      <point x="303" y="1339" type="curve" smooth="yes"/>
      <point x="390" y="1339"/>
      <point x="434" y="1389"/>
      <point x="434" y="1485" type="curve" smooth="yes"/>
      <point x="434" y="1496" type="line" smooth="yes"/>
      <point x="434" y="1592"/>
      <point x="390" y="1642"/>
      <point x="303" y="1642" type="curve" smooth="yes"/>
      <point x="217" y="1642"/>
      <point x="174" y="1592"/>
      <point x="174" y="1496" type="curve" smooth="yes"/>
      <point x="174" y="1485" type="line" smooth="yes"/>
      <point x="174" y="1389"/>
      <point x="217" y="1339"/>
    </contour>
    <contour>
      <point x="607" y="1339" type="curve" smooth="yes"/>
      <point x="693" y="1339"/>
      <point x="737" y="1389"/>
      <point x="737" y="1485" type="curve" smooth="yes"/>
      <point x="737" y="1496" type="line" smooth="yes"/>
      <point x="737" y="1592"/>
      <point x="693" y="1642"/>
      <point x="607" y="1642" type="curve" smooth="yes"/>
      <point x="520" y="1642"/>
      <point x="478" y="1592"/>
      <point x="478" y="1496" type="curve" smooth="yes"/>
      <point x="478" y="1485" type="line" smooth="yes"/>
      <point x="478" y="1389"/>
      <point x="520" y="1339"/>
    </contour>
  </outline>
</glyph>
<glyph name="Ucircumflex" format="2">
  <advance width="925"/>
  <unicode hex="00DB"/>
  <anchor x="463" y="0" name="bottom"/>
  <anchor x="675" y="0" name="ogonek"/>
  <anchor x="463" y="1598" name="top"/>
  <anchor x="933" y="1278" name="topright"/>
  <outline>
    <contour>
      <point x="463" y="-22" type="curve" smooth="yes"/>
      <point x="730" y="-22"/>
      <point x="857" y="127"/>
      <point x="857" y="414" type="curve" smooth="yes"/>
      <point x="857" y="1278" type="line"/>
      <point x="537" y="1278" type="line"/>
      <point x="537" y="385" type="line" smooth="yes"/>
      <point x="537" y="289"/>
      <point x="521" y="248"/>
      <point x="463" y="248" type="curve" smooth="yes"/>
      <point x="404" y="248"/>
      <point x="388" y="289"/>
      <point x="388" y="385" type="curve" smooth="yes"/>
      <point x="388" y="1278" type="line"/>
      <point x="68" y="1278" type="line"/>
      <point x="68" y="414" type="line" smooth="yes"/>
      <point x="68" y="127"/>
      <point x="195" y="-22"/>
    </contour>
    <contour>
      <point x="153" y="1348" type="line"/>
      <point x="153" y="1348" type="line"/>
      <point x="372" y="1348" type="line"/>
      <point x="459" y="1467" type="line"/>
      <point x="467" y="1467" type="line"/>
      <point x="553" y="1348" type="line"/>
      <point x="773" y="1348" type="line"/>
      <point x="773" y="1348" type="line"/>
      <point x="618" y="1618" type="line"/>
      <point x="307" y="1618" type="line"/>
    </contour>
  </outline>
</glyph>
<glyph name="Yacute" format="2">
  <advance width="829"/>
  <unicode hex="00DD"/>
  <anchor x="415" y="0" name="bottom"/>
  <anchor x="415" y="1618" name="top"/>
  <anchor x="20" y="1278" name="topleft"/>
  <outline>
    <contour>
      <point x="563" y="312" type="line"/>
      <point x="829" y="1278" type="line"/>
      <point x="512" y="1278" type="line"/>
      <point x="457" y="930" type="line"/>
      <point x="424" y="702" type="line"/>
      <point x="408" y="702" type="line"/>
      <point x="375" y="930" type="line"/>
      <point x="317" y="1278" type="line"/>
      <point x="0" y="1278" type="line"/>
      <point x="269" y="312" type="line"/>
    </contour>
    <contour>
      <point x="569" y="0" type="line"/>
      <point x="569" y="612" type="line"/>
      <point x="263" y="612" type="line"/>
      <point x="263" y="0" type="line"/>
    </contour>
    <contour>
      <point x="283" y="1348" type="line"/>
      <point x="283" y="1348" type="line"/>
      <point x="524" y="1348" type="line"/>
      <point x="737" y="1618" type="line"/>
      <point x="737" y="1618" type="line"/>
      <point x="439" y="1618" type="line"/>
    </contour>
  </outline>
</glyph>
<glyph name="atilde" format="2">
  <advance width="798"/>
  <unicode hex="00E3"/>
  <anchor x="402" y="0" name="bottom"/>
  <anchor x="765" y="0" name="ogonek"/>
  <anchor x="403" y="1366" name="top"/>
  <outline>
    <contour>
      <point x="739" y="0" type="line"/>
      <point x="739" y="638" type="line" smooth="yes"/>
      <point x="739" y="897"/>
      <point x="628" y="1024"/>
      <point x="379" y="1024" type="curve" smooth="yes"/>
      <point x="257" y="1024"/>
      <point x="158" y="989"/>
      <point x="92" y="952" type="curve"/>
      <point x="73" y="700" type="line"/>
      <point x="140" y="731"/>
      <point x="226" y="763"/>
      <point x="312" y="763" type="curve" smooth="yes"/>
      <point x="409" y="763"/>
      <point x="437" y="725"/>
      <point x="437" y="631" type="curve"/>
      <point x="443" y="607" type="line"/>
      <point x="443" y="215" type="line"/>
      <point x="454" y="215" type="line"/>
      <point x="443" y="0" type="line"/>
    </contour>
    <contour>
      <point x="246" y="-15" type="curve" smooth="yes"/>
      <point x="378" y="-15"/>
      <point x="421" y="70"/>
      <point x="441" y="182" type="curve"/>
      <point x="479" y="182" type="line"/>
      <point x="444" y="289" type="line"/>
      <point x="437" y="256"/>
      <point x="419" y="232"/>
      <point x="382" y="232" type="curve" smooth="yes"/>
      <point x="336" y="232"/>
      <point x="321" y="265"/>
      <point x="321" y="321" type="curve" smooth="yes"/>
      <point x="321" y="346" type="line" smooth="yes"/>
      <point x="321" y="396"/>
      <point x="345" y="419"/>
      <point x="395" y="431" type="curve" smooth="yes"/>
      <point x="503" y="457" type="line"/>
      <point x="469" y="658" type="line"/>
      <point x="316" y="624" type="line" smooth="yes"/>
      <point x="125" y="582"/>
      <point x="34" y="514"/>
      <point x="34" y="316" type="curve" smooth="yes"/>
      <point x="34" y="272" type="line" smooth="yes"/>
      <point x="34" y="86"/>
      <point x="104" y="-15"/>
    </contour>
    <contour>
      <point x="517" y="1088" type="curve" smooth="yes"/>
      <point x="636" y="1088"/>
      <point x="682" y="1175"/>
      <point x="682" y="1301" type="curve" smooth="yes"/>
      <point x="682" y="1350" type="line"/>
      <point x="522" y="1350" type="line"/>
      <point x="522" y="1348" type="line"/>
      <point x="522" y="1309"/>
      <point x="512" y="1291"/>
      <point x="483" y="1291" type="curve" smooth="yes"/>
      <point x="431" y="1291"/>
      <point x="377" y="1338"/>
      <point x="290" y="1338" type="curve" smooth="yes"/>
      <point x="170" y="1338"/>
      <point x="123" y="1248"/>
      <point x="123" y="1119" type="curve" smooth="yes"/>
      <point x="123" y="1076" type="line"/>
      <point x="283" y="1076" type="line"/>
      <point x="283" y="1078" type="line"/>
      <point x="283" y="1116"/>
      <point x="293" y="1137"/>
      <point x="326" y="1137" type="curve" smooth="yes"/>
      <point x="376" y="1137"/>
      <point x="443" y="1088"/>
    </contour>
  </outline>
</glyph>
<glyph name="iacute" format="2">
  <advance width="443"/>
  <unicode hex="00ED"/>
  <anchor x="221" y="0" name="bottom"/>
  <anchor x="396" y="0" name="ogonek"/>
  <anchor x="221" y="1366" name="top"/>
  <outline>
    <contour>
      <point x="377" y="0" type="line"/>
      <point x="377" y="1006" type="line"/>
      <point x="66" y="1006" type="line"/>
      <point x="66" y="0" type="line"/>
    </contour>
    <contour>
      <point x="106" y="1076" type="line"/>
      <point x="106" y="1076" type="line"/>
      <point x="336" y="1076" type="line"/>
      <point x="468" y="1366" type="line"/>
      <point x="468" y="1366" type="line"/>
      <point x="170" y="1366" type="line"/>
    </contour>
  </outline>
</glyph>
<glyph name="icircumflex" format="2">
  <advance width="443"/>
  <unicode hex="00EE"/>
  <anchor x="221" y="0" name="bottom"/>
  <anchor x="396" y="0" name="ogonek"/>
  <anchor x="221" y="1345" name="top"/>
  <outline>
    <contour>
      <point x="377" y="0" type="line"/>
      <point x="377" y="1006" type="line"/>
      <point x="66" y="1006" type="line"/>
      <point x="66" y="0" type="line"/>
    </contour>
    <contour>
      <point x="-31" y="1076" type="line"/>
      <point x="-31" y="1076" type="line"/>
      <point x="167" y="1076" type="line"/>
      <point x="217" y="1209" type="line"/>
      <point x="225" y="1209" type="line"/>
      <point x="275" y="1076" type="line"/>
      <point x="473" y="1076" type="line"/>
      <point x="473" y="1076" type="line"/>
      <point x="371" y="1366" type="line"/>
      <point x="71" y="1366" type="line"/>
    </contour>
  </outline>
</glyph>
<glyph name="divide" format="2">
  <advance width="733"/>
  <unicode hex="00F7"/>
  <outline>
    <contour>
      <point x="680" y="508" type="line"/>
      <point x="680" y="765" type="line"/>
      <point x="53" y="765" type="line"/>
      <point x="53" y="508" type="line"/>
    </contour>
    <contour>
      <point x="366" y="210.8" type="curve" smooth="yes"/>
      <point x="439.5" y="210.8"/>
      <point x="478" y="257"/>
      <point x="478" y="338.2" type="curve" smooth="yes"/>
      <point x="478" y="350.1" type="line" smooth="yes"/>
      <point x="478" y="429.9"/>
      <point x="439.5" y="477.5"/>
      <point x="366" y="477.5" type="curve" smooth="yes"/>
      <point x="289.7" y="477.5"/>
      <point x="254" y="429.9"/>
      <point x="254" y="350.1" type="curve" smooth="yes"/>
      <point x="254" y="338.2" type="line" smooth="yes"/>
      <point x="254" y="257"/>
      <point x="289.7" y="210.8"/>
    </contour>
    <contour>
      <point x="366" y="797.8" type="curve" smooth="yes"/>
      <point x="439.5" y="797.8"/>
      <point x="478" y="844"/>
      <point x="478" y="925.2" type="curve" smooth="yes"/>
      <point x="478" y="937.1" type="line" smooth="yes"/>
      <point x="478" y="1016.9"/>
      <point x="439.5" y="1064.5"/>
      <point x="366" y="1064.5" type="curve" smooth="yes"/>
      <point x="289.7" y="1064.5"/>
      <point x="254" y="1016.9"/>
      <point x="254" y="937.1" type="curve" smooth="yes"/>
      <point x="254" y="925.2" type="line" smooth="yes"/>
      <point x="254" y="844"/>
      <point x="289.7" y="797.8"/>
    </contour>
  </outline>
</glyph>
<glyph name="udieresis" format="2">
  <advance width="873"/>
  <unicode hex="00FC"/>
  <anchor x="437" y="0" name="bottom"/>
  <anchor x="833" y="0" name="ogonek"/>
  <anchor x="437" y="1366" name="top"/>
  <anchor x="867" y="1006" name="topright"/>
  <outline>
    <contour>
      <point x="62" y="1006" type="line"/>
      <point x="62" y="283" type="line" smooth="yes"/>
      <point x="62" y="86"/>
      <point x="125" y="-15"/>
      <point x="283" y="-15" type="curve" smooth="yes"/>
      <point x="428" y="-15"/>
      <point x="478" y="77"/>
      <point x="498" y="185" type="curve"/>
      <point x="561" y="185" type="line"/>
      <point x="498" y="305" type="line"/>
      <point x="491" y="270"/>
      <point x="467" y="244"/>
      <point x="432" y="244" type="curve" smooth="yes"/>
      <point x="386" y="244"/>
      <point x="373" y="276"/>
      <point x="373" y="342" type="curve" smooth="yes"/>
      <point x="373" y="1006" type="line"/>
    </contour>
    <contour>
      <point x="496" y="1006" type="line"/>
      <point x="496" y="224" type="line"/>
      <point x="511" y="224" type="line"/>
      <point x="500" y="0" type="line"/>
      <point x="807" y="0" type="line"/>
      <point x="807" y="1006" type="line"/>
    </contour>
    <contour>
      <point x="284" y="1067" type="curve" smooth="yes"/>
      <point x="371" y="1067"/>
      <point x="415" y="1117"/>
      <point x="415" y="1213" type="curve" smooth="yes"/>
      <point x="415" y="1224" type="line" smooth="yes"/>
      <point x="415" y="1320"/>
      <point x="371" y="1370"/>
      <point x="284" y="1370" type="curve" smooth="yes"/>
      <point x="198" y="1370"/>
      <point x="155" y="1320"/>
      <point x="155" y="1224" type="curve" smooth="yes"/>
      <point x="155" y="1213" type="line" smooth="yes"/>
      <point x="155" y="1117"/>
      <point x="198" y="1067"/>
    </contour>
    <contour>
      <point x="588" y="1067" type="curve" smooth="yes"/>
      <point x="674" y="1067"/>
      <point x="718" y="1117"/>
      <point x="718" y="1213" type="curve" smooth="yes"/>
      <point x="718" y="1224" type="line" smooth="yes"/>
      <point x="718" y="1320"/>
      <point x="674" y="1370"/>
      <point x="588" y="1370" type="curve" smooth="yes"/>
      <point x="501" y="1370"/>
      <point x="459" y="1320"/>
      <point x="459" y="1224" type="curve" smooth="yes"/>
      <point x="459" y="1213" type="line" smooth="yes"/>
      <point x="459" y="1117"/>
      <point x="501" y="1067"/>
    </contour>
  </outline>
</glyph>
<glyph name="yacute" format="2">
  <advance width="810"/>
  <unicode hex="00FD"/>
  <anchor x="405" y="-333" name="bottom"/>
  <anchor x="405" y="1366" name="top"/>
  <outline>
    <contour>
      <point x="384" y="241" type="line"/>
      <point x="327" y="1006" type="line"/>
      <point x="18" y="1006" type="line"/>
      <point x="156" y="35" type="line"/>
      <point x="522" y="35" type="line"/>
      <point x="364" y="123" type="line"/>
      <point x="285" y="-350" type="line"/>
      <point x="583" y="-350" type="line"/>
      <point x="792" y="1006" type="line"/>
      <point x="483" y="1006" type="line"/>
      <point x="400" y="226" type="line"/>
      <point x="548" y="241" type="line"/>
    </contour>
    <contour>
      <point x="290" y="1076" type="line"/>
      <point x="290" y="1076" type="line"/>
      <point x="520" y="1076" type="line"/>
      <point x="702" y="1366" type="line"/>
      <point x="702" y="1366" type="line"/>
      <point x="404" y="1366" type="line"/>
    </contour>
  </outline>
</glyph>
<glyph name="ydieresis" format="2">
  <advance width="810"/>
  <unicode hex="00FF"/>
  <anchor x="405" y="-333" name="bottom"/>
  <anchor x="405" y="1366" name="top"/>
  <outline>
    <contour>
      <point x="384" y="241" type="line"/>
      <point x="327" y="1006" type="line"/>
      <point x="18" y="1006" type="line"/>
      <point x="156" y="35" type="line"/>
      <point x="522" y="35" type="line"/>
      <point x="364" y="123" type="line"/>
      <point x="285" y="-350" type="line"/>
      <point x="583" y="-350" type="line"/>
      <point x="792" y="1006" type="line"/>
      <point x="483" y="1006" type="line"/>
      <point x="400" y="226" type="line"/>
      <point x="548" y="241" type="line"/>
    </contour>
    <contour>
      <point x="252" y="1067" type="curve" smooth="yes"/>
      <point x="339" y="1067"/>
      <point x="383" y="1117"/>
      <point x="383" y="1213" type="curve" smooth="yes"/>
      <point x="383" y="1224" type="line" smooth="yes"/>
      <point x="383" y="1320"/>
      <point x="339" y="1370"/>
      <point x="252" y="1370" type="curve" smooth="yes"/>
      <point x="166" y="1370"/>
      <point x="123" y="1320"/>
      <point x="123" y="1224" type="curve" smooth="yes"/>
      <point x="123" y="1213" type="line" smooth="yes"/>
      <point x="123" y="1117"/>
      <point x="166" y="1067"/>
    </contour>
    <contour>
      <point x="556" y="1067" type="curve" smooth="yes"/>
      <point x="642" y="1067"/>
      <point x="686" y="1117"/>
      <point x="686" y="1213" type="curve" smooth="yes"/>
      <point x="686" y="1224" type="line" smooth="yes"/>
      <point x="686" y="1320"/>
      <point x="642" y="1370"/>
      <point x="556" y="1370" type="curve" smooth="yes"/>
      <point x="469" y="1370"/>
      <point x="427" y="1320"/>
      <point x="427" y="1224" type="curve" smooth="yes"/>
      <point x="427" y="1213" type="line" smooth="yes"/>
      <point x="427" y="1117"/>
      <point x="469" y="1067"/>
    </contour>
  </outline>
</glyph>
<glyph name="ring" format="2">
  <advance width="627"/>
  <unicode hex="02DA"/>
  <anchor x="313" y="1006" name="_top"/>
  <anchor x="313" y="1425" name="top"/>
  <outline>
    <contour>
      <point x="99" y="1243" type="line" smooth="yes"/>
      <point x="99" y="1142"/>
      <point x="161" y="1063"/>
      <point x="313" y="1063" type="curve" smooth="yes"/>
      <point x="465" y="1063"/>
      <point x="528" y="1142"/>
      <point x="528" y="1243" type="curve" smooth="yes"/>
      <point x="528" y="1250" type="line" smooth="yes"/>
      <point x="528" y="1352"/>
      <point x="465" y="1431"/>
      <point x="313" y="1431" type="curve" smooth="yes"/>
      <point x="161" y="1431"/>
      <point x="99" y="1352"/>
      <point x="99" y="1250" type="curve" smooth="yes"/>
    </contour>
    <contour>
      <point x="247" y="1249" type="line" smooth="yes"/>
      <point x="247" y="1286"/>
      <point x="272" y="1307"/>
      <point x="313" y="1307" type="curve" smooth="yes"/>
      <point x="354" y="1307"/>
      <point x="379" y="1286"/>
      <point x="379" y="1249" type="curve" smooth="yes"/>
      <point x="379" y="1245" type="line" smooth="yes"/>
      <point x="379" y="1207"/>
      <point x="354" y="1186"/>
      <point x="313" y="1186" type="curve" smooth="yes"/>
      <point x="272" y="1186"/>
      <point x="247" y="1207"/>
      <point x="247" y="1245" type="curve" smooth="yes"/>
    </contour>
  </outline>
</glyph>
<glyph name="tilde" format="2">
  <advance width="759"/>
  <unicode hex="02DC"/>
  <anchor x="379" y="1006" name="_top"/>
  <anchor x="380" y="1366" name="top"/>
  <outline>
    <contour>
      <point x="494" y="1088" type="curve" smooth="yes"/>
      <point x="613" y="1088"/>
      <point x="659" y="1175"/>
      <point x="659" y="1301" type="curve" smooth="yes"/>
      <point x="659" y="1350" type="line"/>
      <point x="499" y="1350" type="line"/>
      <point x="499" y="1348" type="line"/>
      <point x="499" y="1309"/>
      <point x="489" y="1291"/>
      <point x="460" y="1291" type="curve" smooth="yes"/>
      <point x="408" y="1291"/>
      <point x="354" y="1338"/>
      <point x="267" y="1338" type="curve" smooth="yes"/>
      <point x="147" y="1338"/>
      <point x="100" y="1248"/>
      <point x="100" y="1119" type="curve" smooth="yes"/>
      <point x="100" y="1076" type="line"/>
      <point x="260" y="1076" type="line"/>
      <point x="260" y="1078" type="line"/>
      <point x="260" y="1116"/>
      <point x="270" y="1137"/>
      <point x="303" y="1137" type="curve" smooth="yes"/>
      <point x="353" y="1137"/>
      <point x="420" y="1088"/>
    </contour>
  </outline>
</glyph>
<glyph name="gravecomb" format="2">
  <advance width="612"/>
  <unicode hex="0300"/>
  <anchor x="397" y="1006" name="_top"/>
  <anchor x="318" y="1366" name="top"/>
  <outline>
    <contour>
      <point x="100" y="1366" type="line"/>
      <point x="100" y="1366" type="line"/>
      <point x="282" y="1076" type="line"/>
      <point x="512" y="1076" type="line"/>
      <point x="512" y="1076" type="line"/>
      <point x="398" y="1366" type="line"/>
    </contour>
  </outline>
</glyph>
<glyph name="acutecomb" format="2">
  <advance width="612"/>
  <unicode hex="0301"/>
  <anchor x="215" y="1006" name="_top"/>
  <anchor x="215" y="1366" name="top"/>
  <outline>
    <contour>
      <point x="100" y="1076" type="line"/>
      <point x="100" y="1076" type="line"/>
      <point x="330" y="1076" type="line"/>
      <point x="512" y="1366" type="line"/>
      <point x="512" y="1366" type="line"/>
      <point x="214" y="1366" type="line"/>
    </contour>
  </outline>
</glyph>
<glyph name="uni0900" format="2">
  <unicode hex="0900"/>
  <anchor x="-233" y="1255" name="_top"/>
  <outline>
    <contour>
      <point x="-232" y="1640" type="curve" smooth="yes"/>
      <point x="-162" y="1640"/>
      <point x="-136" y="1593"/>
      <point x="-136" y="1513" type="curve" smooth="yes"/>
      <point x="-136" y="1502" type="line" smooth="yes"/>
      <point x="-136" y="1425"/>
      <point x="-162" y="1375"/>
      <point x="-232" y="1375" type="curve" smooth="yes"/>
      <point x="-302" y="1375"/>
      <point x="-328" y="1425"/>
      <point x="-328" y="1502" type="curve" smooth="yes"/>
      <point x="-328" y="1513" type="line" smooth="yes"/>
      <point x="-328" y="1593"/>
      <point x="-302" y="1640"/>
    </contour>
    <contour>
      <point x="-583" y="1509" type="line"/>
      <point x="-587" y="1541"/>
      <point x="-587" y="1561"/>
      <point x="-587" y="1577" type="curve" smooth="yes"/>
      <point x="-587" y="1789"/>
      <point x="-465.283" y="1883"/>
      <point x="-231.993" y="1883" type="curve" smooth="yes"/>
      <point x="1.29758" y="1883"/>
      <point x="122" y="1789"/>
      <point x="122" y="1577" type="curve" smooth="yes"/>
      <point x="122" y="1557"/>
      <point x="121" y="1537"/>
      <point x="117" y="1509" type="curve"/>
      <point x="-73" y="1509" type="line"/>
      <point x="-73" y="1546" type="line" smooth="yes"/>
      <point x="-73" y="1655"/>
      <point x="-118.424" y="1702"/>
      <point x="-231.984" y="1702" type="curve" smooth="yes"/>
      <point x="-346.576" y="1702"/>
      <point x="-392" y="1655"/>
      <point x="-392" y="1546" type="curve" smooth="yes"/>
      <point x="-392" y="1509" type="line"/>
    </contour>
  </outline>
  <guideline angle="90" x="-233" y="0"/>
  <guideline angle="0" x="0" y="1255"/>
</glyph>
<glyph name="Chandrabindu.dv" format="2">
  <unicode hex="0901"/>
  <anchor x="-233" y="1255" name="_top"/>
  <outline>
    <contour>
      <point x="-233" y="1632" type="curve" smooth="yes"/>
      <point x="-303" y="1632"/>
      <point x="-329" y="1679"/>
      <point x="-329" y="1759" type="curve" smooth="yes"/>
      <point x="-329" y="1770" type="line" smooth="yes"/>
      <point x="-329" y="1847"/>
      <point x="-303" y="1897"/>
      <point x="-233" y="1897" type="curve" smooth="yes"/>
      <point x="-163" y="1897"/>
      <point x="-137" y="1847"/>
      <point x="-137" y="1770" type="curve" smooth="yes"/>
      <point x="-137" y="1759" type="line" smooth="yes"/>
      <point x="-137" y="1679"/>
      <point x="-163" y="1632"/>
    </contour>
    <contour>
      <point x="118" y="1763" type="line"/>
      <point x="122" y="1731"/>
      <point x="122" y="1711"/>
      <point x="122" y="1695" type="curve" smooth="yes"/>
      <point x="122" y="1483"/>
      <point x="0.283264" y="1389"/>
      <point x="-233.007" y="1389" type="curve" smooth="yes"/>
      <point x="-466.298" y="1389"/>
      <point x="-587" y="1483"/>
      <point x="-587" y="1695" type="curve" smooth="yes"/>
      <point x="-587" y="1715"/>
      <point x="-586" y="1735"/>
      <point x="-582" y="1763" type="curve"/>
      <point x="-392" y="1763" type="line"/>
      <point x="-392" y="1726" type="line" smooth="yes"/>
      <point x="-392" y="1617"/>
      <point x="-346.576" y="1570"/>
      <point x="-233.016" y="1570" type="curve" smooth="yes"/>
      <point x="-118.424" y="1570"/>
      <point x="-73" y="1617"/>
      <point x="-73" y="1726" type="curve" smooth="yes"/>
      <point x="-73" y="1763" type="line"/>
    </contour>
  </outline>
  <guideline angle="90" x="-233" y="0"/>
  <guideline angle="0" x="0" y="1255"/>
</glyph>
<glyph name="Visarga.dv" format="2">
  <advance width="379"/>
  <unicode hex="0903"/>
  <outline>
    <contour>
      <point x="-28" y="1067" type="line"/>
      <point x="-43" y="1308" type="line"/>
      <point x="407" y="1308" type="line"/>
      <point x="422" y="1067" type="line"/>
    </contour>
    <contour>
      <point x="186" y="574" type="curve" smooth="yes"/>
      <point x="293" y="574"/>
      <point x="346" y="638"/>
      <point x="346" y="736" type="curve" smooth="yes"/>
      <point x="346" y="753" type="line" smooth="yes"/>
      <point x="346" y="851"/>
      <point x="295" y="916"/>
      <point x="186" y="916" type="curve" smooth="yes"/>
      <point x="77" y="916"/>
      <point x="26" y="851"/>
      <point x="26" y="753" type="curve" smooth="yes"/>
      <point x="26" y="736" type="line" smooth="yes"/>
      <point x="26" y="638"/>
      <point x="77" y="574"/>
    </contour>
    <contour>
      <point x="186" y="103" type="curve" smooth="yes"/>
      <point x="293" y="103"/>
      <point x="346" y="167"/>
      <point x="346" y="265" type="curve" smooth="yes"/>
      <point x="346" y="282" type="line" smooth="yes"/>
      <point x="346" y="380"/>
      <point x="295" y="445"/>
      <point x="186" y="445" type="curve" smooth="yes"/>
      <point x="77" y="445"/>
      <point x="26" y="380"/>
      <point x="26" y="282" type="curve" smooth="yes"/>
      <point x="26" y="265" type="line" smooth="yes"/>
      <point x="26" y="167"/>
      <point x="77" y="103"/>
    </contour>
  </outline>
</glyph>
<glyph name="vowelAa.dv" format="2">
  <advance width="1651"/>
  <unicode hex="0906"/>
  <anchor x="1417" y="1255" name="top"/>
  <outline>
    <contour>
      <point x="1570" y="0" type="line"/>
      <point x="1266" y="0" type="line"/>
      <point x="1266" y="1156" type="line"/>
      <point x="1570" y="1156" type="line"/>
    </contour>
    <contour>
      <point x="1693" y="1067" type="line"/>
      <point x="1157" y="1067" type="line"/>
      <point x="1143" y="1308" type="line"/>
      <point x="1679" y="1308" type="line"/>
    </contour>
    <contour>
      <point x="1229" y="1067" type="line"/>
      <point x="711" y="1067" type="line"/>
      <point x="697" y="1308" type="line"/>
      <point x="1215" y="1308" type="line"/>
    </contour>
    <contour>
      <point x="802" y="0" type="line"/>
      <point x="802" y="1159" type="line"/>
      <point x="1106" y="1159" type="line"/>
      <point x="1106" y="0" type="line"/>
    </contour>
    <contour>
      <point x="33" y="339" type="line"/>
      <point x="92" y="302"/>
      <point x="166" y="274"/>
      <point x="247" y="274" type="curve" smooth="yes"/>
      <point x="335" y="274"/>
      <point x="370" y="313"/>
      <point x="370" y="407" type="curve" smooth="yes"/>
      <point x="370" y="414" type="line" smooth="yes"/>
      <point x="370" y="497"/>
      <point x="333" y="537"/>
      <point x="230" y="543" type="curve" smooth="yes"/>
      <point x="136" y="548" type="line"/>
      <point x="136" y="804" type="line"/>
      <point x="219" y="811" type="line" smooth="yes"/>
      <point x="316" y="821"/>
      <point x="350" y="856"/>
      <point x="350" y="933" type="curve" smooth="yes"/>
      <point x="350" y="951" type="line" smooth="yes"/>
      <point x="350" y="1032"/>
      <point x="320" y="1064"/>
      <point x="241" y="1064" type="curve" smooth="yes"/>
      <point x="171" y="1064"/>
      <point x="114" y="1043"/>
      <point x="64" y="1016" type="curve"/>
      <point x="74" y="1279" type="line"/>
      <point x="138" y="1308"/>
      <point x="217" y="1327"/>
      <point x="316" y="1327" type="curve" smooth="yes"/>
      <point x="539" y="1327"/>
      <point x="644" y="1218"/>
      <point x="644" y="1012" type="curve" smooth="yes"/>
      <point x="644" y="972" type="line" smooth="yes"/>
      <point x="644" y="824"/>
      <point x="578" y="743"/>
      <point x="405" y="730" type="curve"/>
      <point x="405" y="615" type="line"/>
      <point x="611" y="550"/>
      <point x="666" y="456"/>
      <point x="666" y="322" type="curve" smooth="yes"/>
      <point x="666" y="305" type="line" smooth="yes"/>
      <point x="666" y="121"/>
      <point x="553" y="11"/>
      <point x="316" y="11" type="curve" smooth="yes"/>
      <point x="201" y="11"/>
      <point x="112" y="35"/>
      <point x="44" y="75" type="curve"/>
    </contour>
    <contour>
      <point x="392" y="758" type="line"/>
      <point x="534" y="765" type="line"/>
      <point x="535" y="756" type="line"/>
      <point x="591" y="769"/>
      <point x="657" y="778"/>
      <point x="745" y="778" type="curve" smooth="yes"/>
      <point x="891" y="778" type="line"/>
      <point x="891" y="528" type="line"/>
      <point x="749" y="528" type="line" smooth="yes"/>
      <point x="648" y="528"/>
      <point x="587" y="544"/>
      <point x="535" y="566" type="curve"/>
      <point x="528" y="552" type="line"/>
      <point x="392" y="569" type="line"/>
    </contour>
  </outline>
  <guideline angle="0" x="0" y="362"/>
  <guideline angle="90" x="1417" y="0"/>
  <guideline angle="90" x="1176" y="0"/>
  <guideline angle="90" x="1266" y="0"/>
</glyph>
<glyph name="vowelShortE.dv" format="2">
  <advance width="916"/>
  <unicode hex="090E"/>
  <anchor x="813" y="37" name="bottom3"/>
  <anchor x="799" y="1255" name="top"/>
  <outline>
    <contour>
      <point x="341" y="1781" type="curve"/>
      <point x="341" y="1692"/>
      <point x="369" y="1663"/>
      <point x="463" y="1660" type="curve" smooth="yes"/>
      <point x="524" y="1658" type="line" smooth="yes"/>
      <point x="752" y="1651"/>
      <point x="833" y="1541"/>
      <point x="833" y="1337" type="curve" smooth="yes"/>
      <point x="833" y="1255" type="line"/>
      <point x="571" y="1255" type="line"/>
      <point x="571" y="1328" type="line" smooth="yes"/>
      <point x="571" y="1391"/>
      <point x="557" y="1418"/>
      <point x="478" y="1422" type="curve" smooth="yes"/>
      <point x="407" y="1425" type="line" smooth="yes"/>
      <point x="187" y="1436"/>
      <point x="86" y="1512"/>
      <point x="86" y="1680" type="curve" smooth="yes"/>
      <point x="86" y="1716"/>
      <point x="92" y="1755"/>
      <point x="104" y="1790" type="curve"/>
      <point x="341" y="1790" type="line"/>
      <point x="341" y="1788.54"/>
      <point x="341" y="1782.55"/>
    </contour>
    <contour>
      <point x="-28" y="1067" type="line"/>
      <point x="-43" y="1308" type="line"/>
      <point x="944" y="1308" type="line"/>
      <point x="959" y="1067" type="line"/>
    </contour>
    <contour>
      <point x="377" y="564" type="line" smooth="yes"/>
      <point x="377" y="323"/>
      <point x="473" y="257"/>
      <point x="667" y="257" type="curve" smooth="yes"/>
      <point x="718" y="257"/>
      <point x="768" y="261"/>
      <point x="812" y="270" type="curve"/>
      <point x="782" y="7" type="line"/>
      <point x="741" y="-4"/>
      <point x="687" y="-10"/>
      <point x="631" y="-10" type="curve" smooth="yes"/>
      <point x="261" y="-10"/>
      <point x="73" y="165"/>
      <point x="73" y="556" type="curve" smooth="yes"/>
      <point x="73" y="1143" type="line"/>
      <point x="377" y="1143" type="line"/>
    </contour>
    <contour>
      <point x="852" y="763" type="line" smooth="yes"/>
      <point x="852" y="498.144"/>
      <point x="745.549" y="400"/>
      <point x="540" y="400" type="curve" smooth="yes"/>
      <point x="518.209" y="400"/>
      <point x="497.099" y="403"/>
      <point x="477" y="407" type="curve"/>
      <point x="477" y="665" type="line"/>
      <point x="479.73" y="665"/>
      <point x="481.27" y="665"/>
      <point x="484" y="665" type="curve" smooth="yes"/>
      <point x="522.617" y="665"/>
      <point x="553" y="687.462"/>
      <point x="553" y="764" type="curve" smooth="yes"/>
      <point x="553" y="1133" type="line"/>
      <point x="852" y="1133" type="line"/>
    </contour>
  </outline>
  <guideline angle="90" x="436" y="0"/>
  <guideline angle="90" x="853" y="0"/>
</glyph>
<glyph name="vowelChandraO.dv" format="2">
  <advance width="1651"/>
  <unicode hex="0911"/>
  <anchor x="1417" y="1255" name="top"/>
  <outline>
    <contour>
      <point x="1570" y="0" type="line"/>
      <point x="1266" y="0" type="line"/>
      <point x="1266" y="1156" type="line"/>
      <point x="1570" y="1156" type="line"/>
    </contour>
    <contour>
      <point x="1693" y="1067" type="line"/>
      <point x="1157" y="1067" type="line"/>
      <point x="1143" y="1308" type="line"/>
      <point x="1679" y="1308" type="line"/>
    </contour>
    <contour>
      <point x="1229" y="1067" type="line"/>
      <point x="711" y="1067" type="line"/>
      <point x="697" y="1308" type="line"/>
      <point x="1215" y="1308" type="line"/>
    </contour>
    <contour>
      <point x="802" y="0" type="line"/>
      <point x="802" y="1159" type="line"/>
      <point x="1106" y="1159" type="line"/>
      <point x="1106" y="0" type="line"/>
    </contour>
    <contour>
      <point x="33" y="339" type="line"/>
      <point x="92" y="302"/>
      <point x="166" y="274"/>
      <point x="247" y="274" type="curve" smooth="yes"/>
      <point x="335" y="274"/>
      <point x="370" y="313"/>
      <point x="370" y="407" type="curve" smooth="yes"/>
      <point x="370" y="414" type="line" smooth="yes"/>
      <point x="370" y="497"/>
      <point x="333" y="537"/>
      <point x="230" y="543" type="curve" smooth="yes"/>
      <point x="136" y="548" type="line"/>
      <point x="136" y="804" type="line"/>
      <point x="219" y="811" type="line" smooth="yes"/>
      <point x="316" y="821"/>
      <point x="350" y="856"/>
      <point x="350" y="933" type="curve" smooth="yes"/>
      <point x="350" y="951" type="line" smooth="yes"/>
      <point x="350" y="1032"/>
      <point x="320" y="1064"/>
      <point x="241" y="1064" type="curve" smooth="yes"/>
      <point x="171" y="1064"/>
      <point x="114" y="1043"/>
      <point x="64" y="1016" type="curve"/>
      <point x="74" y="1279" type="line"/>
      <point x="138" y="1308"/>
      <point x="217" y="1327"/>
      <point x="316" y="1327" type="curve" smooth="yes"/>
      <point x="539" y="1327"/>
      <point x="644" y="1218"/>
      <point x="644" y="1012" type="curve" smooth="yes"/>
      <point x="644" y="972" type="line" smooth="yes"/>
      <point x="644" y="824"/>
      <point x="578" y="743"/>
      <point x="405" y="730" type="curve"/>
      <point x="405" y="615" type="line"/>
      <point x="611" y="550"/>
      <point x="666" y="456"/>
      <point x="666" y="322" type="curve" smooth="yes"/>
      <point x="666" y="305" type="line" smooth="yes"/>
      <point x="666" y="121"/>
      <point x="553" y="11"/>
      <point x="316" y="11" type="curve" smooth="yes"/>
      <point x="201" y="11"/>
      <point x="112" y="35"/>
      <point x="44" y="75" type="curve"/>
    </contour>
    <contour>
      <point x="392" y="758" type="line"/>
      <point x="534" y="765" type="line"/>
      <point x="535" y="756" type="line"/>
      <point x="591" y="769"/>
      <point x="657" y="778"/>
      <point x="745" y="778" type="curve" smooth="yes"/>
      <point x="891" y="778" type="line"/>
      <point x="891" y="528" type="line"/>
      <point x="749" y="528" type="line" smooth="yes"/>
      <point x="648" y="528"/>
      <point x="587" y="544"/>
      <point x="535" y="566" type="curve"/>
      <point x="528" y="552" type="line"/>
      <point x="392" y="569" type="line"/>
    </contour>
    <contour>
      <point x="1527" y="1763" type="line"/>
      <point x="1529.25" y="1744"/>
      <point x="1530" y="1724"/>
      <point x="1530" y="1709" type="curve" smooth="yes"/>
      <point x="1530" y="1487"/>
      <point x="1418" y="1389"/>
      <point x="1197" y="1389" type="curve" smooth="yes"/>
      <point x="976" y="1389"/>
      <point x="864" y="1487"/>
      <point x="864" y="1709" type="curve" smooth="yes"/>
      <point x="864" y="1723"/>
      <point x="864.75" y="1743"/>
      <point x="867" y="1763" type="curve"/>
      <point x="1105" y="1763" type="line"/>
      <point x="1105" y="1758.72"/>
      <point x="1105" y="1728.49"/>
      <point x="1105" y="1726" type="curve" smooth="yes"/>
      <point x="1105" y="1638"/>
      <point x="1131" y="1601"/>
      <point x="1197" y="1601" type="curve" smooth="yes"/>
      <point x="1263" y="1601"/>
      <point x="1289" y="1638"/>
      <point x="1289" y="1726" type="curve" smooth="yes"/>
      <point x="1289" y="1728.72"/>
      <point x="1289" y="1759.67"/>
      <point x="1289" y="1763" type="curve"/>
    </contour>
  </outline>
  <guideline angle="0" x="0" y="362"/>
  <guideline angle="90" x="1417" y="0"/>
  <guideline angle="90" x="1176" y="0"/>
  <guideline angle="90" x="1266" y="0"/>
</glyph>
<glyph name="Ka.dv" format="2">
  <advance width="1308"/>
  <unicode hex="0915"/>
  <anchor x="659" y="38" name="bottom"/>
  <anchor x="649" y="38" name="bottom2"/>
  <anchor x="994" y="38" name="bottom3"/>
  <anchor x="659" y="56" name="bottom5"/>
  <anchor x="659" y="1256" name="top"/>
  <outline>
    <contour>
      <point x="-28" y="1067" type="line"/>
      <point x="-42" y="1308" type="line"/>
      <point x="1337" y="1308" type="line"/>
      <point x="1351" y="1067" type="line"/>
    </contour>
    <contour>
      <point x="53" y="484" type="curve" smooth="yes"/>
      <point x="53" y="580" type="line" smooth="yes"/>
      <point x="53" y="847"/>
      <point x="145" y="962"/>
      <point x="339" y="962" type="curve" smooth="yes"/>
      <point x="377" y="962"/>
      <point x="412" y="957"/>
      <point x="436" y="949" type="curve"/>
      <point x="454" y="699" type="line"/>
      <point x="441" y="701"/>
      <point x="440" y="701"/>
      <point x="431" y="701" type="curve" smooth="yes"/>
      <point x="377" y="701"/>
      <point x="353" y="664"/>
      <point x="353" y="573" type="curve" smooth="yes"/>
      <point x="353" y="503" type="line" smooth="yes"/>
      <point x="353" y="412"/>
      <point x="379" y="379"/>
      <point x="432" y="379" type="curve" smooth="yes"/>
      <point x="478" y="379"/>
      <point x="506" y="412"/>
      <point x="512" y="471" type="curve"/>
      <point x="530" y="287" type="line"/>
      <point x="497" y="287" type="line"/>
      <point x="475" y="180"/>
      <point x="412" y="118"/>
      <point x="298" y="118" type="curve" smooth="yes"/>
      <point x="136" y="118"/>
      <point x="53" y="222"/>
    </contour>
    <contour>
      <point x="1259" y="595" type="curve" smooth="yes"/>
      <point x="1259" y="501" type="line" smooth="yes"/>
      <point x="1259" y="233"/>
      <point x="1172" y="118"/>
      <point x="979" y="118" type="curve" smooth="yes"/>
      <point x="938" y="118"/>
      <point x="905" y="123"/>
      <point x="881" y="131" type="curve"/>
      <point x="863" y="381" type="line"/>
      <point x="870" y="380"/>
      <point x="878" y="379"/>
      <point x="887" y="379" type="curve" smooth="yes"/>
      <point x="940" y="379"/>
      <point x="959" y="413"/>
      <point x="959" y="507" type="curve" smooth="yes"/>
      <point x="959" y="570" type="line" smooth="yes"/>
      <point x="959" y="662"/>
      <point x="938" y="701"/>
      <point x="885" y="701" type="curve" smooth="yes"/>
      <point x="839" y="701"/>
      <point x="811" y="668"/>
      <point x="806" y="609" type="curve"/>
      <point x="788" y="793" type="line"/>
      <point x="821" y="793" type="line"/>
      <point x="843" y="900"/>
      <point x="903" y="962"/>
      <point x="1019" y="962" type="curve" smooth="yes"/>
      <point x="1174" y="962"/>
      <point x="1259" y="856"/>
    </contour>
    <contour>
      <point x="811" y="1157" type="line"/>
      <point x="811" y="1" type="line"/>
      <point x="507" y="1" type="line"/>
      <point x="507" y="1157" type="line"/>
    </contour>
  </outline>
  <guideline angle="90" x="659" y="0"/>
  <guideline angle="0" x="0" y="38"/>
  <guideline angle="0" x="0" y="1256"/>
  <guideline angle="90" x="649" y="0"/>
  <guideline angle="90" x="811" y="0"/>
  <guideline angle="0" x="0" y="56"/>
</glyph>
<glyph name="Cha.dv" format="2">
  <advance width="1208"/>
  <unicode hex="091B"/>
  <anchor x="620" y="11" name="bottom"/>
  <anchor x="581" y="11" name="bottom2"/>
  <anchor x="923" y="11" name="bottom3"/>
  <anchor x="603" y="-48" name="bottom4"/>
  <anchor x="594" y="29" name="bottom5"/>
  <anchor x="878" y="1255" name="top"/>
  <outline>
    <contour>
      <point x="687" y="1067" type="line"/>
      <point x="673" y="1308" type="line"/>
      <point x="1134" y="1308" type="line"/>
      <point x="1148" y="1067" type="line"/>
    </contour>
    <contour>
      <point x="1025" y="1156" type="line"/>
      <point x="1025" y="961" type="line"/>
      <point x="731" y="961" type="line"/>
      <point x="731" y="1156" type="line"/>
    </contour>
    <contour>
      <point x="1230" y="1308" type="line"/>
      <point x="1244" y="1067" type="line"/>
      <point x="-50" y="1067" type="line"/>
      <point x="-64" y="1308" type="line"/>
    </contour>
    <contour>
      <point x="730" y="926" type="line"/>
      <point x="730" y="1159" type="line"/>
      <point x="1025" y="1159" type="line"/>
      <point x="1025" y="926" type="line"/>
    </contour>
    <contour>
      <point x="596" y="-26" type="curve" smooth="yes"/>
      <point x="259.87" y="-26"/>
      <point x="59" y="105"/>
      <point x="59" y="366" type="curve" smooth="yes"/>
      <point x="59" y="379" type="line" smooth="yes"/>
      <point x="59" y="541"/>
      <point x="116.346" y="629"/>
      <point x="272" y="657" type="curve"/>
      <point x="272" y="664" type="line"/>
      <point x="117.37" y="690"/>
      <point x="59" y="764"/>
      <point x="59" y="916" type="curve" smooth="yes"/>
      <point x="59" y="942" type="line" smooth="yes"/>
      <point x="59" y="1027"/>
      <point x="74" y="1078"/>
      <point x="100" y="1111" type="curve"/>
      <point x="414" y="1111" type="line"/>
      <point x="381" y="1073"/>
      <point x="368" y="1030"/>
      <point x="368" y="942" type="curve" smooth="yes"/>
      <point x="368" y="924" type="line" smooth="yes"/>
      <point x="368" y="828"/>
      <point x="397" y="793"/>
      <point x="475" y="784" type="curve" smooth="yes"/>
      <point x="504" y="780" type="line"/>
      <point x="504" y="537" type="line"/>
      <point x="469" y="534" type="line" smooth="yes"/>
      <point x="397" y="526"/>
      <point x="368" y="491"/>
      <point x="368" y="408" type="curve" smooth="yes"/>
      <point x="368" y="397" type="line" smooth="yes"/>
      <point x="368" y="291"/>
      <point x="449" y="239"/>
      <point x="618" y="239" type="curve" smooth="yes"/>
      <point x="813" y="239"/>
      <point x="913" y="339"/>
      <point x="913" y="517" type="curve" smooth="yes"/>
      <point x="913" y="545" type="line"/>
      <point x="907" y="558" type="line"/>
      <point x="907" y="652" type="line" smooth="yes"/>
      <point x="907" y="731"/>
      <point x="894" y="754"/>
      <point x="857" y="754" type="curve" smooth="yes"/>
      <point x="821" y="754"/>
      <point x="806" y="727"/>
      <point x="806" y="661" type="curve" smooth="yes"/>
      <point x="806" y="646" type="line" smooth="yes"/>
      <point x="806" y="578"/>
      <point x="822" y="556"/>
      <point x="857" y="556" type="curve" smooth="yes"/>
      <point x="889" y="556"/>
      <point x="907" y="574"/>
      <point x="916" y="602" type="curve"/>
      <point x="918" y="478" type="line"/>
      <point x="903" y="478" type="line"/>
      <point x="885" y="397"/>
      <point x="839" y="351"/>
      <point x="754" y="351" type="curve" smooth="yes"/>
      <point x="635" y="351"/>
      <point x="574" y="442"/>
      <point x="574" y="628" type="curve" smooth="yes"/>
      <point x="574" y="659" type="line" smooth="yes"/>
      <point x="574" y="869"/>
      <point x="666" y="975"/>
      <point x="867" y="975" type="curve" smooth="yes"/>
      <point x="1075" y="975"/>
      <point x="1167" y="849"/>
      <point x="1167" y="599" type="curve" smooth="yes"/>
      <point x="1167" y="563" type="line" smooth="yes"/>
      <point x="1167" y="184"/>
      <point x="988" y="-26"/>
    </contour>
  </outline>
  <guideline angle="0" x="0" y="11"/>
  <guideline angle="0" x="0" y="29"/>
  <guideline angle="90" x="1167" y="0"/>
  <guideline angle="90" x="878" y="0"/>
  <guideline angle="90" x="1125" y="0"/>
</glyph>
<glyph name="Tha.dv" format="2">
  <advance width="1154"/>
  <unicode hex="0925"/>
  <anchor x="921" y="37" name="bottom"/>
  <anchor x="911" y="37" name="bottom2"/>
  <anchor x="1073" y="37" name="bottom3"/>
  <anchor x="921" y="55" name="bottom5"/>
  <anchor x="921" y="1255" name="top"/>
  <outline>
    <contour>
      <point x="1073" y="1156" type="line"/>
      <point x="1073" y="0" type="line"/>
      <point x="769" y="0" type="line"/>
      <point x="769" y="1156" type="line"/>
    </contour>
    <contour>
      <point x="746" y="1067" type="line"/>
      <point x="732" y="1308" type="line"/>
      <point x="1182" y="1308" type="line"/>
      <point x="1196" y="1067" type="line"/>
    </contour>
    <contour>
      <point x="712" y="1308" type="line"/>
      <point x="1182" y="1308" type="line"/>
      <point x="1196" y="1067" type="line"/>
      <point x="726" y="1067" type="line"/>
    </contour>
    <contour>
      <point x="98" y="837" type="line"/>
      <point x="81" y="900"/>
      <point x="70" y="959"/>
      <point x="70" y="1032" type="curve" smooth="yes"/>
      <point x="70" y="1233"/>
      <point x="175" y="1334"/>
      <point x="374" y="1334" type="curve" smooth="yes"/>
      <point x="585" y="1334"/>
      <point x="684" y="1229"/>
      <point x="684" y="1003" type="curve" smooth="yes"/>
      <point x="684" y="874" type="line" smooth="yes"/>
      <point x="684" y="618"/>
      <point x="554" y="508"/>
      <point x="270" y="508" type="curve" smooth="yes"/>
      <point x="193" y="508" type="line"/>
      <point x="66" y="734" type="line"/>
      <point x="210" y="734" type="line" smooth="yes"/>
      <point x="368" y="734"/>
      <point x="421" y="778"/>
      <point x="421" y="896" type="curve" smooth="yes"/>
      <point x="421" y="997" type="line" smooth="yes"/>
      <point x="421" y="1064"/>
      <point x="410" y="1089"/>
      <point x="374" y="1089" type="curve" smooth="yes"/>
      <point x="333" y="1089"/>
      <point x="322" y="1064"/>
      <point x="322" y="992" type="curve" smooth="yes"/>
      <point x="322" y="837" type="line"/>
    </contour>
    <contour>
      <point x="66" y="563" type="line" smooth="yes"/>
      <point x="66" y="622"/>
      <point x="66" y="673"/>
      <point x="66" y="734" type="curve"/>
      <point x="357" y="650" type="line"/>
      <point x="357" y="541" type="line" smooth="yes"/>
      <point x="357" y="434"/>
      <point x="420" y="392"/>
      <point x="545" y="392" type="curve" smooth="yes"/>
      <point x="686" y="392"/>
      <point x="756" y="436"/>
      <point x="773" y="524" type="curve"/>
      <point x="795" y="326" type="line"/>
      <point x="759" y="326" type="line"/>
      <point x="728" y="202"/>
      <point x="640" y="127"/>
      <point x="445" y="127" type="curve" smooth="yes"/>
      <point x="201" y="127"/>
      <point x="66" y="258"/>
      <point x="66" y="537" type="curve" smooth="yes"/>
    </contour>
  </outline>
  <guideline angle="90" x="726" y="0"/>
  <guideline angle="90" x="921" y="0"/>
  <guideline angle="0" x="0" y="37"/>
  <guideline angle="0" x="0" y="1255"/>
  <guideline angle="90" x="911" y="0"/>
  <guideline angle="90" x="1073" y="0"/>
  <guideline angle="0" x="0" y="55"/>
</glyph>
<glyph name="Dha.dv" format="2">
  <advance width="1130"/>
  <unicode hex="0927"/>
  <anchor x="897" y="37" name="bottom"/>
  <anchor x="887" y="37" name="bottom2"/>
  <anchor x="1049" y="37" name="bottom3"/>
  <anchor x="897" y="55" name="bottom5"/>
  <anchor x="897" y="1255" name="top"/>
  <outline>
    <contour>
      <point x="1049" y="1156" type="line"/>
      <point x="1049" y="0" type="line"/>
      <point x="745" y="0" type="line"/>
      <point x="745" y="1156" type="line"/>
    </contour>
    <contour>
      <point x="722" y="1067" type="line"/>
      <point x="708" y="1308" type="line"/>
      <point x="1158" y="1308" type="line"/>
      <point x="1172" y="1067" type="line"/>
    </contour>
    <contour>
      <point x="695" y="1067" type="line"/>
      <point x="681" y="1308" type="line"/>
      <point x="1158" y="1308" type="line"/>
      <point x="1172" y="1067" type="line"/>
    </contour>
    <contour>
      <point x="59" y="405" type="line" smooth="yes"/>
      <point x="59" y="550"/>
      <point x="138" y="635"/>
      <point x="307" y="648" type="curve"/>
      <point x="307" y="655" type="line"/>
      <point x="120" y="681"/>
      <point x="35" y="776"/>
      <point x="35" y="955" type="curve" smooth="yes"/>
      <point x="35" y="992" type="line" smooth="yes"/>
      <point x="35" y="1231"/>
      <point x="142" y="1336"/>
      <point x="350" y="1336" type="curve" smooth="yes"/>
      <point x="554" y="1336"/>
      <point x="651" y="1238"/>
      <point x="651" y="1047" type="curve" smooth="yes"/>
      <point x="651" y="981"/>
      <point x="642" y="920"/>
      <point x="627" y="867" type="curve"/>
      <point x="410" y="867" type="line"/>
      <point x="410" y="997" type="line" smooth="yes"/>
      <point x="410" y="1073"/>
      <point x="399" y="1091"/>
      <point x="362" y="1091" type="curve" smooth="yes"/>
      <point x="326" y="1091"/>
      <point x="311" y="1069"/>
      <point x="311" y="995" type="curve" smooth="yes"/>
      <point x="311" y="946" type="line" smooth="yes"/>
      <point x="311" y="819"/>
      <point x="364" y="782"/>
      <point x="480" y="775" type="curve" smooth="yes"/>
      <point x="616" y="767" type="line"/>
      <point x="616" y="528" type="line"/>
      <point x="484" y="524" type="line" smooth="yes"/>
      <point x="403" y="522"/>
      <point x="363" y="501"/>
      <point x="363" y="453" type="curve" smooth="yes"/>
      <point x="363" y="446" type="line" smooth="yes"/>
      <point x="363" y="395"/>
      <point x="403" y="370"/>
      <point x="543" y="370" type="curve" smooth="yes"/>
      <point x="666" y="370"/>
      <point x="736" y="407"/>
      <point x="753" y="480" type="curve"/>
      <point x="771" y="298" type="line"/>
      <point x="735" y="298" type="line"/>
      <point x="706" y="177"/>
      <point x="615" y="105"/>
      <point x="420" y="105" type="curve" smooth="yes"/>
      <point x="197" y="105"/>
      <point x="59" y="208"/>
      <point x="59" y="392" type="curve" smooth="yes"/>
    </contour>
  </outline>
  <guideline angle="90" x="695" y="0"/>
  <guideline angle="90" x="897" y="0"/>
  <guideline angle="0" x="0" y="37"/>
  <guideline angle="0" x="0" y="1255"/>
  <guideline angle="90" x="887" y="0"/>
  <guideline angle="90" x="1049" y="0"/>
  <guideline angle="0" x="0" y="55"/>
</glyph>
<glyph name="Na.dv" format="2">
  <advance width="944"/>
  <unicode hex="0928"/>
  <anchor x="711" y="37" name="bottom"/>
  <anchor x="701" y="37" name="bottom2"/>
  <anchor x="863" y="37" name="bottom3"/>
  <anchor x="711" y="55" name="bottom5"/>
  <anchor x="711" y="1255" name="top"/>
  <outline>
    <contour>
      <point x="863" y="1156" type="line"/>
      <point x="863" y="0" type="line"/>
      <point x="559" y="0" type="line"/>
      <point x="559" y="1156" type="line"/>
    </contour>
    <contour>
      <point x="536" y="1067" type="line"/>
      <point x="522" y="1308" type="line"/>
      <point x="972" y="1308" type="line"/>
      <point x="986" y="1067" type="line"/>
    </contour>
    <contour>
      <point x="986" y="1067" type="line"/>
      <point x="-28" y="1067" type="line"/>
      <point x="-42" y="1308" type="line"/>
      <point x="972" y="1308" type="line"/>
    </contour>
    <contour>
      <point x="672" y="830" type="line"/>
      <point x="672" y="570" type="line"/>
      <point x="344" y="570" type="line"/>
      <point x="344" y="830" type="line"/>
    </contour>
    <contour>
      <point x="166" y="237" type="line"/>
      <point x="92" y="377"/>
      <point x="39" y="546"/>
      <point x="24" y="732" type="curve"/>
      <point x="144" y="830" type="line"/>
      <point x="397" y="830" type="line"/>
      <point x="397" y="237" type="line"/>
    </contour>
  </outline>
  <guideline angle="90" x="711" y="0"/>
  <guideline angle="0" x="0" y="37"/>
  <guideline angle="0" x="0" y="1255"/>
  <guideline angle="90" x="701" y="0"/>
  <guideline angle="90" x="863" y="0"/>
  <guideline angle="0" x="0" y="55"/>
</glyph>
<glyph name="NaNukta.dv" format="2">
  <advance width="944"/>
  <unicode hex="0929"/>
  <anchor x="711" y="37" name="bottom"/>
  <anchor x="701" y="37" name="bottom2"/>
  <anchor x="863" y="37" name="bottom3"/>
  <anchor x="711" y="55" name="bottom5"/>
  <anchor x="711" y="1255" name="top"/>
  <outline>
    <contour>
      <point x="863" y="1156" type="line"/>
      <point x="863" y="0" type="line"/>
      <point x="559" y="0" type="line"/>
      <point x="559" y="1156" type="line"/>
    </contour>
    <contour>
      <point x="536" y="1067" type="line"/>
      <point x="522" y="1308" type="line"/>
      <point x="972" y="1308" type="line"/>
      <point x="986" y="1067" type="line"/>
    </contour>
    <contour>
      <point x="986" y="1067" type="line"/>
      <point x="-28" y="1067" type="line"/>
      <point x="-42" y="1308" type="line"/>
      <point x="972" y="1308" type="line"/>
    </contour>
    <contour>
      <point x="672" y="830" type="line"/>
      <point x="672" y="570" type="line"/>
      <point x="344" y="570" type="line"/>
      <point x="344" y="830" type="line"/>
    </contour>
    <contour>
      <point x="166" y="237" type="line"/>
      <point x="92" y="377"/>
      <point x="39" y="546"/>
      <point x="24" y="732" type="curve"/>
      <point x="144" y="830" type="line"/>
      <point x="397" y="830" type="line"/>
      <point x="397" y="237" type="line"/>
    </contour>
    <contour>
      <point x="265" y="-147" type="curve" smooth="yes"/>
      <point x="164" y="-147"/>
      <point x="118" y="-88"/>
      <point x="118" y="8" type="curve"/>
      <point x="118" y="9.3258"/>
      <point x="118" y="12.8517"/>
      <point x="118" y="14" type="curve"/>
      <point x="118" y="110"/>
      <point x="164" y="169"/>
      <point x="265" y="169" type="curve" smooth="yes"/>
      <point x="366" y="169"/>
      <point x="412" y="110"/>
      <point x="412" y="14" type="curve"/>
      <point x="412" y="12.6742"/>
      <point x="412" y="9.14832"/>
      <point x="412" y="8" type="curve"/>
      <point x="412" y="-88"/>
      <point x="366" y="-147"/>
    </contour>
  </outline>
  <guideline angle="90" x="711" y="0"/>
  <guideline angle="0" x="0" y="37"/>
  <guideline angle="0" x="0" y="1255"/>
  <guideline angle="90" x="701" y="0"/>
  <guideline angle="90" x="863" y="0"/>
  <guideline angle="0" x="0" y="55"/>
</glyph>
<glyph name="Pha.dv" format="2">
  <advance width="1354"/>
  <unicode hex="092B"/>
  <anchor x="694" y="37" name="bottom"/>
  <anchor x="684" y="37" name="bottom2"/>
  <anchor x="1030" y="37" name="bottom3"/>
  <anchor x="694" y="55" name="bottom5"/>
  <anchor x="694" y="1255" name="top"/>
  <outline>
    <contour>
      <point x="-28" y="1067" type="line"/>
      <point x="-42" y="1308" type="line"/>
      <point x="1382" y="1308" type="line"/>
      <point x="1396" y="1067" type="line"/>
    </contour>
    <contour>
      <point x="315" y="230" type="curve" smooth="yes"/>
      <point x="153" y="230"/>
      <point x="74" y="333"/>
      <point x="74" y="583" type="curve" smooth="yes"/>
      <point x="74" y="1159" type="line"/>
      <point x="378" y="1159" type="line"/>
      <point x="378" y="620" type="line" smooth="yes"/>
      <point x="378" y="526"/>
      <point x="401" y="495"/>
      <point x="456" y="495" type="curve" smooth="yes"/>
      <point x="512" y="495"/>
      <point x="541" y="530"/>
      <point x="546" y="596" type="curve"/>
      <point x="569" y="408" type="line"/>
      <point x="532" y="408" type="line"/>
      <point x="508" y="300"/>
      <point x="453" y="230"/>
    </contour>
    <contour>
      <point x="926" y="657" type="curve" smooth="yes"/>
      <point x="880" y="657"/>
      <point x="853" y="628"/>
      <point x="843" y="576" type="curve"/>
      <point x="821" y="754" type="line"/>
      <point x="856" y="754" type="line"/>
      <point x="880" y="854"/>
      <point x="940" y="918"/>
      <point x="1062" y="918" type="curve" smooth="yes"/>
      <point x="1228" y="918"/>
      <point x="1305" y="792"/>
      <point x="1305" y="537" type="curve" smooth="yes"/>
      <point x="1305" y="443" type="line" smooth="yes"/>
      <point x="1305" y="189"/>
      <point x="1219" y="64"/>
      <point x="1036" y="64" type="curve" smooth="yes"/>
      <point x="995" y="64"/>
      <point x="960" y="69"/>
      <point x="933" y="79" type="curve"/>
      <point x="914" y="333" type="line"/>
      <point x="921" y="331"/>
      <point x="932" y="329"/>
      <point x="942" y="329" type="curve" smooth="yes"/>
      <point x="988" y="329"/>
      <point x="1005" y="361"/>
      <point x="1005" y="458" type="curve" smooth="yes"/>
      <point x="1005" y="513" type="line" smooth="yes"/>
      <point x="1005" y="624"/>
      <point x="979" y="657"/>
    </contour>
    <contour>
      <point x="846" y="1156" type="line"/>
      <point x="846" y="0" type="line"/>
      <point x="542" y="0" type="line"/>
      <point x="542" y="1156" type="line"/>
    </contour>
  </outline>
  <guideline angle="90" x="694" y="0"/>
  <guideline angle="0" x="0" y="37"/>
  <guideline angle="0" x="0" y="1255"/>
  <guideline angle="90" x="684" y="0"/>
  <guideline angle="90" x="846" y="0"/>
  <guideline angle="0" x="0" y="55"/>
</glyph>
<glyph name="Bha.dv" format="2">
  <advance width="986"/>
  <unicode hex="092D"/>
  <anchor x="753" y="37" name="bottom"/>
  <anchor x="743" y="37" name="bottom2"/>
  <anchor x="905" y="37" name="bottom3"/>
  <anchor x="753" y="55" name="bottom5"/>
  <anchor x="753" y="1255" name="top"/>
  <outline>
    <contour>
      <point x="905" y="1156" type="line"/>
      <point x="905" y="0" type="line"/>
      <point x="601" y="0" type="line"/>
      <point x="601" y="1156" type="line"/>
    </contour>
    <contour>
      <point x="578" y="1067" type="line"/>
      <point x="564" y="1308" type="line"/>
      <point x="1014" y="1308" type="line"/>
      <point x="1028" y="1067" type="line"/>
    </contour>
    <contour>
      <point x="533" y="1067" type="line"/>
      <point x="519" y="1308" type="line"/>
      <point x="914" y="1308" type="line"/>
      <point x="928" y="1067" type="line"/>
    </contour>
    <contour>
      <point x="187" y="415" type="line"/>
      <point x="187" y="673" type="line"/>
      <point x="721" y="673" type="line"/>
      <point x="721" y="415" type="line"/>
    </contour>
    <contour>
      <point x="174" y="127" type="line"/>
      <point x="92" y="250"/>
      <point x="38" y="410"/>
      <point x="29" y="587" type="curve"/>
      <point x="121" y="650" type="line"/>
      <point x="421" y="650" type="line"/>
      <point x="421" y="127" type="line"/>
    </contour>
    <contour>
      <point x="121" y="535" type="line"/>
      <point x="121" y="966" type="line" smooth="yes"/>
      <point x="121" y="1043"/>
      <point x="103" y="1067"/>
      <point x="38" y="1067" type="curve" smooth="yes"/>
      <point x="-28" y="1067" type="line"/>
      <point x="-42" y="1308" type="line"/>
      <point x="81" y="1308" type="line" smooth="yes"/>
      <point x="336" y="1308"/>
      <point x="421" y="1211"/>
      <point x="421" y="970" type="curve" smooth="yes"/>
      <point x="421" y="535" type="line"/>
    </contour>
  </outline>
  <guideline angle="0" x="0" y="370"/>
  <guideline angle="90" x="753" y="0"/>
  <guideline angle="0" x="0" y="37"/>
  <guideline angle="0" x="0" y="1255"/>
  <guideline angle="90" x="743" y="0"/>
  <guideline angle="90" x="905" y="0"/>
  <guideline angle="0" x="0" y="55"/>
</glyph>
<glyph name="Sha.dv" format="2">
  <advance width="1227"/>
  <unicode hex="0936"/>
  <anchor x="994" y="37" name="bottom"/>
  <anchor x="984" y="37" name="bottom2"/>
  <anchor x="1146" y="37" name="bottom3"/>
  <anchor x="994" y="55" name="bottom5"/>
  <anchor x="994" y="1255" name="top"/>
  <outline>
    <contour>
      <point x="1146" y="1156" type="line"/>
      <point x="1146" y="0" type="line"/>
      <point x="842" y="0" type="line"/>
      <point x="842" y="1156" type="line"/>
    </contour>
    <contour>
      <point x="819" y="1067" type="line"/>
      <point x="805" y="1308" type="line"/>
      <point x="1255" y="1308" type="line"/>
      <point x="1269" y="1067" type="line"/>
    </contour>
    <contour>
      <point x="762" y="1308" type="line"/>
      <point x="1255" y="1308" type="line"/>
      <point x="1269" y="1067" type="line"/>
      <point x="776" y="1067" type="line"/>
    </contour>
    <contour>
      <point x="712" y="0" type="line"/>
      <point x="350" y="0" type="line"/>
      <point x="161" y="334" type="line"/>
      <point x="52" y="348" type="line"/>
      <point x="52" y="602" type="line"/>
      <point x="326" y="512" type="line"/>
      <point x="326" y="431" type="line"/>
      <point x="447" y="362"/>
      <point x="510" y="300"/>
      <point x="596" y="177" type="curve" smooth="yes"/>
      <point x="712" y="11" type="line"/>
    </contour>
    <contour>
      <point x="732" y="949" type="curve" smooth="yes"/>
      <point x="732" y="806" type="line" smooth="yes"/>
      <point x="732" y="509"/>
      <point x="609" y="365"/>
      <point x="307" y="365" type="curve" smooth="yes"/>
      <point x="265" y="365"/>
      <point x="224" y="365"/>
      <point x="171" y="370" type="curve"/>
      <point x="52" y="602" type="line"/>
      <point x="107" y="602"/>
      <point x="145" y="602"/>
      <point x="188" y="602" type="curve" smooth="yes"/>
      <point x="375" y="602"/>
      <point x="445" y="653"/>
      <point x="445" y="846" type="curve" smooth="yes"/>
      <point x="445" y="955" type="line" smooth="yes"/>
      <point x="445" y="1041"/>
      <point x="436" y="1073"/>
      <point x="394" y="1073" type="curve" smooth="yes"/>
      <point x="351" y="1073"/>
      <point x="340" y="1045"/>
      <point x="340" y="959" type="curve" smooth="yes"/>
      <point x="340" y="909" type="line" smooth="yes"/>
      <point x="340" y="839"/>
      <point x="344" y="791"/>
      <point x="353" y="738" type="curve"/>
      <point x="98" y="738" type="line"/>
      <point x="79" y="802"/>
      <point x="72" y="859"/>
      <point x="72" y="946" type="curve" smooth="yes"/>
      <point x="72" y="990" type="line" smooth="yes"/>
      <point x="72" y="1213"/>
      <point x="184" y="1334"/>
      <point x="396" y="1334" type="curve" smooth="yes"/>
      <point x="620" y="1334"/>
      <point x="732" y="1213"/>
    </contour>
  </outline>
  <guideline angle="90" x="776" y="0"/>
  <guideline angle="90" x="994" y="0"/>
  <guideline angle="0" x="0" y="37"/>
  <guideline angle="0" x="0" y="1255"/>
  <guideline angle="90" x="984" y="0"/>
  <guideline angle="90" x="1146" y="0"/>
  <guideline angle="0" x="0" y="55"/>
</glyph>
<glyph name="Nukta.dv" format="2">
  <unicode hex="093C"/>
  <anchor x="-469" y="37" name="_bottom4"/>
  <outline>
    <contour>
      <point x="-469" y="-316" type="curve" smooth="yes"/>
      <point x="-570" y="-316"/>
      <point x="-616" y="-257"/>
      <point x="-616" y="-161" type="curve"/>
      <point x="-616" y="-159.674"/>
      <point x="-616" y="-156.148"/>
      <point x="-616" y="-155" type="curve"/>
      <point x="-616" y="-59"/>
      <point x="-570" y="0"/>
      <point x="-469" y="0" type="curve" smooth="yes"/>
      <point x="-368" y="0"/>
      <point x="-322" y="-59"/>
      <point x="-322" y="-155" type="curve"/>
      <point x="-322" y="-156.326"/>
      <point x="-322" y="-159.852"/>
      <point x="-322" y="-161" type="curve"/>
      <point x="-322" y="-257"/>
      <point x="-368" y="-316"/>
    </contour>
  </outline>
</glyph>
<glyph name="matraUu.dv" format="2">
  <unicode hex="0942"/>
  <anchor x="-233" y="37" name="_bottom"/>
  <outline>
    <contour>
      <point x="-214" y="-581" type="line"/>
      <point x="-242" y="-594"/>
      <point x="-280" y="-602"/>
      <point x="-332" y="-602" type="curve" smooth="yes"/>
      <point x="-498" y="-602"/>
      <point x="-623" y="-498"/>
      <point x="-623" y="-296" type="curve" smooth="yes"/>
      <point x="-623" y="-282" type="line" smooth="yes"/>
      <point x="-623" y="-87"/>
      <point x="-503" y="35"/>
      <point x="-277" y="35" type="curve" smooth="yes"/>
      <point x="38" y="35"/>
      <point x="128" y="-155"/>
      <point x="200" y="-604" type="curve"/>
      <point x="-87" y="-604" type="line"/>
      <point x="-135" y="-262"/>
      <point x="-168" y="-197"/>
      <point x="-269" y="-197" type="curve" smooth="yes"/>
      <point x="-326" y="-197"/>
      <point x="-358" y="-229"/>
      <point x="-358" y="-282" type="curve" smooth="yes"/>
      <point x="-358" y="-287" type="line" smooth="yes"/>
      <point x="-358" y="-344"/>
      <point x="-326" y="-370"/>
      <point x="-271" y="-370" type="curve" smooth="yes"/>
      <point x="-245" y="-370"/>
      <point x="-216" y="-366"/>
      <point x="-194" y="-357" type="curve"/>
    </contour>
  </outline>
  <guideline angle="90" x="-233" y="0"/>
  <guideline angle="0" x="0" y="37"/>
</glyph>
<glyph name="matraShortE.dv" format="2">
  <unicode hex="0946"/>
  <anchor x="-233" y="1255" name="_top"/>
  <outline>
    <contour>
      <point x="-593" y="1781" type="curve"/>
      <point x="-593" y="1692"/>
      <point x="-565" y="1663"/>
      <point x="-471" y="1660" type="curve" smooth="yes"/>
      <point x="-410" y="1658" type="line" smooth="yes"/>
      <point x="-182" y="1651"/>
      <point x="-101" y="1541"/>
      <point x="-101" y="1337" type="curve" smooth="yes"/>
      <point x="-101" y="1255" type="line"/>
      <point x="-363" y="1255" type="line"/>
      <point x="-363" y="1328" type="line" smooth="yes"/>
      <point x="-363" y="1391"/>
      <point x="-377" y="1418"/>
      <point x="-456" y="1422" type="curve" smooth="yes"/>
      <point x="-527" y="1425" type="line" smooth="yes"/>
      <point x="-747" y="1436"/>
      <point x="-848" y="1512"/>
      <point x="-848" y="1680" type="curve" smooth="yes"/>
      <point x="-848" y="1716"/>
      <point x="-842" y="1755"/>
      <point x="-830" y="1790" type="curve"/>
      <point x="-593" y="1790" type="line"/>
      <point x="-593" y="1788.54"/>
      <point x="-593" y="1782.55"/>
    </contour>
  </outline>
  <guideline angle="90" x="-80" y="0"/>
  <guideline angle="90" x="-363" y="0"/>
  <guideline angle="90" x="-233" y="0"/>
  <guideline angle="0" x="0" y="1255"/>
</glyph>
<glyph name="matraShortO.dv" format="2">
  <advance width="466"/>
  <unicode hex="094A"/>
  <outline>
    <contour>
      <point x="-139.097" y="1790.33" type="curve"/>
      <point x="-139.097" y="1699.52"/>
      <point x="-110.526" y="1669.93"/>
      <point x="-14.6084" y="1666.86" type="curve" smooth="yes"/>
      <point x="47.636" y="1664.82" type="line" smooth="yes"/>
      <point x="280.287" y="1657.68"/>
      <point x="362.94" y="1545.44"/>
      <point x="362.94" y="1337.27" type="curve" smooth="yes"/>
      <point x="362.94" y="1253.6" type="line"/>
      <point x="95.5948" y="1253.6" type="line"/>
      <point x="95.5948" y="1328.09" type="line" smooth="yes"/>
      <point x="95.5948" y="1392.38"/>
      <point x="81.3092" y="1419.93"/>
      <point x="0.697578" y="1424.01" type="curve" smooth="yes"/>
      <point x="-71.7508" y="1427.07" type="line" smooth="yes"/>
      <point x="-296.239" y="1438.29"/>
      <point x="-399.299" y="1515.84"/>
      <point x="-399.299" y="1687.27" type="curve" smooth="yes"/>
      <point x="-399.299" y="1724.01"/>
      <point x="-393.177" y="1763.8"/>
      <point x="-380.932" y="1799.52" type="curve"/>
      <point x="-139.097" y="1799.52" type="line"/>
      <point x="-139.097" y="1798.02"/>
      <point x="-139.097" y="1791.92"/>
    </contour>
    <contour>
      <point x="385" y="3.52122e-07" type="line"/>
      <point x="81" y="3.52122e-07" type="line"/>
      <point x="81" y="1156" type="line"/>
      <point x="385" y="1156" type="line"/>
    </contour>
    <contour>
      <point x="508" y="1067" type="line"/>
      <point x="-28" y="1067" type="line"/>
      <point x="-42" y="1308" type="line"/>
      <point x="494" y="1308" type="line"/>
    </contour>
  </outline>
  <guideline angle="90" x="81" y="0"/>
</glyph>
<glyph name="uni094F" format="2">
  <advance width="466"/>
  <unicode hex="094F"/>
  <outline>
    <contour>
      <point x="-480" y="1578" type="curve" smooth="yes"/>
      <point x="-480" y="1611"/>
      <point x="-474" y="1638"/>
      <point x="-462" y="1663" type="curve"/>
      <point x="-248" y="1663" type="line"/>
      <point x="-248" y="1652" type="line" smooth="yes"/>
      <point x="-248" y="1589"/>
      <point x="-214.762" y="1561.47"/>
      <point x="-112" y="1547" type="curve" smooth="yes"/>
      <point x="-26.4723" y="1534.95" type="line" smooth="yes"/>
      <point x="79.8093" y="1519.98"/>
      <point x="125" y="1494"/>
      <point x="168" y="1430" type="curve"/>
      <point x="173" y="1432" type="line"/>
      <point x="166" y="1508"/>
      <point x="134.656" y="1552.16"/>
      <point x="25.9755" y="1592.97" type="curve" smooth="yes"/>
      <point x="-54.7642" y="1623.29" type="line" smooth="yes"/>
      <point x="-194.86" y="1675.9"/>
      <point x="-241" y="1725"/>
      <point x="-241" y="1818" type="curve" smooth="yes"/>
      <point x="-241" y="1850"/>
      <point x="-233" y="1881"/>
      <point x="-220" y="1906" type="curve"/>
      <point x="13" y="1904" type="line"/>
      <point x="13" y="1888" type="line" smooth="yes"/>
      <point x="13" y="1829"/>
      <point x="23.9683" y="1803.88"/>
      <point x="116.237" y="1761.19" type="curve" smooth="yes"/>
      <point x="183.237" y="1730.19" type="line" smooth="yes"/>
      <point x="326.029" y="1664.12"/>
      <point x="364" y="1561"/>
      <point x="364" y="1384" type="curve" smooth="yes"/>
      <point x="364" y="1271" type="line"/>
      <point x="77" y="1271" type="line"/>
      <point x="77" y="1294" type="line" smooth="yes"/>
      <point x="77" y="1337"/>
      <point x="59.0383" y="1355.35"/>
      <point x="-87" y="1371" type="curve" smooth="yes"/>
      <point x="-199" y="1383" type="line" smooth="yes"/>
      <point x="-391.157" y="1403.59"/>
      <point x="-480" y="1461"/>
    </contour>
    <contour>
      <point x="385" y="0" type="line"/>
      <point x="81" y="0" type="line"/>
      <point x="81" y="1156" type="line"/>
      <point x="385" y="1156" type="line"/>
    </contour>
    <contour>
      <point x="508" y="1067" type="line"/>
      <point x="-28" y="1067" type="line"/>
      <point x="-42" y="1308" type="line"/>
      <point x="494" y="1308" type="line"/>
    </contour>
  </outline>
</glyph>
<glyph name="Om.dv" format="2">
  <advance width="1374"/>
  <unicode hex="0950"/>
  <outline>
    <contour>
      <point x="969" y="1354" type="curve" smooth="yes"/>
      <point x="899" y="1354"/>
      <point x="873" y="1401"/>
      <point x="873" y="1481" type="curve" smooth="yes"/>
      <point x="873" y="1492" type="line" smooth="yes"/>
      <point x="873" y="1569"/>
      <point x="899" y="1619"/>
      <point x="969" y="1619" type="curve" smooth="yes"/>
      <point x="1039" y="1619"/>
      <point x="1065" y="1569"/>
      <point x="1065" y="1492" type="curve" smooth="yes"/>
      <point x="1065" y="1481" type="line" smooth="yes"/>
      <point x="1065" y="1401"/>
      <point x="1039" y="1354"/>
    </contour>
    <contour>
      <point x="1320" y="1485" type="line"/>
      <point x="1324" y="1453"/>
      <point x="1324" y="1433"/>
      <point x="1324" y="1417" type="curve" smooth="yes"/>
      <point x="1324" y="1205"/>
      <point x="1202.28" y="1111"/>
      <point x="968.993" y="1111" type="curve" smooth="yes"/>
      <point x="735.702" y="1111"/>
      <point x="615" y="1205"/>
      <point x="615" y="1417" type="curve" smooth="yes"/>
      <point x="615" y="1437"/>
      <point x="616" y="1457"/>
      <point x="620" y="1485" type="curve"/>
      <point x="810" y="1485" type="line"/>
      <point x="810" y="1448" type="line" smooth="yes"/>
      <point x="810" y="1339"/>
      <point x="855.424" y="1292"/>
      <point x="968.984" y="1292" type="curve" smooth="yes"/>
      <point x="1083.58" y="1292"/>
      <point x="1129" y="1339"/>
      <point x="1129" y="1448" type="curve" smooth="yes"/>
      <point x="1129" y="1485" type="line"/>
    </contour>
    <contour>
      <point x="803" y="396" type="line"/>
      <point x="827" y="385"/>
      <point x="859" y="375"/>
      <point x="899" y="375" type="curve" smooth="yes"/>
      <point x="986" y="375"/>
      <point x="1026" y="427"/>
      <point x="1026" y="589" type="curve" smooth="yes"/>
      <point x="1026" y="673" type="line" smooth="yes"/>
      <point x="1026" y="783"/>
      <point x="1013" y="807"/>
      <point x="976" y="807" type="curve" smooth="yes"/>
      <point x="939" y="807"/>
      <point x="928" y="782"/>
      <point x="904" y="686" type="curve" smooth="yes"/>
      <point x="890" y="629" type="line" smooth="yes"/>
      <point x="859" y="504"/>
      <point x="811" y="443"/>
      <point x="692" y="443" type="curve" smooth="yes"/>
      <point x="629" y="443"/>
      <point x="572" y="464"/>
      <point x="524" y="495" type="curve"/>
      <point x="460" y="672" type="line"/>
      <point x="489" y="662"/>
      <point x="526" y="655"/>
      <point x="563" y="655" type="curve" smooth="yes"/>
      <point x="619" y="655"/>
      <point x="654" y="679"/>
      <point x="674" y="756" type="curve" smooth="yes"/>
      <point x="689" y="813" type="line" smooth="yes"/>
      <point x="734" y="986"/>
      <point x="823" y="1067"/>
      <point x="992" y="1067" type="curve" smooth="yes"/>
      <point x="1216" y="1067"/>
      <point x="1320" y="920"/>
      <point x="1320" y="640" type="curve" smooth="yes"/>
      <point x="1320" y="537" type="line" smooth="yes"/>
      <point x="1320" y="230"/>
      <point x="1188" y="115"/>
      <point x="980" y="115" type="curve" smooth="yes"/>
      <point x="912" y="115"/>
      <point x="857" y="128"/>
      <point x="822" y="146" type="curve"/>
    </contour>
    <contour>
      <point x="33" y="339" type="line"/>
      <point x="92" y="302"/>
      <point x="166" y="274"/>
      <point x="241" y="274" type="curve" smooth="yes"/>
      <point x="328" y="274"/>
      <point x="366" y="315"/>
      <point x="366" y="408" type="curve"/>
      <point x="366" y="410"/>
      <point x="366" y="418"/>
      <point x="366" y="420" type="curve"/>
      <point x="366" y="508"/>
      <point x="333" y="539"/>
      <point x="230" y="545" type="curve" smooth="yes"/>
      <point x="131" y="550" type="line"/>
      <point x="131" y="802" type="line"/>
      <point x="219" y="810" type="line" smooth="yes"/>
      <point x="314.86" y="818.715"/>
      <point x="350" y="852"/>
      <point x="350" y="931" type="curve"/>
      <point x="350" y="931"/>
      <point x="350" y="949"/>
      <point x="350" y="949" type="curve"/>
      <point x="350" y="1032"/>
      <point x="318" y="1064"/>
      <point x="237" y="1064" type="curve" smooth="yes"/>
      <point x="173" y="1064"/>
      <point x="112" y="1043"/>
      <point x="64" y="1016" type="curve"/>
      <point x="74" y="1279" type="line"/>
      <point x="131" y="1308"/>
      <point x="214" y="1327"/>
      <point x="311" y="1327" type="curve" smooth="yes"/>
      <point x="532" y="1327"/>
      <point x="644" y="1216"/>
      <point x="644" y="1001" type="curve" smooth="yes"/>
      <point x="644" y="998"/>
      <point x="644" y="971"/>
      <point x="644" y="968" type="curve" smooth="yes"/>
      <point x="644" y="792"/>
      <point x="577" y="701"/>
      <point x="410" y="686" type="curve"/>
      <point x="410" y="679" type="line"/>
      <point x="574" y="668"/>
      <point x="662" y="565"/>
      <point x="662" y="374" type="curve" smooth="yes"/>
      <point x="662" y="369.429"/>
      <point x="662" y="346.571"/>
      <point x="662" y="342" type="curve" smooth="yes"/>
      <point x="662" y="144"/>
      <point x="568" y="11"/>
      <point x="316" y="11" type="curve" smooth="yes"/>
      <point x="194" y="11"/>
      <point x="111" y="36"/>
      <point x="44" y="76" type="curve"/>
    </contour>
  </outline>
</glyph>
<glyph name="Udatta.dv" format="2">
  <unicode hex="0951"/>
  <anchor x="-233" y="1255" name="_top"/>
  <outline>
    <contour>
      <point x="-361" y="1468" type="line"/>
      <point x="-361" y="1956" type="line"/>
      <point x="-102" y="1956" type="line"/>
      <point x="-102" y="1468" type="line"/>
    </contour>
  </outline>
  <guideline angle="90" x="-233" y="0"/>
  <guideline angle="90" x="-361" y="0"/>
  <guideline angle="90" x="-82" y="0"/>
  <guideline angle="0" x="0" y="1255"/>
</glyph>
<glyph name="Anudatta.dv" format="2">
  <unicode hex="0952"/>
  <anchor x="-81" y="37" name="_bottom3"/>
  <outline>
    <contour>
      <point x="-753" y="-440" type="line"/>
      <point x="-768" y="-203" type="line"/>
      <point x="-81" y="-203" type="line"/>
      <point x="-67" y="-440" type="line"/>
    </contour>
  </outline>
  <guideline angle="90" x="-81" y="0"/>
  <guideline angle="0" x="0" y="37"/>
</glyph>
<glyph name="uni0953" format="2">
  <unicode hex="0953"/>
  <anchor x="-233" y="1255" name="_top"/>
  <outline>
    <contour>
      <point x="-390" y="1389" type="line"/>
      <point x="-633" y="1759" type="line"/>
      <point x="-633" y="1774" type="line"/>
      <point x="-300" y="1774" type="line"/>
      <point x="-112" y="1397" type="line"/>
      <point x="-112" y="1389" type="line"/>
    </contour>
  </outline>
  <guideline angle="90" x="-233" y="0"/>
  <guideline angle="0" x="0" y="1255"/>
</glyph>
<glyph name="GaNukta.dv" format="2">
  <advance width="972"/>
  <unicode hex="095A"/>
  <anchor x="739" y="37" name="bottom"/>
  <anchor x="729" y="37" name="bottom2"/>
  <anchor x="891" y="37" name="bottom3"/>
  <anchor x="739" y="55" name="bottom5"/>
  <anchor x="739" y="1255" name="top"/>
  <outline>
    <contour>
      <point x="915" y="1067" type="line"/>
      <point x="-28" y="1067" type="line"/>
      <point x="-42" y="1308" type="line"/>
      <point x="901" y="1308" type="line"/>
    </contour>
    <contour>
      <point x="118" y="1095" type="curve"/>
      <point x="421" y="1095" type="line"/>
      <point x="450" y="1038"/>
      <point x="457" y="957"/>
      <point x="457" y="795" type="curve" smooth="yes"/>
      <point x="457" y="725" type="line" smooth="yes"/>
      <point x="457" y="403"/>
      <point x="360.563" y="295"/>
      <point x="160" y="295" type="curve" smooth="yes"/>
      <point x="118.056" y="295"/>
      <point x="80.7536" y="299.747"/>
      <point x="47" y="310" type="curve"/>
      <point x="31" y="590" type="line"/>
      <point x="41.6652" y="588.433"/>
      <point x="55.6677" y="586"/>
      <point x="70" y="586" type="curve" smooth="yes"/>
      <point x="131.28" y="586"/>
      <point x="153" y="613.9"/>
      <point x="153" y="766" type="curve" smooth="yes"/>
      <point x="153" y="830" type="line" smooth="yes"/>
      <point x="153" y="960"/>
      <point x="147" y="1040"/>
    </contour>
    <contour>
      <point x="891" y="1156" type="line"/>
      <point x="891" y="0" type="line"/>
      <point x="587" y="0" type="line"/>
      <point x="587" y="1156" type="line"/>
    </contour>
    <contour>
      <point x="564" y="1067" type="line"/>
      <point x="550" y="1308" type="line"/>
      <point x="1000" y="1308" type="line"/>
      <point x="1014" y="1067" type="line"/>
    </contour>
    <contour>
      <point x="227" y="-86" type="curve" smooth="yes"/>
      <point x="126" y="-86"/>
      <point x="80" y="-27"/>
      <point x="80" y="69" type="curve"/>
      <point x="80" y="70.3258"/>
      <point x="80" y="73.8517"/>
      <point x="80" y="75" type="curve"/>
      <point x="80" y="171"/>
      <point x="126" y="230"/>
      <point x="227" y="230" type="curve" smooth="yes"/>
      <point x="328" y="230"/>
      <point x="374" y="171"/>
      <point x="374" y="75" type="curve"/>
      <point x="374" y="73.6742"/>
      <point x="374" y="70.1483"/>
      <point x="374" y="69" type="curve"/>
      <point x="374" y="-27"/>
      <point x="328" y="-86"/>
    </contour>
  </outline>
  <guideline angle="90" x="739" y="0"/>
  <guideline angle="0" x="0" y="37"/>
  <guideline angle="0" x="0" y="1255"/>
  <guideline angle="90" x="729" y="0"/>
  <guideline angle="90" x="891" y="0"/>
  <guideline angle="0" x="0" y="55"/>
</glyph>
<glyph name="JaNukta.dv" format="2">
  <advance width="1082"/>
  <unicode hex="095B"/>
  <anchor x="849" y="37" name="bottom"/>
  <anchor x="839" y="37" name="bottom2"/>
  <anchor x="1001" y="37" name="bottom3"/>
  <anchor x="849" y="55" name="bottom5"/>
  <anchor x="849" y="1255" name="top"/>
  <outline>
    <contour>
      <point x="1001" y="1156" type="line"/>
      <point x="1001" y="0" type="line"/>
      <point x="697" y="0" type="line"/>
      <point x="697" y="1156" type="line"/>
    </contour>
    <contour>
      <point x="674" y="1067" type="line"/>
      <point x="660" y="1308" type="line"/>
      <point x="1110" y="1308" type="line"/>
      <point x="1124" y="1067" type="line"/>
    </contour>
    <contour>
      <point x="1124" y="1067" type="line"/>
      <point x="-28" y="1067" type="line"/>
      <point x="-42" y="1308" type="line"/>
      <point x="1110" y="1308" type="line"/>
    </contour>
    <contour>
      <point x="843" y="905" type="line"/>
      <point x="843" y="647" type="line"/>
      <point x="596" y="647" type="line"/>
      <point x="396" y="655" type="line"/>
      <point x="99" y="655" type="line"/>
      <point x="99" y="905" type="line"/>
    </contour>
    <contour>
      <point x="436" y="732" type="line"/>
      <point x="436" y="646" type="line"/>
      <point x="532.676" y="613"/>
      <point x="579" y="537"/>
      <point x="579" y="399" type="curve" smooth="yes"/>
      <point x="579" y="375" type="line" smooth="yes"/>
      <point x="579" y="166"/>
      <point x="480.683" y="61"/>
      <point x="269" y="61" type="curve" smooth="yes"/>
      <point x="178" y="61"/>
      <point x="108" y="79"/>
      <point x="52" y="112" type="curve"/>
      <point x="44" y="372" type="line"/>
      <point x="86" y="344"/>
      <point x="129" y="328"/>
      <point x="175" y="328" type="curve" smooth="yes"/>
      <point x="244.818" y="328"/>
      <point x="271" y="366"/>
      <point x="271" y="466" type="curve" smooth="yes"/>
      <point x="271" y="500" type="line" smooth="yes"/>
      <point x="271" y="609"/>
      <point x="245.024" y="641.895"/>
      <point x="177" y="648" type="curve" smooth="yes"/>
      <point x="99" y="655" type="line"/>
      <point x="99" y="732" type="line"/>
    </contour>
    <contour>
      <point x="276" y="-318" type="curve" smooth="yes"/>
      <point x="175" y="-318"/>
      <point x="129" y="-259"/>
      <point x="129" y="-163" type="curve"/>
      <point x="129" y="-161.674"/>
      <point x="129" y="-158.148"/>
      <point x="129" y="-157" type="curve"/>
      <point x="129" y="-61"/>
      <point x="175" y="-2"/>
      <point x="276" y="-2" type="curve" smooth="yes"/>
      <point x="377" y="-2"/>
      <point x="423" y="-61"/>
      <point x="423" y="-157" type="curve"/>
      <point x="423" y="-158.326"/>
      <point x="423" y="-161.852"/>
      <point x="423" y="-163" type="curve"/>
      <point x="423" y="-259"/>
      <point x="377" y="-318"/>
    </contour>
  </outline>
  <guideline angle="0" x="0" y="63"/>
  <guideline angle="90" x="129" y="0"/>
  <guideline angle="90" x="849" y="0"/>
  <guideline angle="0" x="0" y="37"/>
  <guideline angle="0" x="0" y="1255"/>
  <guideline angle="90" x="839" y="0"/>
  <guideline angle="90" x="1001" y="0"/>
  <guideline angle="0" x="0" y="55"/>
</glyph>
<glyph name="vowelRuu.dv" format="2">
  <advance width="1430"/>
  <unicode hex="0960"/>
  <anchor x="1055" y="37" name="bottom3"/>
  <anchor x="721" y="55" name="bottom5"/>
  <anchor x="721" y="1255" name="top"/>
  <outline>
    <contour>
      <point x="874" y="0" type="line"/>
      <point x="570" y="0" type="line"/>
      <point x="570" y="1128" type="line"/>
      <point x="874" y="1128" type="line"/>
    </contour>
    <contour>
      <point x="642" y="256" type="line"/>
      <point x="65" y="-7" type="line"/>
      <point x="65" y="291" type="line"/>
      <point x="331" y="412" type="line"/>
      <point x="359" y="407" type="line"/>
      <point x="414" y="444"/>
      <point x="449" y="462"/>
      <point x="508" y="489" type="curve" smooth="yes"/>
      <point x="642" y="550" type="line"/>
    </contour>
    <contour>
      <point x="411" y="405" type="line"/>
      <point x="153" y="320" type="line"/>
      <point x="197" y="355"/>
      <point x="214" y="399"/>
      <point x="214" y="500" type="curve" smooth="yes"/>
      <point x="214" y="561" type="line" smooth="yes"/>
      <point x="214" y="655"/>
      <point x="192" y="683"/>
      <point x="131" y="683" type="curve" smooth="yes"/>
      <point x="105" y="683"/>
      <point x="77" y="675"/>
      <point x="57" y="666" type="curve"/>
      <point x="76" y="926" type="line"/>
      <point x="122" y="943"/>
      <point x="168" y="949"/>
      <point x="223" y="949" type="curve" smooth="yes"/>
      <point x="400" y="949"/>
      <point x="481" y="859"/>
      <point x="481" y="657" type="curve" smooth="yes"/>
      <point x="481" y="641" type="line" smooth="yes"/>
      <point x="481" y="549"/>
      <point x="455" y="483"/>
      <point x="400" y="443" type="curve"/>
    </contour>
    <contour>
      <point x="1470" y="1067" type="line"/>
      <point x="-27" y="1067" type="line"/>
      <point x="-42" y="1308" type="line"/>
      <point x="1456" y="1308" type="line"/>
    </contour>
    <contour>
      <point x="1118" y="755" type="line"/>
      <point x="1230" y="529" type="line"/>
      <point x="773" y="315" type="line"/>
      <point x="773" y="598" type="line"/>
    </contour>
    <contour>
      <point x="1245" y="944" type="line"/>
      <point x="1285" y="874"/>
      <point x="1319" y="762"/>
      <point x="1328" y="657" type="curve"/>
      <point x="1205" y="505" type="line"/>
      <point x="1008" y="505" type="line"/>
      <point x="1008" y="944" type="line"/>
    </contour>
    <contour>
      <point x="1248" y="-116" type="curve" smooth="yes"/>
      <point x="1082" y="-116"/>
      <point x="970" y="-47"/>
      <point x="970" y="131" type="curve" smooth="yes"/>
      <point x="970" y="142" type="line" smooth="yes"/>
      <point x="970" y="269"/>
      <point x="1014.35" y="341"/>
      <point x="1127" y="372" type="curve"/>
      <point x="1127" y="377" type="line"/>
      <point x="1081.66" y="411.236"/>
      <point x="1040.23" y="462.245"/>
      <point x="1017" y="519" type="curve"/>
      <point x="1240" y="606" type="line"/>
      <point x="1266.15" y="531.993"/>
      <point x="1309.45" y="478.035"/>
      <point x="1375" y="423" type="curve"/>
      <point x="1375" y="236" type="line"/>
      <point x="1272" y="234"/>
      <point x="1250" y="219"/>
      <point x="1250" y="186" type="curve" smooth="yes"/>
      <point x="1250" y="182" type="line" smooth="yes"/>
      <point x="1250" y="153"/>
      <point x="1270" y="140"/>
      <point x="1322" y="140" type="curve" smooth="yes"/>
      <point x="1356" y="140"/>
      <point x="1378" y="146"/>
      <point x="1404" y="153" type="curve"/>
      <point x="1389" y="-90" type="line"/>
      <point x="1354" y="-105"/>
      <point x="1309" y="-116"/>
    </contour>
  </outline>
  <guideline angle="90" x="721" y="0"/>
</glyph>
<glyph name="vowelLruu.dv" format="2">
  <advance width="1174"/>
  <unicode hex="0961"/>
  <anchor x="943" y="-342" name="bottom3"/>
  <anchor x="849" y="1255" name="top"/>
  <outline>
    <contour>
      <point x="1122" y="541" type="line"/>
      <point x="1122" y="520" type="line" smooth="yes"/>
      <point x="1122" y="405"/>
      <point x="1099" y="324"/>
      <point x="1025" y="223" type="curve" smooth="yes"/>
      <point x="961" y="135"/>
      <point x="949" y="120"/>
      <point x="949" y="96" type="curve" smooth="yes"/>
      <point x="949" y="67"/>
      <point x="970" y="53"/>
      <point x="1012" y="53" type="curve" smooth="yes"/>
      <point x="1054" y="53"/>
      <point x="1089" y="65"/>
      <point x="1122" y="85" type="curve"/>
      <point x="1111" y="-138" type="line"/>
      <point x="1074" y="-158"/>
      <point x="1018" y="-169"/>
      <point x="946" y="-169" type="curve" smooth="yes"/>
      <point x="766" y="-169"/>
      <point x="657" y="-86"/>
      <point x="657" y="61" type="curve" smooth="yes"/>
      <point x="657" y="124"/>
      <point x="676" y="175"/>
      <point x="740" y="269" type="curve" smooth="yes"/>
      <point x="797" y="352"/>
      <point x="828" y="401" name=" "/>
      <point x="828" y="508" type="curve" smooth="yes"/>
      <point x="828" y="528" type="line"/>
    </contour>
    <contour>
      <point x="987" y="-155" type="line"/>
      <point x="950" y="-172"/>
      <point x="935" y="-191"/>
      <point x="935" y="-217" type="curve" smooth="yes"/>
      <point x="935" y="-247"/>
      <point x="958" y="-265"/>
      <point x="1010" y="-265" type="curve" smooth="yes"/>
      <point x="1052" y="-265"/>
      <point x="1097" y="-252"/>
      <point x="1130" y="-234" type="curve"/>
      <point x="1119" y="-449" type="line"/>
      <point x="1080" y="-469"/>
      <point x="1021" y="-482"/>
      <point x="946" y="-482" type="curve" smooth="yes"/>
      <point x="775" y="-482"/>
      <point x="666" y="-406"/>
      <point x="666" y="-289" type="curve" smooth="yes"/>
      <point x="666" y="-214"/>
      <point x="700" y="-170"/>
      <point x="773" y="-141" type="curve"/>
      <point x="773" y="-116" type="line"/>
    </contour>
    <contour>
      <point x="658" y="1067" type="line"/>
      <point x="644" y="1308" type="line"/>
      <point x="1105" y="1308" type="line"/>
      <point x="1119" y="1067" type="line"/>
    </contour>
    <contour>
      <point x="996" y="1156" type="line"/>
      <point x="996" y="961" type="line"/>
      <point x="702" y="961" type="line"/>
      <point x="702" y="1156" type="line"/>
    </contour>
    <contour>
      <point x="-28" y="1067" type="line"/>
      <point x="-42" y="1308" type="line"/>
      <point x="1204" y="1308" type="line"/>
      <point x="1218" y="1067" type="line"/>
    </contour>
    <contour>
      <point x="996" y="1102" type="line"/>
      <point x="996" y="857" type="line"/>
      <point x="701" y="857" type="line"/>
      <point x="701" y="1102" type="line"/>
    </contour>
    <contour>
      <point x="59" y="440" type="curve" smooth="yes"/>
      <point x="59" y="534" type="line" smooth="yes"/>
      <point x="59" y="802"/>
      <point x="167" y="922"/>
      <point x="368" y="922" type="curve" smooth="yes"/>
      <point x="495" y="922"/>
      <point x="563" y="867"/>
      <point x="591" y="769" type="curve"/>
      <point x="598" y="769" type="line"/>
      <point x="627" y="865"/>
      <point x="697" y="922"/>
      <point x="828" y="922" type="curve" smooth="yes"/>
      <point x="1034" y="922"/>
      <point x="1122" y="811"/>
      <point x="1122" y="552" type="curve" smooth="yes"/>
      <point x="1122" y="530" type="line"/>
      <point x="828" y="517" type="line"/>
      <point x="828" y="542" type="line" smooth="yes"/>
      <point x="828" y="628"/>
      <point x="811" y="655"/>
      <point x="774" y="655" type="curve" smooth="yes"/>
      <point x="740" y="655"/>
      <point x="725" y="637"/>
      <point x="721" y="551" type="curve" smooth="yes"/>
      <point x="710" y="293" type="line"/>
      <point x="473" y="293" type="line"/>
      <point x="462" y="553" type="line" smooth="yes"/>
      <point x="458" y="639"/>
      <point x="445" y="657"/>
      <point x="410" y="657" type="curve" smooth="yes"/>
      <point x="372" y="657"/>
      <point x="355" y="625"/>
      <point x="355" y="533" type="curve" smooth="yes"/>
      <point x="355" y="438" type="line" smooth="yes"/>
      <point x="355" y="243"/>
      <point x="406" y="129"/>
      <point x="506" y="2" type="curve"/>
      <point x="506" y="0" type="line"/>
      <point x="180" y="0" type="line"/>
      <point x="98" y="112"/>
      <point x="59" y="226"/>
    </contour>
  </outline>
  <guideline angle="90" x="849" y="0"/>
  <guideline angle="90" x="1096" y="0"/>
</glyph>
<glyph name="Shunya.dv" format="2">
  <advance width="920"/>
  <unicode hex="0966"/>
  <outline>
    <contour>
      <point x="460" y="397.44" type="curve" smooth="yes"/>
      <point x="522.56" y="397.44"/>
      <point x="552" y="441.6"/>
      <point x="552" y="552" type="curve" smooth="yes"/>
      <point x="552" y="723.12" type="line" smooth="yes"/>
      <point x="552" y="837.2"/>
      <point x="524.4" y="877.68"/>
      <point x="461.84" y="877.68" type="curve" smooth="yes"/>
      <point x="397.44" y="877.68"/>
      <point x="368" y="837.2"/>
      <point x="368" y="723.12" type="curve" smooth="yes"/>
      <point x="368" y="552" type="line" smooth="yes"/>
      <point x="368" y="441.6"/>
      <point x="397.44" y="397.44"/>
    </contour>
    <contour>
      <point x="460" y="132.48" type="curve" smooth="yes"/>
      <point x="200.56" y="132.48"/>
      <point x="64.4" y="268.64"/>
      <point x="64.4" y="552" type="curve" smooth="yes"/>
      <point x="64.4" y="723.12" type="line" smooth="yes"/>
      <point x="64.4" y="1010.16"/>
      <point x="204.24" y="1142.64"/>
      <point x="461.84" y="1142.64" type="curve" smooth="yes"/>
      <point x="717.6" y="1142.64"/>
      <point x="855.6" y="1010.16"/>
      <point x="855.6" y="723.12" type="curve" smooth="yes"/>
      <point x="855.6" y="552" type="line" smooth="yes"/>
      <point x="855.6" y="268.64"/>
      <point x="719.44" y="132.48"/>
    </contour>
  </outline>
  <guideline angle="0" x="0" y="711"/>
  <guideline angle="0" x="0" y="1655"/>
</glyph>
<glyph name="Paach.dv" format="2">
  <advance width="918"/>
  <unicode hex="096B"/>
  <outline>
    <contour>
      <point x="119.6" y="1289.84" type="curve"/>
      <point x="425.04" y="1289.84" type="line"/>
      <point x="382.72" y="1179.44"/>
      <point x="366.16" y="1070.88"/>
      <point x="366.16" y="910.8" type="curve" smooth="yes"/>
      <point x="366.16" y="857.44" type="line" smooth="yes"/>
      <point x="366.16" y="721.28"/>
      <point x="395.6" y="691.84"/>
      <point x="454.48" y="691.84" type="curve" smooth="yes"/>
      <point x="506" y="691.84"/>
      <point x="533.6" y="721.28"/>
      <point x="542.8" y="789.36" type="curve"/>
      <point x="546.48" y="590.64" type="line"/>
      <point x="528.08" y="590.64" type="line"/>
      <point x="506" y="480.24"/>
      <point x="445.28" y="425.04"/>
      <point x="320.16" y="425.04" type="curve" smooth="yes"/>
      <point x="163.76" y="425.04"/>
      <point x="62.56" y="520.72"/>
      <point x="62.56" y="802.24" type="curve" smooth="yes"/>
      <point x="62.56" y="886.88" type="line" smooth="yes"/>
      <point x="62.56" y="1085.6"/>
      <point x="79.12" y="1186.8"/>
    </contour>
    <contour>
      <point x="539" y="466" type="curve" smooth="yes"/>
      <point x="539" y="1080" type="line"/>
      <point x="843" y="1080" type="line"/>
      <point x="843" y="440" type="line" smooth="yes"/>
      <point x="843" y="114"/>
      <point x="714" y="-18"/>
      <point x="448" y="-18" type="curve" smooth="yes"/>
      <point x="322" y="-18"/>
      <point x="232" y="7"/>
      <point x="168" y="40" type="curve"/>
      <point x="154" y="312" type="line"/>
      <point x="223" y="272"/>
      <point x="295" y="247"/>
      <point x="366" y="247" type="curve" smooth="yes"/>
      <point x="487" y="247"/>
      <point x="539" y="295"/>
    </contour>
  </outline>
  <guideline angle="0" x="0" y="-18"/>
</glyph>
<glyph name="uni0971" format="2">
  <advance width="537"/>
  <unicode hex="0971"/>
  <outline>
    <contour>
      <point x="269" y="999" type="curve" smooth="yes"/>
      <point x="160" y="999"/>
      <point x="109" y="1064"/>
      <point x="109" y="1176" type="curve" smooth="yes"/>
      <point x="109" y="1189" type="line" smooth="yes"/>
      <point x="109" y="1301"/>
      <point x="160" y="1367"/>
      <point x="269" y="1367" type="curve" smooth="yes"/>
      <point x="378" y="1367"/>
      <point x="429" y="1301"/>
      <point x="429" y="1189" type="curve" smooth="yes"/>
      <point x="429" y="1176" type="line" smooth="yes"/>
      <point x="429" y="1064"/>
      <point x="376" y="999"/>
    </contour>
  </outline>
</glyph>
<glyph name="uni0975" format="2">
  <advance width="1653"/>
  <unicode hex="0975"/>
  <anchor x="1518" y="1255" name="top"/>
  <outline>
    <contour>
      <point x="707" y="1578" type="curve" smooth="yes"/>
      <point x="707" y="1611"/>
      <point x="713" y="1638"/>
      <point x="725" y="1663" type="curve"/>
      <point x="939" y="1663" type="line"/>
      <point x="939" y="1652" type="line" smooth="yes"/>
      <point x="939" y="1589"/>
      <point x="972.238" y="1561.47"/>
      <point x="1075" y="1547" type="curve" smooth="yes"/>
      <point x="1160.53" y="1534.95" type="line" smooth="yes"/>
      <point x="1266.81" y="1519.98"/>
      <point x="1312" y="1494"/>
      <point x="1355" y="1430" type="curve"/>
      <point x="1360" y="1432" type="line"/>
      <point x="1353" y="1508"/>
      <point x="1321.66" y="1552.16"/>
      <point x="1212.98" y="1592.97" type="curve" smooth="yes"/>
      <point x="1132.24" y="1623.29" type="line" smooth="yes"/>
      <point x="992.14" y="1675.9"/>
      <point x="946" y="1725"/>
      <point x="946" y="1818" type="curve" smooth="yes"/>
      <point x="946" y="1850"/>
      <point x="954" y="1881"/>
      <point x="967" y="1906" type="curve"/>
      <point x="1200" y="1904" type="line"/>
      <point x="1200" y="1888" type="line" smooth="yes"/>
      <point x="1200" y="1829"/>
      <point x="1210.97" y="1803.88"/>
      <point x="1303.24" y="1761.19" type="curve" smooth="yes"/>
      <point x="1370.24" y="1730.19" type="line" smooth="yes"/>
      <point x="1513.03" y="1664.12"/>
      <point x="1551" y="1561"/>
      <point x="1551" y="1384" type="curve" smooth="yes"/>
      <point x="1551" y="1271" type="line"/>
      <point x="1264" y="1271" type="line"/>
      <point x="1264" y="1294" type="line" smooth="yes"/>
      <point x="1264" y="1337"/>
      <point x="1246.04" y="1355.35"/>
      <point x="1100" y="1371" type="curve" smooth="yes"/>
      <point x="988" y="1383" type="line" smooth="yes"/>
      <point x="795.843" y="1403.59"/>
      <point x="707" y="1461"/>
    </contour>
    <contour>
      <point x="1572" y="0" type="line"/>
      <point x="1268" y="0" type="line"/>
      <point x="1268" y="1156" type="line"/>
      <point x="1572" y="1156" type="line"/>
    </contour>
    <contour>
      <point x="1695" y="1067" type="line"/>
      <point x="1159" y="1067" type="line"/>
      <point x="1145" y="1308" type="line"/>
      <point x="1681" y="1308" type="line"/>
    </contour>
    <contour>
      <point x="1229" y="1067" type="line"/>
      <point x="711" y="1067" type="line"/>
      <point x="697" y="1308" type="line"/>
      <point x="1215" y="1308" type="line"/>
    </contour>
    <contour>
      <point x="802" y="0" type="line"/>
      <point x="802" y="1159" type="line"/>
      <point x="1106" y="1159" type="line"/>
      <point x="1106" y="0" type="line"/>
    </contour>
    <contour>
      <point x="33" y="339" type="line"/>
      <point x="92" y="302"/>
      <point x="166" y="274"/>
      <point x="247" y="274" type="curve" smooth="yes"/>
      <point x="335" y="274"/>
      <point x="370" y="313"/>
      <point x="370" y="407" type="curve" smooth="yes"/>
      <point x="370" y="414" type="line" smooth="yes"/>
      <point x="370" y="497"/>
      <point x="333" y="537"/>
      <point x="230" y="543" type="curve" smooth="yes"/>
      <point x="136" y="548" type="line"/>
      <point x="136" y="804" type="line"/>
      <point x="219" y="811" type="line" smooth="yes"/>
      <point x="316" y="821"/>
      <point x="350" y="856"/>
      <point x="350" y="933" type="curve" smooth="yes"/>
      <point x="350" y="951" type="line" smooth="yes"/>
      <point x="350" y="1032"/>
      <point x="320" y="1064"/>
      <point x="241" y="1064" type="curve" smooth="yes"/>
      <point x="171" y="1064"/>
      <point x="114" y="1043"/>
      <point x="64" y="1016" type="curve"/>
      <point x="74" y="1279" type="line"/>
      <point x="138" y="1308"/>
      <point x="217" y="1327"/>
      <point x="316" y="1327" type="curve" smooth="yes"/>
      <point x="539" y="1327"/>
      <point x="644" y="1218"/>
      <point x="644" y="1012" type="curve" smooth="yes"/>
      <point x="644" y="972" type="line" smooth="yes"/>
      <point x="644" y="824"/>
      <point x="578" y="743"/>
      <point x="405" y="730" type="curve"/>
      <point x="405" y="615" type="line"/>
      <point x="611" y="550"/>
      <point x="666" y="456"/>
      <point x="666" y="322" type="curve" smooth="yes"/>
      <point x="666" y="305" type="line" smooth="yes"/>
      <point x="666" y="121"/>
      <point x="553" y="11"/>
      <point x="316" y="11" type="curve" smooth="yes"/>
      <point x="201" y="11"/>
      <point x="112" y="35"/>
      <point x="44" y="75" type="curve"/>
    </contour>
    <contour>
      <point x="392" y="758" type="line"/>
      <point x="534" y="765" type="line"/>
      <point x="535" y="756" type="line"/>
      <point x="591" y="769"/>
      <point x="657" y="778"/>
      <point x="745" y="778" type="curve" smooth="yes"/>
      <point x="891" y="778" type="line"/>
      <point x="891" y="528" type="line"/>
      <point x="749" y="528" type="line" smooth="yes"/>
      <point x="648" y="528"/>
      <point x="587" y="544"/>
      <point x="535" y="566" type="curve"/>
      <point x="528" y="552" type="line"/>
      <point x="392" y="569" type="line"/>
    </contour>
  </outline>
  <guideline angle="90" x="1572" y="0"/>
</glyph>
<glyph name="uni0978" format="2">
  <advance width="939"/>
  <unicode hex="0978"/>
  <anchor x="623" y="47" name="bottom"/>
  <anchor x="592" y="37" name="bottom2"/>
  <anchor x="814" y="37" name="bottom3"/>
  <anchor x="463" y="55" name="bottom5"/>
  <anchor x="642" y="1255" name="top"/>
  <outline>
    <contour>
      <point x="985" y="1067" type="line"/>
      <point x="-28" y="1067" type="line"/>
      <point x="-42" y="1308" type="line"/>
      <point x="971" y="1308" type="line"/>
    </contour>
    <contour>
      <point x="432" y="1159" type="line"/>
      <point x="432" y="592" type="line"/>
      <point x="128" y="592" type="line"/>
      <point x="128" y="1159" type="line"/>
    </contour>
    <contour>
      <point x="181" y="193" type="line"/>
      <point x="100" y="320"/>
      <point x="45" y="480"/>
      <point x="36" y="657" type="curve"/>
      <point x="131" y="712" type="line"/>
      <point x="428" y="712" type="line"/>
      <point x="428" y="193" type="line"/>
    </contour>
    <contour>
      <point x="332" y="764" type="line"/>
      <point x="401.846" y="795.333"/>
      <point x="470.601" y="811"/>
      <point x="559" y="811" type="curve" smooth="yes"/>
      <point x="775.119" y="811"/>
      <point x="889" y="688.652"/>
      <point x="889" y="458.304" type="curve" smooth="yes"/>
      <point x="889" y="315.594"/>
      <point x="853" y="172.946"/>
      <point x="767" y="0" type="curve"/>
      <point x="441" y="0" type="line"/>
      <point x="441" y="1.6265" type="line"/>
      <point x="547" y="182.424"/>
      <point x="580" y="304.974"/>
      <point x="580" y="432.656" type="curve" smooth="yes"/>
      <point x="580" y="508.465"/>
      <point x="553.533" y="545"/>
      <point x="492" y="545" type="curve" smooth="yes"/>
      <point x="454" y="545"/>
      <point x="425.779" y="532.211"/>
      <point x="404" y="512" type="curve"/>
    </contour>
  </outline>
</glyph>
<glyph name="uni097B" format="2">
  <advance width="973"/>
  <unicode hex="097B"/>
  <anchor x="740" y="-254" name="bottom"/>
  <anchor x="730" y="-137" name="bottom2"/>
  <anchor x="892" y="37" name="bottom3"/>
  <anchor x="740" y="55" name="bottom5"/>
  <anchor x="740" y="1255" name="top"/>
  <outline>
    <contour>
      <point x="588" y="55" type="line"/>
      <point x="588" y="191" type="line"/>
      <point x="892" y="191" type="line"/>
      <point x="892" y="-173" type="line"/>
      <point x="75" y="-173" type="line"/>
      <point x="75" y="55" type="line"/>
    </contour>
    <contour>
      <point x="892" y="1156" type="line"/>
      <point x="892" y="0" type="line"/>
      <point x="588" y="0" type="line"/>
      <point x="588" y="1156" type="line"/>
    </contour>
    <contour>
      <point x="565" y="1067" type="line"/>
      <point x="551" y="1308" type="line"/>
      <point x="1001" y="1308" type="line"/>
      <point x="1015" y="1067" type="line"/>
    </contour>
    <contour>
      <point x="-28" y="1067" type="line"/>
      <point x="-42" y="1308" type="line"/>
      <point x="1001" y="1308" type="line"/>
      <point x="1015" y="1067" type="line"/>
    </contour>
    <contour>
      <point x="421" y="1095" type="line"/>
      <point x="450" y="1038"/>
      <point x="457" y="957"/>
      <point x="457" y="795" type="curve" smooth="yes"/>
      <point x="457" y="673" type="line" smooth="yes"/>
      <point x="457" y="351"/>
      <point x="360.563" y="243"/>
      <point x="160" y="243" type="curve" smooth="yes"/>
      <point x="118.056" y="243"/>
      <point x="80.7536" y="247.747"/>
      <point x="47" y="258" type="curve"/>
      <point x="31" y="538" type="line"/>
      <point x="41.6652" y="536.433"/>
      <point x="55.6677" y="534"/>
      <point x="70" y="534" type="curve" smooth="yes"/>
      <point x="131.28" y="534"/>
      <point x="153" y="561.9"/>
      <point x="153" y="714" type="curve" smooth="yes"/>
      <point x="153" y="830" type="line" smooth="yes"/>
      <point x="153" y="960"/>
      <point x="147" y="1040"/>
      <point x="118" y="1095" type="curve"/>
    </contour>
  </outline>
  <guideline angle="0" x="0" y="-173"/>
  <guideline angle="90" x="50" y="0"/>
  <guideline angle="90" x="740" y="0"/>
  <guideline angle="0" x="0" y="37"/>
  <guideline angle="0" x="0" y="1255"/>
  <guideline angle="90" x="730" y="0"/>
  <guideline angle="90" x="892" y="0"/>
  <guideline angle="0" x="0" y="55"/>
</glyph>
<glyph name="uni097D" format="2">
  <advance width="762"/>
  <unicode hex="097D"/>
  <outline>
    <contour>
      <point x="103" y="563" type="line"/>
      <point x="178" y="563" type="line" smooth="yes"/>
      <point x="331" y="563"/>
      <point x="374" y="622"/>
      <point x="374" y="780" type="curve" smooth="yes"/>
      <point x="374" y="870" type="line" smooth="yes"/>
      <point x="374" y="1010"/>
      <point x="335" y="1060"/>
      <point x="241" y="1060" type="curve" smooth="yes"/>
      <point x="180" y="1060"/>
      <point x="123" y="1036"/>
      <point x="64" y="1005" type="curve"/>
      <point x="79" y="1275" type="line"/>
      <point x="141" y="1305"/>
      <point x="217" y="1327"/>
      <point x="315" y="1327" type="curve" smooth="yes"/>
      <point x="552" y="1327"/>
      <point x="677" y="1194"/>
      <point x="677" y="881" type="curve" smooth="yes"/>
      <point x="677" y="765" type="line" smooth="yes"/>
      <point x="677" y="434"/>
      <point x="550" y="329"/>
      <point x="230" y="329" type="curve" smooth="yes"/>
      <point x="158" y="329" type="line"/>
    </contour>
    <contour>
      <point x="397" y="532" type="line"/>
      <point x="397" y="0" type="line"/>
      <point x="103" y="0" type="line"/>
      <point x="103" y="563" type="line"/>
    </contour>
  </outline>
  <guideline angle="0" x="0" y="711"/>
</glyph>
<glyph name="quotedblbase" format="2">
  <advance width="800"/>
  <unicode hex="201E"/>
  <outline>
    <contour>
      <point x="439" y="348" type="line"/>
      <point x="443" y="294"/>
      <point x="445" y="258"/>
      <point x="445" y="210" type="curve" smooth="yes"/>
      <point x="445" y="57"/>
      <point x="412" y="-57"/>
      <point x="362" y="-158" type="curve"/>
      <point x="566" y="-208" type="line"/>
      <point x="682" y="-81"/>
      <point x="730" y="57"/>
      <point x="730" y="223" type="curve" smooth="yes"/>
      <point x="730" y="272"/>
      <point x="726" y="309"/>
      <point x="721" y="348" type="curve"/>
    </contour>
    <contour>
      <point x="59" y="348" type="line"/>
      <point x="63" y="294"/>
      <point x="65" y="258"/>
      <point x="65" y="210" type="curve" smooth="yes"/>
      <point x="65" y="57"/>
      <point x="32" y="-57"/>
      <point x="-18" y="-158" type="curve"/>
      <point x="186" y="-208" type="line"/>
      <point x="302" y="-81"/>
      <point x="350" y="57"/>
      <point x="350" y="223" type="curve" smooth="yes"/>
      <point x="350" y="272"/>
      <point x="346" y="309"/>
      <point x="341" y="348" type="curve"/>
    </contour>
  </outline>
</glyph>
<glyph name="ellipsis" format="2">
  <advance width="1188"/>
  <unicode hex="2026"/>
  <outline>
    <contour>
      <point x="988" y="-26" type="curve" smooth="yes"/>
      <point x="1093" y="-26"/>
      <point x="1148" y="40"/>
      <point x="1148" y="156" type="curve" smooth="yes"/>
      <point x="1148" y="173" type="line" smooth="yes"/>
      <point x="1148" y="287"/>
      <point x="1093" y="355"/>
      <point x="988" y="355" type="curve" smooth="yes"/>
      <point x="879" y="355"/>
      <point x="828" y="287"/>
      <point x="828" y="173" type="curve" smooth="yes"/>
      <point x="828" y="156" type="line" smooth="yes"/>
      <point x="828" y="40"/>
      <point x="879" y="-26"/>
    </contour>
    <contour>
      <point x="594" y="-26" type="curve" smooth="yes"/>
      <point x="699" y="-26"/>
      <point x="754" y="40"/>
      <point x="754" y="156" type="curve" smooth="yes"/>
      <point x="754" y="173" type="line" smooth="yes"/>
      <point x="754" y="287"/>
      <point x="699" y="355"/>
      <point x="594" y="355" type="curve" smooth="yes"/>
      <point x="485" y="355"/>
      <point x="434" y="287"/>
      <point x="434" y="173" type="curve" smooth="yes"/>
      <point x="434" y="156" type="line" smooth="yes"/>
      <point x="434" y="40"/>
      <point x="485" y="-26"/>
    </contour>
    <contour>
      <point x="200" y="-26" type="curve" smooth="yes"/>
      <point x="305" y="-26"/>
      <point x="360" y="40"/>
      <point x="360" y="156" type="curve" smooth="yes"/>
      <point x="360" y="173" type="line" smooth="yes"/>
      <point x="360" y="287"/>
      <point x="305" y="355"/>
      <point x="200" y="355" type="curve" smooth="yes"/>
      <point x="91" y="355"/>
      <point x="40" y="287"/>
      <point x="40" y="173" type="curve" smooth="yes"/>
      <point x="40" y="156" type="line" smooth="yes"/>
      <point x="40" y="40"/>
      <point x="91" y="-26"/>
    </contour>
  </outline>
</glyph>
<glyph name="seveninferior" format="2">
  <advance width="402"/>
  <unicode hex="2087"/>
  <outline>
    <contour>
      <point x="241" y="-206" type="line"/>
      <point x="382" y="302" type="line"/>
      <point x="382" y="478" type="line"/>
      <point x="15" y="478" type="line"/>
      <point x="15" y="303" type="line"/>
      <point x="191" y="303" type="line"/>
      <point x="43" y="-206" type="line"/>
    </contour>
  </outline>
</glyph>
<glyph name="divisionslash" format="2">
  <advance width="612"/>
  <unicode hex="2215"/>
  <outline>
    <contour>
      <point x="271" y="-239" type="line"/>
      <point x="612" y="1352" type="line"/>
      <point x="341" y="1352" type="line"/>
      <point x="0" y="-239" type="line"/>
    </contour>
  </outline>
</glyph>
<glyph name="uniA8FB" format="2">
  <advance width="621"/>
  <unicode hex="A8FB"/>
  <outline>
    <contour>
      <point x="663" y="1067" type="line"/>
      <point x="-28" y="1067" type="line"/>
      <point x="-42" y="1308" type="line"/>
      <point x="649" y="1308" type="line"/>
    </contour>
  </outline>
</glyph>
<glyph name="fl" format="2">
  <advance width="1024"/>
  <unicode hex="FB02"/>
  <anchor x="803" y="0" name="bottom"/>
  <anchor x="512" y="0" name="caret_1"/>
  <anchor x="803" y="667" name="center"/>
  <anchor x="803" y="1324" name="top"/>
  <anchor x="1029" y="1324" name="topright"/>
  <outline>
    <contour>
      <point x="341" y="1356" type="curve" smooth="yes"/>
      <point x="163" y="1356"/>
      <point x="73" y="1284"/>
      <point x="73" y="1159" type="curve" smooth="yes"/>
      <point x="73" y="1155" type="line" smooth="yes"/>
      <point x="73" y="1073"/>
      <point x="125" y="1017"/>
      <point x="195" y="994" type="curve"/>
      <point x="195" y="962" type="line"/>
      <point x="393" y="962" type="line"/>
      <point x="381" y="983"/>
      <point x="373" y="999"/>
      <point x="373" y="1027" type="curve"/>
      <point x="373" y="1029" type="line"/>
      <point x="373" y="1080"/>
      <point x="404" y="1106"/>
      <point x="471" y="1106" type="curve" smooth="yes"/>
      <point x="507" y="1106"/>
      <point x="539" y="1100"/>
      <point x="563" y="1093" type="curve"/>
      <point x="542" y="1320" type="line"/>
      <point x="497" y="1338"/>
      <point x="428" y="1356"/>
    </contour>
    <contour>
      <point x="404" y="0" type="line"/>
      <point x="404" y="902" type="line"/>
      <point x="99" y="902" type="line"/>
      <point x="99" y="0" type="line"/>
    </contour>
    <contour>
      <point x="546" y="736" type="line"/>
      <point x="565" y="986" type="line"/>
      <point x="357" y="986" type="line"/>
      <point x="239" y="984" type="line"/>
      <point x="14" y="986" type="line"/>
      <point x="14" y="736" type="line"/>
    </contour>
    <contour>
      <point x="958" y="0" type="line"/>
      <point x="958" y="1324" type="line"/>
      <point x="647" y="1324" type="line"/>
      <point x="647" y="0" type="line"/>
    </contour>
  </outline>
</glyph>
<glyph name="BaBha.dv" format="2">
  <advance width="1507"/>
  <anchor x="1274" y="37" name="bottom"/>
  <anchor x="1264" y="37" name="bottom2"/>
  <anchor x="1426" y="37" name="bottom3"/>
  <anchor x="1274" y="55" name="bottom5"/>
  <anchor x="1274" y="1255" name="top"/>
  <outline>
    <contour>
      <point x="-27" y="1067" type="line"/>
      <point x="-41" y="1308" type="line"/>
      <point x="533" y="1308" type="line"/>
      <point x="547" y="1067" type="line"/>
    </contour>
    <contour>
      <point x="273" y="723" type="line"/>
      <point x="391" y="802" type="line"/>
      <point x="623" y="372" type="line"/>
      <point x="513" y="287" type="line"/>
    </contour>
    <contour>
      <point x="54" y="484" type="curve" smooth="yes"/>
      <point x="54" y="574" type="line" smooth="yes"/>
      <point x="54" y="850"/>
      <point x="176" y="966"/>
      <point x="382" y="966" type="curve" smooth="yes"/>
      <point x="435" y="966"/>
      <point x="470" y="960"/>
      <point x="501" y="949" type="curve"/>
      <point x="520" y="734" type="line"/>
      <point x="498" y="738"/>
      <point x="476" y="740"/>
      <point x="446" y="740" type="curve" smooth="yes"/>
      <point x="356" y="740"/>
      <point x="321" y="690"/>
      <point x="321" y="572" type="curve" smooth="yes"/>
      <point x="321" y="499" type="line" smooth="yes"/>
      <point x="321" y="374"/>
      <point x="365" y="328"/>
      <point x="443" y="328" type="curve" smooth="yes"/>
      <point x="530" y="328"/>
      <point x="573" y="372"/>
      <point x="584" y="432" type="curve"/>
      <point x="647" y="261" type="line"/>
      <point x="614" y="261" type="line"/>
      <point x="589" y="164"/>
      <point x="518" y="94"/>
      <point x="377" y="94" type="curve" smooth="yes"/>
      <point x="162" y="94"/>
      <point x="54" y="202"/>
    </contour>
    <contour>
      <point x="1426" y="1156" type="line"/>
      <point x="1426" y="0" type="line"/>
      <point x="1122" y="0" type="line"/>
      <point x="1122" y="1156" type="line"/>
    </contour>
    <contour>
      <point x="1099" y="1067" type="line"/>
      <point x="1085" y="1308" type="line"/>
      <point x="1535" y="1308" type="line"/>
      <point x="1549" y="1067" type="line"/>
    </contour>
    <contour>
      <point x="1054" y="1067" type="line"/>
      <point x="1040" y="1308" type="line"/>
      <point x="1435" y="1308" type="line"/>
      <point x="1449" y="1067" type="line"/>
    </contour>
    <contour>
      <point x="708" y="415" type="line"/>
      <point x="708" y="673" type="line"/>
      <point x="1242" y="673" type="line"/>
      <point x="1242" y="415" type="line"/>
    </contour>
    <contour>
      <point x="695" y="127" type="line"/>
      <point x="613" y="250"/>
      <point x="559" y="410"/>
      <point x="550" y="587" type="curve"/>
      <point x="642" y="650" type="line"/>
      <point x="942" y="650" type="line"/>
      <point x="942" y="127" type="line"/>
    </contour>
    <contour>
      <point x="642" y="535" type="line"/>
      <point x="642" y="966" type="line" smooth="yes"/>
      <point x="642" y="1043"/>
      <point x="624" y="1067"/>
      <point x="559" y="1067" type="curve" smooth="yes"/>
      <point x="493" y="1067" type="line"/>
      <point x="479" y="1308" type="line"/>
      <point x="602" y="1308" type="line" smooth="yes"/>
      <point x="857" y="1308"/>
      <point x="942" y="1211"/>
      <point x="942" y="970" type="curve" smooth="yes"/>
      <point x="942" y="535" type="line"/>
    </contour>
  </outline>
  <guideline angle="0" x="0" y="370"/>
  <guideline angle="90" x="1274" y="0"/>
  <guideline angle="0" x="0" y="37"/>
  <guideline angle="0" x="0" y="1255"/>
  <guideline angle="90" x="1264" y="0"/>
  <guideline angle="90" x="1426" y="0"/>
  <guideline angle="0" x="0" y="55"/>
</glyph>
<glyph name="BaDha.dv" format="2">
  <advance width="1631"/>
  <anchor x="1398" y="37" name="bottom"/>
  <anchor x="1388" y="37" name="bottom2"/>
  <anchor x="1550" y="37" name="bottom3"/>
  <anchor x="1398" y="55" name="bottom5"/>
  <anchor x="1398" y="1255" name="top"/>
  <outline>
    <contour>
      <point x="-27" y="1067" type="line"/>
      <point x="-41" y="1308" type="line"/>
      <point x="490" y="1308" type="line"/>
      <point x="504" y="1067" type="line"/>
    </contour>
    <contour>
      <point x="273" y="723" type="line"/>
      <point x="391" y="802" type="line"/>
      <point x="623" y="372" type="line"/>
      <point x="513" y="287" type="line"/>
    </contour>
    <contour>
      <point x="54" y="484" type="curve" smooth="yes"/>
      <point x="54" y="574" type="line" smooth="yes"/>
      <point x="54" y="850"/>
      <point x="176" y="966"/>
      <point x="382" y="966" type="curve" smooth="yes"/>
      <point x="416" y="966"/>
      <point x="443" y="963"/>
      <point x="468" y="956" type="curve"/>
      <point x="488" y="738" type="line"/>
      <point x="476" y="739"/>
      <point x="463" y="740"/>
      <point x="446" y="740" type="curve" smooth="yes"/>
      <point x="356" y="740"/>
      <point x="321" y="690"/>
      <point x="321" y="572" type="curve" smooth="yes"/>
      <point x="321" y="499" type="line" smooth="yes"/>
      <point x="321" y="374"/>
      <point x="365" y="328"/>
      <point x="443" y="328" type="curve" smooth="yes"/>
      <point x="531" y="328"/>
      <point x="573" y="362"/>
      <point x="584" y="432" type="curve"/>
      <point x="605" y="256" type="line"/>
      <point x="586" y="256" type="line"/>
      <point x="558" y="164"/>
      <point x="496" y="94"/>
      <point x="354" y="94" type="curve" smooth="yes"/>
      <point x="158" y="94"/>
      <point x="54" y="204"/>
    </contour>
    <contour>
      <point x="1550" y="1156" type="line"/>
      <point x="1550" y="0" type="line"/>
      <point x="1246" y="0" type="line"/>
      <point x="1246" y="1156" type="line"/>
    </contour>
    <contour>
      <point x="1223" y="1067" type="line"/>
      <point x="1209" y="1308" type="line"/>
      <point x="1659" y="1308" type="line"/>
      <point x="1673" y="1067" type="line"/>
    </contour>
    <contour>
      <point x="1196" y="1067" type="line"/>
      <point x="1182" y="1308" type="line"/>
      <point x="1659" y="1308" type="line"/>
      <point x="1673" y="1067" type="line"/>
    </contour>
    <contour>
      <point x="560" y="405" type="line" smooth="yes"/>
      <point x="560" y="550"/>
      <point x="639" y="635"/>
      <point x="808" y="648" type="curve"/>
      <point x="808" y="655" type="line"/>
      <point x="621" y="681"/>
      <point x="536" y="776"/>
      <point x="536" y="955" type="curve" smooth="yes"/>
      <point x="536" y="992" type="line" smooth="yes"/>
      <point x="536" y="1231"/>
      <point x="643" y="1336"/>
      <point x="851" y="1336" type="curve" smooth="yes"/>
      <point x="1055" y="1336"/>
      <point x="1152" y="1238"/>
      <point x="1152" y="1047" type="curve" smooth="yes"/>
      <point x="1152" y="981"/>
      <point x="1143" y="920"/>
      <point x="1128" y="867" type="curve"/>
      <point x="911" y="867" type="line"/>
      <point x="911" y="997" type="line" smooth="yes"/>
      <point x="911" y="1073"/>
      <point x="900" y="1091"/>
      <point x="863" y="1091" type="curve" smooth="yes"/>
      <point x="827" y="1091"/>
      <point x="812" y="1069"/>
      <point x="812" y="995" type="curve" smooth="yes"/>
      <point x="812" y="946" type="line" smooth="yes"/>
      <point x="812" y="819"/>
      <point x="865" y="782"/>
      <point x="981" y="775" type="curve" smooth="yes"/>
      <point x="1117" y="767" type="line"/>
      <point x="1117" y="528" type="line"/>
      <point x="985" y="524" type="line" smooth="yes"/>
      <point x="904" y="522"/>
      <point x="864" y="501"/>
      <point x="864" y="453" type="curve" smooth="yes"/>
      <point x="864" y="446" type="line" smooth="yes"/>
      <point x="864" y="395"/>
      <point x="904" y="370"/>
      <point x="1044" y="370" type="curve" smooth="yes"/>
      <point x="1167" y="370"/>
      <point x="1237" y="407"/>
      <point x="1254" y="480" type="curve"/>
      <point x="1272" y="298" type="line"/>
      <point x="1236" y="298" type="line"/>
      <point x="1207" y="177"/>
      <point x="1116" y="105"/>
      <point x="921" y="105" type="curve" smooth="yes"/>
      <point x="698" y="105"/>
      <point x="560" y="208"/>
      <point x="560" y="392" type="curve" smooth="yes"/>
    </contour>
  </outline>
  <guideline angle="90" x="296" y="0"/>
  <guideline angle="90" x="1196" y="0"/>
  <guideline angle="90" x="1398" y="0"/>
  <guideline angle="0" x="0" y="37"/>
  <guideline angle="0" x="0" y="1255"/>
  <guideline angle="90" x="1388" y="0"/>
  <guideline angle="90" x="1550" y="0"/>
  <guideline angle="0" x="0" y="55"/>
</glyph>
<glyph name="BaDhaVa.dv" format="2">
  <advance width="2123"/>
  <anchor x="1890" y="37" name="bottom"/>
  <anchor x="1880" y="37" name="bottom2"/>
  <anchor x="2042" y="37" name="bottom3"/>
  <anchor x="1890" y="55" name="bottom5"/>
  <anchor x="1890" y="1255" name="top"/>
  <outline>
    <contour>
      <point x="-27" y="1067" type="line"/>
      <point x="-41" y="1308" type="line"/>
      <point x="490" y="1308" type="line"/>
      <point x="504" y="1067" type="line"/>
    </contour>
    <contour>
      <point x="273" y="723" type="line"/>
      <point x="391" y="802" type="line"/>
      <point x="623" y="372" type="line"/>
      <point x="513" y="287" type="line"/>
    </contour>
    <contour>
      <point x="54" y="484" type="curve" smooth="yes"/>
      <point x="54" y="574" type="line" smooth="yes"/>
      <point x="54" y="850"/>
      <point x="176" y="966"/>
      <point x="382" y="966" type="curve" smooth="yes"/>
      <point x="416" y="966"/>
      <point x="443" y="963"/>
      <point x="468" y="956" type="curve"/>
      <point x="488" y="738" type="line"/>
      <point x="476" y="739"/>
      <point x="463" y="740"/>
      <point x="446" y="740" type="curve" smooth="yes"/>
      <point x="356" y="740"/>
      <point x="321" y="690"/>
      <point x="321" y="572" type="curve" smooth="yes"/>
      <point x="321" y="499" type="line" smooth="yes"/>
      <point x="321" y="374"/>
      <point x="365" y="328"/>
      <point x="443" y="328" type="curve" smooth="yes"/>
      <point x="531" y="328"/>
      <point x="573" y="362"/>
      <point x="584" y="432" type="curve"/>
      <point x="605" y="256" type="line"/>
      <point x="582" y="256" type="line"/>
      <point x="553" y="162"/>
      <point x="494" y="94"/>
      <point x="353" y="94" type="curve" smooth="yes"/>
      <point x="156" y="94"/>
      <point x="54" y="204"/>
    </contour>
    <contour>
      <point x="2042" y="1156" type="line"/>
      <point x="2042" y="0" type="line"/>
      <point x="1738" y="0" type="line"/>
      <point x="1738" y="1156" type="line"/>
    </contour>
    <contour>
      <point x="1715" y="1067" type="line"/>
      <point x="1701" y="1308" type="line"/>
      <point x="2151" y="1308" type="line"/>
      <point x="2165" y="1067" type="line"/>
    </contour>
    <contour>
      <point x="1193" y="1067" type="line"/>
      <point x="1179" y="1308" type="line"/>
      <point x="2050" y="1308" type="line"/>
      <point x="2065" y="1067" type="line"/>
    </contour>
    <contour>
      <point x="1243" y="478" type="curve" smooth="yes"/>
      <point x="1243" y="583" type="line" smooth="yes"/>
      <point x="1243" y="846"/>
      <point x="1339" y="962"/>
      <point x="1549" y="962" type="curve" smooth="yes"/>
      <point x="1595" y="962"/>
      <point x="1628" y="957"/>
      <point x="1659" y="948" type="curve"/>
      <point x="1677" y="694" type="line"/>
      <point x="1672" y="696"/>
      <point x="1657" y="697"/>
      <point x="1644" y="697" type="curve" smooth="yes"/>
      <point x="1576" y="697"/>
      <point x="1547" y="655"/>
      <point x="1547" y="563" type="curve" smooth="yes"/>
      <point x="1547" y="502" type="line" smooth="yes"/>
      <point x="1547" y="410"/>
      <point x="1576" y="370"/>
      <point x="1642" y="370" type="curve" smooth="yes"/>
      <point x="1701" y="370"/>
      <point x="1734" y="405"/>
      <point x="1742" y="473" type="curve"/>
      <point x="1762" y="285" type="line"/>
      <point x="1727" y="285" type="line"/>
      <point x="1703" y="173"/>
      <point x="1642" y="105"/>
      <point x="1503" y="105" type="curve" smooth="yes"/>
      <point x="1326" y="105"/>
      <point x="1243" y="221"/>
    </contour>
    <contour>
      <point x="557" y="405" type="line" smooth="yes"/>
      <point x="557" y="550"/>
      <point x="636" y="635"/>
      <point x="805" y="648" type="curve"/>
      <point x="805" y="655" type="line"/>
      <point x="618" y="681"/>
      <point x="533" y="776"/>
      <point x="533" y="955" type="curve" smooth="yes"/>
      <point x="533" y="992" type="line" smooth="yes"/>
      <point x="533" y="1231"/>
      <point x="640" y="1336"/>
      <point x="848" y="1336" type="curve" smooth="yes"/>
      <point x="1052" y="1336"/>
      <point x="1149" y="1238"/>
      <point x="1149" y="1047" type="curve" smooth="yes"/>
      <point x="1149" y="981"/>
      <point x="1140" y="920"/>
      <point x="1125" y="867" type="curve"/>
      <point x="908" y="867" type="line"/>
      <point x="908" y="997" type="line" smooth="yes"/>
      <point x="908" y="1073"/>
      <point x="897" y="1091"/>
      <point x="860" y="1091" type="curve" smooth="yes"/>
      <point x="824" y="1091"/>
      <point x="809" y="1069"/>
      <point x="809" y="995" type="curve" smooth="yes"/>
      <point x="809" y="946" type="line" smooth="yes"/>
      <point x="809" y="819"/>
      <point x="862" y="782"/>
      <point x="978" y="775" type="curve" smooth="yes"/>
      <point x="1114" y="767" type="line"/>
      <point x="1114" y="528" type="line"/>
      <point x="982" y="524" type="line" smooth="yes"/>
      <point x="901" y="522"/>
      <point x="861" y="501"/>
      <point x="861" y="453" type="curve" smooth="yes"/>
      <point x="861" y="446" type="line" smooth="yes"/>
      <point x="861" y="395"/>
      <point x="901" y="370"/>
      <point x="1041" y="370" type="curve" smooth="yes"/>
      <point x="1164" y="370"/>
      <point x="1234" y="407"/>
      <point x="1251" y="480" type="curve"/>
      <point x="1290" y="298" type="line"/>
      <point x="1254" y="298" type="line"/>
      <point x="1218" y="172"/>
      <point x="1123" y="105"/>
      <point x="929" y="105" type="curve" smooth="yes"/>
      <point x="692" y="105"/>
      <point x="557" y="208"/>
      <point x="557" y="392" type="curve" smooth="yes"/>
    </contour>
  </outline>
  <guideline angle="90" x="322" y="0"/>
  <guideline angle="90" x="1890" y="0"/>
  <guideline angle="0" x="0" y="37"/>
  <guideline angle="0" x="0" y="1255"/>
  <guideline angle="90" x="1880" y="0"/>
  <guideline angle="90" x="2042" y="0"/>
  <guideline angle="0" x="0" y="55"/>
</glyph>
<glyph name="BaNa.dv" format="2">
  <advance width="964"/>
  <anchor x="731" y="-18" name="bottom"/>
  <anchor x="721" y="-18" name="bottom2"/>
  <anchor x="883" y="-18" name="bottom3"/>
  <anchor x="731" y="1255" name="top"/>
  <outline>
    <contour>
      <point x="-28" y="1067" type="line"/>
      <point x="-42" y="1308" type="line"/>
      <point x="992" y="1308" type="line"/>
      <point x="1006" y="1067" type="line"/>
    </contour>
    <contour>
      <point x="883" y="1108" type="line"/>
      <point x="883" y="908" type="line"/>
      <point x="579" y="908" type="line"/>
      <point x="579" y="1108" type="line"/>
    </contour>
    <contour>
      <point x="272" y="723" type="line"/>
      <point x="390" y="802" type="line"/>
      <point x="622" y="375" type="line"/>
      <point x="512" y="291" type="line"/>
    </contour>
    <contour>
      <point x="377" y="250" type="line"/>
      <point x="408" y="149" type="line"/>
      <point x="392" y="144"/>
      <point x="370" y="138"/>
      <point x="337" y="138" type="curve" smooth="yes"/>
      <point x="158" y="138"/>
      <point x="53" y="241"/>
      <point x="53" y="497" type="curve" smooth="yes"/>
      <point x="53" y="574" type="line" smooth="yes"/>
      <point x="53" y="850"/>
      <point x="175" y="966"/>
      <point x="381" y="966" type="curve" smooth="yes"/>
      <point x="434" y="966"/>
      <point x="469" y="960"/>
      <point x="500" y="949" type="curve"/>
      <point x="519" y="734" type="line"/>
      <point x="497" y="738"/>
      <point x="475" y="740"/>
      <point x="445" y="740" type="curve" smooth="yes"/>
      <point x="355" y="740"/>
      <point x="320" y="690"/>
      <point x="320" y="572" type="curve" smooth="yes"/>
      <point x="320" y="512" type="line" smooth="yes"/>
      <point x="320" y="386"/>
      <point x="364" y="344"/>
      <point x="451" y="344" type="curve" smooth="yes"/>
      <point x="504" y="344"/>
      <point x="541" y="372"/>
      <point x="567" y="396" type="curve" smooth="yes"/>
      <point x="591" y="418" type="line"/>
      <point x="591" y="145" type="line"/>
      <point x="302" y="-37" type="line"/>
      <point x="353" y="37" type="line"/>
      <point x="454" y="-145" type="line"/>
      <point x="282" y="-252" type="line"/>
      <point x="177" y="-204"/>
      <point x="96" y="-132"/>
      <point x="48" y="-37" type="curve"/>
      <point x="103" y="94" type="line"/>
    </contour>
    <contour>
      <point x="883" y="941" type="line"/>
      <point x="883" y="-55" type="line"/>
      <point x="579" y="-55" type="line"/>
      <point x="579" y="941" type="line"/>
    </contour>
  </outline>
  <guideline angle="90" x="731" y="0"/>
  <guideline angle="90" x="579" y="0"/>
  <guideline angle="90" x="731" y="0"/>
</glyph>
<glyph name="BaRa.dv" format="2">
  <advance width="965"/>
  <anchor x="732" y="17" name="bottom"/>
  <anchor x="722" y="17" name="bottom2"/>
  <anchor x="884" y="17" name="bottom3"/>
  <anchor x="732" y="1255" name="top"/>
  <outline>
    <contour>
      <point x="884" y="976" type="line"/>
      <point x="884" y="-20" type="line"/>
      <point x="580" y="-20" type="line"/>
      <point x="580" y="976" type="line"/>
    </contour>
    <contour>
      <point x="-27" y="1067" type="line"/>
      <point x="-41" y="1308" type="line"/>
      <point x="993" y="1308" type="line"/>
      <point x="1007" y="1067" type="line"/>
    </contour>
    <contour>
      <point x="884" y="1089" type="line"/>
      <point x="884" y="854.5" type="line"/>
      <point x="580" y="854.5" type="line"/>
      <point x="580" y="1089" type="line"/>
    </contour>
    <contour>
      <point x="273" y="723" type="line"/>
      <point x="391" y="802" type="line"/>
      <point x="623" y="375" type="line"/>
      <point x="513" y="291" type="line"/>
    </contour>
    <contour>
      <point x="450" y="340" type="curve" smooth="yes"/>
      <point x="503" y="340"/>
      <point x="540" y="364"/>
      <point x="566" y="386" type="curve" smooth="yes"/>
      <point x="592" y="408" type="line"/>
      <point x="592" y="175" type="line"/>
      <point x="395" y="-59" type="line"/>
      <point x="40" y="-59" type="line"/>
      <point x="40" y="-24" type="line"/>
      <point x="354" y="219" type="line"/>
      <point x="409" y="144" type="line"/>
      <point x="393" y="138"/>
      <point x="371" y="132"/>
      <point x="338" y="132" type="curve" smooth="yes"/>
      <point x="165" y="132"/>
      <point x="54" y="232"/>
      <point x="54" y="480" type="curve" smooth="yes"/>
      <point x="54" y="574" type="line" smooth="yes"/>
      <point x="54" y="850"/>
      <point x="176" y="966"/>
      <point x="382" y="966" type="curve" smooth="yes"/>
      <point x="435" y="966"/>
      <point x="470" y="960"/>
      <point x="501" y="949" type="curve"/>
      <point x="520" y="734" type="line"/>
      <point x="498" y="738"/>
      <point x="476" y="740"/>
      <point x="446" y="740" type="curve" smooth="yes"/>
      <point x="356" y="740"/>
      <point x="321" y="690"/>
      <point x="321" y="572" type="curve" smooth="yes"/>
      <point x="321" y="508" type="line" smooth="yes"/>
      <point x="321" y="383"/>
      <point x="363" y="340"/>
    </contour>
  </outline>
  <guideline angle="90" x="732" y="0"/>
  <guideline angle="90" x="580" y="0"/>
  <guideline angle="90" x="732" y="0"/>
</glyph>
<glyph name="BaSa.dv" format="2">
  <advance width="1639"/>
  <outline>
    <contour>
      <point x="1217" y="686" type="line"/>
      <point x="1375" y="686" type="line"/>
      <point x="1375" y="428" type="line"/>
      <point x="1217" y="428" type="line"/>
    </contour>
    <contour>
      <point x="1558" y="0" type="line"/>
      <point x="1254" y="0" type="line"/>
      <point x="1254" y="1156" type="line"/>
      <point x="1558" y="1156" type="line"/>
    </contour>
    <contour>
      <point x="1681" y="1067" type="line"/>
      <point x="1145" y="1067" type="line"/>
      <point x="1131" y="1308" type="line"/>
      <point x="1667" y="1308" type="line"/>
    </contour>
    <contour>
      <point x="-27" y="1067" type="line"/>
      <point x="-41" y="1308" type="line"/>
      <point x="1253" y="1308" type="line"/>
      <point x="1267" y="1067" type="line"/>
    </contour>
    <contour>
      <point x="273" y="743" type="line"/>
      <point x="391" y="822" type="line"/>
      <point x="619" y="402" type="line"/>
      <point x="509" y="317" type="line"/>
    </contour>
    <contour>
      <point x="1053" y="686" type="line"/>
      <point x="1336" y="686" type="line"/>
      <point x="1336" y="428" type="line"/>
      <point x="1078" y="428" type="line"/>
    </contour>
    <contour>
      <point x="1175" y="0" type="line"/>
      <point x="839" y="0" type="line"/>
      <point x="708" y="421" type="line"/>
      <point x="600" y="434" type="line"/>
      <point x="600" y="694" type="line"/>
      <point x="863" y="605" type="line"/>
      <point x="863" y="537" type="line"/>
      <point x="971" y="466"/>
      <point x="1027" y="379"/>
      <point x="1080" y="245" type="curve" smooth="yes"/>
      <point x="1175" y="6" type="line"/>
    </contour>
    <contour>
      <point x="1067" y="1110" type="line"/>
      <point x="1098" y="1064"/>
      <point x="1113" y="992"/>
      <point x="1113" y="889" type="curve" smooth="yes"/>
      <point x="1113" y="839" type="line" smooth="yes"/>
      <point x="1113" y="580"/>
      <point x="1032" y="466"/>
      <point x="811" y="443" type="curve" smooth="yes"/>
      <point x="762" y="438" type="line"/>
      <point x="600" y="694" type="line"/>
      <point x="652" y="694" type="line" smooth="yes"/>
      <point x="773" y="694"/>
      <point x="811" y="748"/>
      <point x="811" y="887" type="curve" smooth="yes"/>
      <point x="811" y="922" type="line" smooth="yes"/>
      <point x="811" y="1016"/>
      <point x="802" y="1065"/>
      <point x="767" y="1110" type="curve"/>
    </contour>
    <contour>
      <point x="54" y="514" type="curve" smooth="yes"/>
      <point x="54" y="594" type="line" smooth="yes"/>
      <point x="54" y="870"/>
      <point x="176" y="986"/>
      <point x="382" y="986" type="curve" smooth="yes"/>
      <point x="435" y="986"/>
      <point x="470" y="980"/>
      <point x="501" y="969" type="curve"/>
      <point x="520" y="754" type="line"/>
      <point x="498" y="758"/>
      <point x="476" y="760"/>
      <point x="446" y="760" type="curve" smooth="yes"/>
      <point x="356" y="760"/>
      <point x="321" y="710"/>
      <point x="321" y="592" type="curve" smooth="yes"/>
      <point x="321" y="529" type="line" smooth="yes"/>
      <point x="321" y="404"/>
      <point x="363" y="358"/>
      <point x="448" y="358" type="curve" smooth="yes"/>
      <point x="533" y="358"/>
      <point x="600" y="397"/>
      <point x="601" y="517" type="curve"/>
      <point x="727" y="457" type="line"/>
      <point x="725" y="233"/>
      <point x="613" y="124"/>
      <point x="402" y="124" type="curve" smooth="yes"/>
      <point x="176" y="124"/>
      <point x="54" y="245"/>
    </contour>
  </outline>
  <guideline angle="0" x="0" y="373"/>
  <guideline angle="90" x="1254" y="0"/>
</glyph>
<glyph name="BaSaTta.dv" format="2">
  <advance width="1982"/>
  <anchor x="1664" y="17" name="bottom"/>
  <anchor x="1623" y="17" name="bottom2"/>
  <anchor x="1981" y="17" name="bottom3"/>
  <anchor x="1651" y="-48" name="bottom4"/>
  <anchor x="1652" y="35" name="bottom5"/>
  <anchor x="1746" y="1255" name="top"/>
  <outline>
    <contour>
      <point x="1555" y="1067" type="line"/>
      <point x="1541" y="1308" type="line"/>
      <point x="2002" y="1308" type="line"/>
      <point x="2016" y="1067" type="line"/>
    </contour>
    <contour>
      <point x="1893" y="1156" type="line"/>
      <point x="1893" y="961" type="line"/>
      <point x="1599" y="961" type="line"/>
      <point x="1599" y="1156" type="line"/>
    </contour>
    <contour>
      <point x="1210" y="1067" type="line"/>
      <point x="1196" y="1308" type="line"/>
      <point x="2023" y="1308" type="line"/>
      <point x="2037" y="1067" type="line"/>
    </contour>
    <contour>
      <point x="1598" y="727" type="line"/>
      <point x="1598" y="1159" type="line"/>
      <point x="1893" y="1159" type="line"/>
      <point x="1893" y="686" type="line"/>
    </contour>
    <contour>
      <point x="1912" y="39" type="line"/>
      <point x="1863" y="3"/>
      <point x="1787" y="-20"/>
      <point x="1685" y="-20" type="curve" smooth="yes"/>
      <point x="1421" y="-20"/>
      <point x="1290" y="103"/>
      <point x="1290" y="416" type="curve" smooth="yes"/>
      <point x="1290" y="506" type="line" smooth="yes"/>
      <point x="1290" y="810"/>
      <point x="1415" y="924"/>
      <point x="1671" y="924" type="curve" smooth="yes"/>
      <point x="1774" y="924"/>
      <point x="1836" y="911"/>
      <point x="1893" y="892" type="curve"/>
      <point x="1893" y="666" type="line"/>
      <point x="1847" y="673"/>
      <point x="1809" y="677"/>
      <point x="1763" y="677" type="curve" smooth="yes"/>
      <point x="1641" y="677"/>
      <point x="1594" y="626"/>
      <point x="1594" y="480" type="curve" smooth="yes"/>
      <point x="1594" y="434" type="line" smooth="yes"/>
      <point x="1594" y="293"/>
      <point x="1644" y="245"/>
      <point x="1748" y="245" type="curve" smooth="yes"/>
      <point x="1818" y="245"/>
      <point x="1875" y="270"/>
      <point x="1925" y="305" type="curve"/>
    </contour>
    <contour>
      <point x="-27" y="1067" type="line"/>
      <point x="-41" y="1308" type="line"/>
      <point x="1253" y="1308" type="line"/>
      <point x="1267" y="1067" type="line"/>
    </contour>
    <contour>
      <point x="273" y="743" type="line"/>
      <point x="391" y="822" type="line"/>
      <point x="619" y="402" type="line"/>
      <point x="509" y="317" type="line"/>
    </contour>
    <contour>
      <point x="1053" y="686" type="line"/>
      <point x="1336" y="686" type="line"/>
      <point x="1336" y="428" type="line"/>
      <point x="1078" y="428" type="line"/>
    </contour>
    <contour>
      <point x="1175" y="0" type="line"/>
      <point x="839" y="0" type="line"/>
      <point x="708" y="421" type="line"/>
      <point x="600" y="434" type="line"/>
      <point x="600" y="694" type="line"/>
      <point x="863" y="605" type="line"/>
      <point x="863" y="537" type="line"/>
      <point x="971" y="466"/>
      <point x="1027" y="379"/>
      <point x="1080" y="245" type="curve" smooth="yes"/>
      <point x="1175" y="6" type="line"/>
    </contour>
    <contour>
      <point x="1067" y="1110" type="line"/>
      <point x="1098" y="1064"/>
      <point x="1113" y="992"/>
      <point x="1113" y="889" type="curve" smooth="yes"/>
      <point x="1113" y="839" type="line" smooth="yes"/>
      <point x="1113" y="580"/>
      <point x="1032" y="466"/>
      <point x="811" y="443" type="curve" smooth="yes"/>
      <point x="762" y="438" type="line"/>
      <point x="600" y="694" type="line"/>
      <point x="652" y="694" type="line" smooth="yes"/>
      <point x="773" y="694"/>
      <point x="811" y="748"/>
      <point x="811" y="887" type="curve" smooth="yes"/>
      <point x="811" y="922" type="line" smooth="yes"/>
      <point x="811" y="1016"/>
      <point x="802" y="1065"/>
      <point x="767" y="1110" type="curve"/>
    </contour>
    <contour>
      <point x="54" y="514" type="curve" smooth="yes"/>
      <point x="54" y="594" type="line" smooth="yes"/>
      <point x="54" y="870"/>
      <point x="176" y="986"/>
      <point x="382" y="986" type="curve" smooth="yes"/>
      <point x="435" y="986"/>
      <point x="470" y="980"/>
      <point x="501" y="969" type="curve"/>
      <point x="520" y="754" type="line"/>
      <point x="498" y="758"/>
      <point x="476" y="760"/>
      <point x="446" y="760" type="curve" smooth="yes"/>
      <point x="356" y="760"/>
      <point x="321" y="710"/>
      <point x="321" y="592" type="curve" smooth="yes"/>
      <point x="321" y="529" type="line" smooth="yes"/>
      <point x="321" y="404"/>
      <point x="363" y="358"/>
      <point x="448" y="358" type="curve" smooth="yes"/>
      <point x="533" y="358"/>
      <point x="600" y="397"/>
      <point x="601" y="517" type="curve"/>
      <point x="727" y="457" type="line"/>
      <point x="725" y="233"/>
      <point x="613" y="124"/>
      <point x="402" y="124" type="curve" smooth="yes"/>
      <point x="176" y="124"/>
      <point x="54" y="245"/>
    </contour>
  </outline>
  <guideline angle="0" x="0" y="17"/>
  <guideline angle="0" x="0" y="35"/>
  <guideline angle="90" x="1746" y="0"/>
  <guideline angle="90" x="1993" y="0"/>
</glyph>
<glyph name="BaTa.dv" format="2">
  <advance width="1431"/>
  <anchor x="1198" y="37" name="bottom"/>
  <anchor x="1188" y="37" name="bottom2"/>
  <anchor x="1350" y="37" name="bottom3"/>
  <anchor x="1198" y="55" name="bottom5"/>
  <anchor x="1198" y="1255" name="top"/>
  <outline>
    <contour>
      <point x="-27" y="1067" type="line"/>
      <point x="-41" y="1308" type="line"/>
      <point x="593" y="1308" type="line"/>
      <point x="607" y="1067" type="line"/>
    </contour>
    <contour>
      <point x="273" y="723" type="line"/>
      <point x="391" y="802" type="line"/>
      <point x="623" y="372" type="line"/>
      <point x="513" y="287" type="line"/>
    </contour>
    <contour>
      <point x="54" y="484" type="curve" smooth="yes"/>
      <point x="54" y="574" type="line" smooth="yes"/>
      <point x="54" y="850"/>
      <point x="176" y="966"/>
      <point x="382" y="966" type="curve" smooth="yes"/>
      <point x="435" y="966"/>
      <point x="470" y="960"/>
      <point x="501" y="949" type="curve"/>
      <point x="520" y="734" type="line"/>
      <point x="498" y="738"/>
      <point x="476" y="740"/>
      <point x="446" y="740" type="curve" smooth="yes"/>
      <point x="356" y="740"/>
      <point x="321" y="690"/>
      <point x="321" y="572" type="curve" smooth="yes"/>
      <point x="321" y="499" type="line" smooth="yes"/>
      <point x="321" y="374"/>
      <point x="365" y="328"/>
      <point x="443" y="328" type="curve" smooth="yes"/>
      <point x="531" y="328"/>
      <point x="573" y="362"/>
      <point x="584" y="432" type="curve"/>
      <point x="605" y="256" type="line"/>
      <point x="573" y="256" type="line"/>
      <point x="549" y="162"/>
      <point x="485" y="94"/>
      <point x="345" y="94" type="curve" smooth="yes"/>
      <point x="157" y="94"/>
      <point x="54" y="202"/>
    </contour>
    <contour>
      <point x="1350" y="1156" type="line"/>
      <point x="1350" y="0" type="line"/>
      <point x="1046" y="0" type="line"/>
      <point x="1046" y="1156" type="line"/>
    </contour>
    <contour>
      <point x="1023" y="1067" type="line"/>
      <point x="1009" y="1308" type="line"/>
      <point x="1459" y="1308" type="line"/>
      <point x="1473" y="1067" type="line"/>
    </contour>
    <contour>
      <point x="472" y="1067" type="line"/>
      <point x="458" y="1308" type="line"/>
      <point x="1459" y="1308" type="line"/>
      <point x="1473" y="1067" type="line"/>
    </contour>
    <contour>
      <point x="638" y="0" type="line"/>
      <point x="586" y="202"/>
      <point x="550" y="392"/>
      <point x="550" y="550" type="curve" smooth="yes"/>
      <point x="550" y="778"/>
      <point x="653" y="907"/>
      <point x="912" y="907" type="curve" smooth="yes"/>
      <point x="1127" y="907" type="line"/>
      <point x="1127" y="646" type="line"/>
      <point x="971" y="646" type="line" smooth="yes"/>
      <point x="879" y="646"/>
      <point x="854" y="607"/>
      <point x="854" y="508" type="curve" smooth="yes"/>
      <point x="854" y="389"/>
      <point x="886" y="214"/>
      <point x="937" y="0" type="curve"/>
    </contour>
  </outline>
  <guideline angle="90" x="1198" y="0"/>
  <guideline angle="0" x="0" y="37"/>
  <guideline angle="0" x="0" y="1255"/>
  <guideline angle="90" x="1188" y="0"/>
  <guideline angle="90" x="1350" y="0"/>
  <guideline angle="0" x="0" y="55"/>
</glyph>
<glyph name="BaVa.dv" format="2">
  <advance width="1445"/>
  <anchor x="1212" y="37" name="bottom"/>
  <anchor x="1202" y="37" name="bottom2"/>
  <anchor x="1364" y="37" name="bottom3"/>
  <anchor x="1212" y="55" name="bottom5"/>
  <anchor x="1212" y="1255" name="top"/>
  <outline>
    <contour>
      <point x="-27" y="1067" type="line"/>
      <point x="-41" y="1308" type="line"/>
      <point x="693" y="1308" type="line"/>
      <point x="707" y="1067" type="line"/>
    </contour>
    <contour>
      <point x="273" y="723" type="line"/>
      <point x="391" y="802" type="line"/>
      <point x="623" y="372" type="line"/>
      <point x="513" y="287" type="line"/>
    </contour>
    <contour>
      <point x="54" y="484" type="curve" smooth="yes"/>
      <point x="54" y="574" type="line" smooth="yes"/>
      <point x="54" y="850"/>
      <point x="176" y="966"/>
      <point x="382" y="966" type="curve" smooth="yes"/>
      <point x="435" y="966"/>
      <point x="470" y="960"/>
      <point x="501" y="949" type="curve"/>
      <point x="520" y="734" type="line"/>
      <point x="498" y="738"/>
      <point x="476" y="740"/>
      <point x="446" y="740" type="curve" smooth="yes"/>
      <point x="356" y="740"/>
      <point x="321" y="690"/>
      <point x="321" y="572" type="curve" smooth="yes"/>
      <point x="321" y="499" type="line" smooth="yes"/>
      <point x="321" y="374"/>
      <point x="365" y="328"/>
      <point x="443" y="328" type="curve" smooth="yes"/>
      <point x="531" y="328"/>
      <point x="573" y="362"/>
      <point x="584" y="432" type="curve"/>
      <point x="624" y="263" type="line"/>
      <point x="591" y="263" type="line"/>
      <point x="564" y="165"/>
      <point x="503" y="94"/>
      <point x="357" y="94" type="curve" smooth="yes"/>
      <point x="161" y="94"/>
      <point x="54" y="202"/>
    </contour>
    <contour>
      <point x="1364" y="1156" type="line"/>
      <point x="1364" y="0" type="line"/>
      <point x="1060" y="0" type="line"/>
      <point x="1060" y="1156" type="line"/>
    </contour>
    <contour>
      <point x="1037" y="1067" type="line"/>
      <point x="1023" y="1308" type="line"/>
      <point x="1473" y="1308" type="line"/>
      <point x="1487" y="1067" type="line"/>
    </contour>
    <contour>
      <point x="484" y="1067" type="line"/>
      <point x="470" y="1308" type="line"/>
      <point x="1473" y="1308" type="line"/>
      <point x="1487" y="1067" type="line"/>
    </contour>
    <contour>
      <point x="566" y="487" type="curve" smooth="yes"/>
      <point x="566" y="561" type="line" smooth="yes"/>
      <point x="566" y="847"/>
      <point x="663" y="962"/>
      <point x="871" y="962" type="curve" smooth="yes"/>
      <point x="917" y="962"/>
      <point x="950" y="957"/>
      <point x="981" y="948" type="curve"/>
      <point x="1000" y="694" type="line"/>
      <point x="991" y="696"/>
      <point x="980" y="697"/>
      <point x="967" y="697" type="curve" smooth="yes"/>
      <point x="899" y="697"/>
      <point x="870" y="657"/>
      <point x="870" y="550" type="curve" smooth="yes"/>
      <point x="870" y="512" type="line" smooth="yes"/>
      <point x="870" y="401"/>
      <point x="900" y="370"/>
      <point x="965" y="370" type="curve" smooth="yes"/>
      <point x="1024" y="370"/>
      <point x="1057" y="405"/>
      <point x="1064" y="473" type="curve"/>
      <point x="1084" y="285" type="line"/>
      <point x="1049" y="285" type="line"/>
      <point x="1031" y="177"/>
      <point x="961" y="105"/>
      <point x="834" y="105" type="curve" smooth="yes"/>
      <point x="661" y="105"/>
      <point x="566" y="218"/>
    </contour>
  </outline>
  <guideline angle="90" x="1212" y="0"/>
  <guideline angle="0" x="0" y="37"/>
  <guideline angle="0" x="0" y="1255"/>
  <guideline angle="90" x="1202" y="0"/>
  <guideline angle="90" x="1364" y="0"/>
  <guideline angle="0" x="0" y="55"/>
</glyph>
<glyph name="BaYa.dv" format="2">
  <advance width="1532"/>
  <anchor x="1299" y="37" name="bottom"/>
  <anchor x="1289" y="37" name="bottom2"/>
  <anchor x="1451" y="37" name="bottom3"/>
  <anchor x="1299" y="55" name="bottom5"/>
  <anchor x="1299" y="1255" name="top"/>
  <outline>
    <contour>
      <point x="1451" y="1156" type="line"/>
      <point x="1451" y="0" type="line"/>
      <point x="1147" y="0" type="line"/>
      <point x="1147" y="1156" type="line"/>
    </contour>
    <contour>
      <point x="1124" y="1067" type="line"/>
      <point x="1110" y="1308" type="line"/>
      <point x="1560" y="1308" type="line"/>
      <point x="1574" y="1067" type="line"/>
    </contour>
    <contour>
      <point x="476" y="1308" type="line"/>
      <point x="1460" y="1308" type="line"/>
      <point x="1474" y="1067" type="line"/>
      <point x="490" y="1067" type="line"/>
    </contour>
    <contour>
      <point x="980" y="1100" type="line"/>
      <point x="1011" y="1054"/>
      <point x="1020" y="999"/>
      <point x="1020" y="889" type="curve" smooth="yes"/>
      <point x="1020" y="821" type="line" smooth="yes"/>
      <point x="1020" y="624"/>
      <point x="949" y="530"/>
      <point x="733" y="523" type="curve" smooth="yes"/>
      <point x="684" y="521" type="line"/>
      <point x="570" y="738" type="line"/>
      <point x="588" y="738" type="line" smooth="yes"/>
      <point x="685" y="738"/>
      <point x="716" y="789"/>
      <point x="716" y="891" type="curve" smooth="yes"/>
      <point x="716" y="940" type="line" smooth="yes"/>
      <point x="716" y="1025"/>
      <point x="705" y="1065"/>
      <point x="679" y="1100" type="curve"/>
    </contour>
    <contour>
      <point x="570" y="537" type="line" smooth="yes"/>
      <point x="570" y="602"/>
      <point x="570" y="666"/>
      <point x="570" y="738" type="curve"/>
      <point x="860" y="661" type="line"/>
      <point x="860" y="530" type="line" smooth="yes"/>
      <point x="860" y="443"/>
      <point x="904" y="403"/>
      <point x="1000" y="403" type="curve" smooth="yes"/>
      <point x="1109" y="403"/>
      <point x="1145" y="458"/>
      <point x="1156" y="535" type="curve"/>
      <point x="1171" y="324" type="line"/>
      <point x="1137" y="324" type="line"/>
      <point x="1113" y="211"/>
      <point x="1042" y="138"/>
      <point x="884" y="138" type="curve" smooth="yes"/>
      <point x="685" y="138"/>
      <point x="570" y="248"/>
      <point x="570" y="515" type="curve" smooth="yes"/>
    </contour>
    <contour>
      <point x="-27" y="1067" type="line"/>
      <point x="-41" y="1308" type="line"/>
      <point x="593" y="1308" type="line"/>
      <point x="607" y="1067" type="line"/>
    </contour>
    <contour>
      <point x="273" y="723" type="line"/>
      <point x="391" y="802" type="line"/>
      <point x="623" y="372" type="line"/>
      <point x="513" y="287" type="line"/>
    </contour>
    <contour>
      <point x="520" y="734" type="line"/>
      <point x="498" y="738"/>
      <point x="476" y="740"/>
      <point x="446" y="740" type="curve" smooth="yes"/>
      <point x="356" y="740"/>
      <point x="321" y="690"/>
      <point x="321" y="572" type="curve" smooth="yes"/>
      <point x="321" y="499" type="line" smooth="yes"/>
      <point x="321" y="374"/>
      <point x="365" y="328"/>
      <point x="443" y="328" type="curve" smooth="yes"/>
      <point x="531" y="328"/>
      <point x="573" y="362"/>
      <point x="584" y="432" type="curve"/>
      <point x="654" y="263" type="line"/>
      <point x="619" y="263" type="line"/>
      <point x="589" y="161"/>
      <point x="515" y="94"/>
      <point x="375" y="94" type="curve" smooth="yes"/>
      <point x="167" y="94"/>
      <point x="54" y="202"/>
      <point x="54" y="484" type="curve" smooth="yes"/>
      <point x="54" y="574" type="line" smooth="yes"/>
      <point x="54" y="850"/>
      <point x="176" y="966"/>
      <point x="382" y="966" type="curve" smooth="yes"/>
      <point x="435" y="966"/>
      <point x="470" y="960"/>
      <point x="501" y="949" type="curve"/>
    </contour>
  </outline>
  <guideline angle="90" x="613" y="0"/>
</glyph>
<glyph name="BhaLa.MAR.dv" format="2">
  <advance width="1727"/>
  <anchor x="1402" y="47" name="bottom"/>
  <anchor x="1385" y="37" name="bottom2"/>
  <anchor x="1472" y="37" name="bottom3"/>
  <anchor x="1141" y="55" name="bottom5"/>
  <anchor x="1396" y="1255" name="top"/>
  <outline>
    <contour>
      <point x="620" y="1067" type="line"/>
      <point x="606" y="1308" type="line"/>
      <point x="1756" y="1308" type="line"/>
      <point x="1770" y="1067" type="line"/>
    </contour>
    <contour>
      <point x="1543" y="1102" type="line"/>
      <point x="1543" y="857" type="line"/>
      <point x="1248" y="857" type="line"/>
      <point x="1248" y="1102" type="line"/>
    </contour>
    <contour>
      <point x="916" y="922" type="curve" smooth="yes"/>
      <point x="1043" y="922"/>
      <point x="1111" y="867"/>
      <point x="1139" y="769" type="curve"/>
      <point x="1146" y="769" type="line"/>
      <point x="1175" y="865"/>
      <point x="1245" y="922"/>
      <point x="1376" y="922" type="curve" smooth="yes"/>
      <point x="1575" y="922"/>
      <point x="1672" y="804"/>
      <point x="1672" y="534" type="curve" smooth="yes"/>
      <point x="1672" y="440" type="line" smooth="yes"/>
      <point x="1672" y="226"/>
      <point x="1637" y="112"/>
      <point x="1556" y="0" type="curve"/>
      <point x="1232" y="0" type="line"/>
      <point x="1232" y="4" type="line"/>
      <point x="1334" y="131"/>
      <point x="1376" y="241"/>
      <point x="1376" y="438" type="curve" smooth="yes"/>
      <point x="1376" y="528" type="line" smooth="yes"/>
      <point x="1376" y="626"/>
      <point x="1359" y="655"/>
      <point x="1323" y="655" type="curve" smooth="yes"/>
      <point x="1288" y="655"/>
      <point x="1273" y="637"/>
      <point x="1269" y="546" type="curve" smooth="yes"/>
      <point x="1256" y="241" type="line"/>
      <point x="1023" y="241" type="line"/>
      <point x="1010" y="546" type="line" smooth="yes"/>
      <point x="1006" y="637"/>
      <point x="995" y="657"/>
      <point x="958" y="657" type="curve" smooth="yes"/>
      <point x="920" y="657"/>
      <point x="903" y="624"/>
      <point x="903" y="528" type="curve" smooth="yes"/>
      <point x="903" y="438" type="line" smooth="yes"/>
      <point x="903" y="241"/>
      <point x="947" y="131"/>
      <point x="1048" y="4" type="curve"/>
      <point x="1048" y="0" type="line"/>
      <point x="723" y="0" type="line"/>
      <point x="640" y="112"/>
      <point x="607" y="226"/>
      <point x="607" y="440" type="curve" smooth="yes"/>
      <point x="607" y="534" type="line" smooth="yes"/>
      <point x="607" y="802"/>
      <point x="715" y="922"/>
    </contour>
    <contour>
      <point x="534" y="1067" type="line"/>
      <point x="520" y="1308" type="line"/>
      <point x="749" y="1308" type="line"/>
      <point x="763" y="1067" type="line"/>
    </contour>
    <contour>
      <point x="188" y="416" type="line"/>
      <point x="188" y="673" type="line"/>
      <point x="722" y="673" type="line"/>
      <point x="722" y="416" type="line"/>
    </contour>
    <contour>
      <point x="175" y="127" type="line"/>
      <point x="93" y="250"/>
      <point x="39" y="410"/>
      <point x="30" y="587" type="curve"/>
      <point x="122" y="650" type="line"/>
      <point x="422" y="650" type="line"/>
      <point x="422" y="127" type="line"/>
    </contour>
    <contour>
      <point x="122" y="535" type="line"/>
      <point x="122" y="966" type="line" smooth="yes"/>
      <point x="122" y="1043"/>
      <point x="104" y="1067"/>
      <point x="39" y="1067" type="curve" smooth="yes"/>
      <point x="-27" y="1067" type="line"/>
      <point x="-42" y="1308" type="line"/>
      <point x="82" y="1308" type="line" smooth="yes"/>
      <point x="337" y="1308"/>
      <point x="422" y="1211"/>
      <point x="422" y="970" type="curve" smooth="yes"/>
      <point x="422" y="535" type="line"/>
    </contour>
    <contour>
      <point x="1205" y="1067" type="line"/>
      <point x="1191" y="1308" type="line"/>
      <point x="1652" y="1308" type="line"/>
      <point x="1666" y="1067" type="line"/>
    </contour>
    <contour>
      <point x="1543" y="1156" type="line"/>
      <point x="1543" y="961" type="line"/>
      <point x="1249" y="961" type="line"/>
      <point x="1249" y="1156" type="line"/>
    </contour>
  </outline>
  <guideline angle="0" x="0" y="370"/>
  <guideline angle="0" x="0" y="132"/>
  <guideline angle="90" x="607" y="0"/>
  <guideline angle="90" x="1385" y="0"/>
  <guideline angle="90" x="1471" y="0"/>
  <guideline angle="90" x="1385" y="0"/>
  <guideline angle="90" x="1471" y="0"/>
  <guideline angle="90" x="1396" y="0"/>
  <guideline angle="90" x="1643" y="0"/>
</glyph>
<glyph name="BhaRa.dv" format="2">
  <advance width="986"/>
  <anchor x="753" y="4" name="bottom"/>
  <anchor x="743" y="4" name="bottom2"/>
  <anchor x="905" y="4" name="bottom3"/>
  <anchor x="753" y="1255" name="top"/>
  <outline>
    <contour>
      <point x="516" y="1067" type="line"/>
      <point x="502" y="1308" type="line"/>
      <point x="1014" y="1308" type="line"/>
      <point x="1028" y="1067" type="line"/>
    </contour>
    <contour>
      <point x="721" y="714" type="line"/>
      <point x="721" y="456" type="line"/>
      <point x="186" y="456" type="line"/>
      <point x="186" y="714" type="line"/>
    </contour>
    <contour>
      <point x="130" y="-42" type="line"/>
      <point x="130" y="-15" type="line"/>
      <point x="666" y="447" type="line"/>
      <point x="666" y="201" type="line"/>
      <point x="463" y="-42" type="line"/>
    </contour>
    <contour>
      <point x="611" y="-33" type="line"/>
      <point x="611" y="280" type="line"/>
      <point x="601" y="311" type="line"/>
      <point x="601" y="1159" type="line"/>
      <point x="905" y="1159" type="line"/>
      <point x="905" y="-33" type="line"/>
    </contour>
    <contour>
      <point x="165" y="245" type="line"/>
      <point x="84" y="359"/>
      <point x="42" y="497"/>
      <point x="29" y="640" type="curve"/>
      <point x="121" y="697" type="line"/>
      <point x="416" y="697" type="line"/>
      <point x="416" y="245" type="line"/>
    </contour>
    <contour>
      <point x="121" y="554" type="line"/>
      <point x="121" y="966" type="line" smooth="yes"/>
      <point x="121" y="1043"/>
      <point x="104" y="1067"/>
      <point x="41" y="1067" type="curve" smooth="yes"/>
      <point x="-28" y="1067" type="line"/>
      <point x="-42" y="1308" type="line"/>
      <point x="85" y="1308" type="line" smooth="yes"/>
      <point x="337" y="1308"/>
      <point x="421" y="1211"/>
      <point x="421" y="970" type="curve" smooth="yes"/>
      <point x="421" y="554" type="line"/>
    </contour>
  </outline>
  <guideline angle="90" x="753" y="0"/>
  <guideline angle="0" x="0" y="4"/>
</glyph>
<glyph name="BhaRaYa.dv" format="2">
  <advance width="1544"/>
  <anchor x="1311" y="37" name="bottom"/>
  <anchor x="1301" y="37" name="bottom2"/>
  <anchor x="1463" y="37" name="bottom3"/>
  <anchor x="1311" y="55" name="bottom5"/>
  <anchor x="1311" y="1255" name="top"/>
  <outline>
    <contour>
      <point x="647" y="714" type="line"/>
      <point x="647" y="456" type="line"/>
      <point x="186" y="456" type="line"/>
      <point x="186" y="714" type="line"/>
    </contour>
    <contour>
      <point x="206" y="-42" type="line"/>
      <point x="206" y="-15" type="line"/>
      <point x="711" y="447" type="line"/>
      <point x="830" y="296" type="line"/>
      <point x="565" y="-42" type="line"/>
    </contour>
    <contour>
      <point x="165" y="245" type="line"/>
      <point x="84" y="359"/>
      <point x="42" y="497"/>
      <point x="29" y="640" type="curve"/>
      <point x="121" y="697" type="line"/>
      <point x="416" y="697" type="line"/>
      <point x="416" y="245" type="line"/>
    </contour>
    <contour>
      <point x="121" y="554" type="line"/>
      <point x="121" y="966" type="line" smooth="yes"/>
      <point x="121" y="1043"/>
      <point x="103" y="1067"/>
      <point x="38" y="1067" type="curve" smooth="yes"/>
      <point x="-27" y="1067" type="line"/>
      <point x="-42" y="1308" type="line"/>
      <point x="81" y="1308" type="line" smooth="yes"/>
      <point x="336" y="1308"/>
      <point x="421" y="1211"/>
      <point x="421" y="970" type="curve" smooth="yes"/>
      <point x="421" y="554" type="line"/>
    </contour>
    <contour>
      <point x="1463" y="1156" type="line"/>
      <point x="1463" y="0" type="line"/>
      <point x="1159" y="0" type="line"/>
      <point x="1159" y="1156" type="line"/>
    </contour>
    <contour>
      <point x="1136" y="1067" type="line"/>
      <point x="1122" y="1308" type="line"/>
      <point x="1572" y="1308" type="line"/>
      <point x="1586" y="1067" type="line"/>
    </contour>
    <contour>
      <point x="488" y="1308" type="line"/>
      <point x="1472" y="1308" type="line"/>
      <point x="1486" y="1067" type="line"/>
      <point x="502" y="1067" type="line"/>
    </contour>
    <contour>
      <point x="992" y="1100" type="line"/>
      <point x="1023" y="1054"/>
      <point x="1032" y="999"/>
      <point x="1032" y="889" type="curve" smooth="yes"/>
      <point x="1032" y="821" type="line" smooth="yes"/>
      <point x="1032" y="624"/>
      <point x="961" y="530"/>
      <point x="745" y="523" type="curve" smooth="yes"/>
      <point x="696" y="521" type="line"/>
      <point x="582" y="738" type="line"/>
      <point x="600" y="738" type="line" smooth="yes"/>
      <point x="697" y="738"/>
      <point x="728" y="789"/>
      <point x="728" y="891" type="curve" smooth="yes"/>
      <point x="728" y="940" type="line" smooth="yes"/>
      <point x="728" y="1025"/>
      <point x="717" y="1065"/>
      <point x="691" y="1100" type="curve"/>
    </contour>
    <contour>
      <point x="582" y="537" type="line" smooth="yes"/>
      <point x="582" y="602"/>
      <point x="582" y="666"/>
      <point x="582" y="738" type="curve"/>
      <point x="872" y="661" type="line"/>
      <point x="872" y="530" type="line" smooth="yes"/>
      <point x="872" y="443"/>
      <point x="916" y="403"/>
      <point x="1012" y="403" type="curve" smooth="yes"/>
      <point x="1121" y="403"/>
      <point x="1157" y="458"/>
      <point x="1168" y="535" type="curve"/>
      <point x="1183" y="324" type="line"/>
      <point x="1149" y="324" type="line"/>
      <point x="1125" y="211"/>
      <point x="1054" y="138"/>
      <point x="896" y="138" type="curve" smooth="yes"/>
      <point x="697" y="138"/>
      <point x="582" y="248"/>
      <point x="582" y="515" type="curve" smooth="yes"/>
    </contour>
  </outline>
  <guideline angle="90" x="625" y="0"/>
  <guideline angle="90" x="1311" y="0"/>
  <guideline angle="0" x="0" y="37"/>
  <guideline angle="0" x="0" y="1255"/>
  <guideline angle="90" x="1301" y="0"/>
  <guideline angle="90" x="1463" y="0"/>
  <guideline angle="0" x="0" y="55"/>
</glyph>
